<?xml version="1.0" encoding="UTF-8"?>
<svg version="1.1" xmlns="http://www.w3.org/2000/svg" width="600" height="69">
<path d="M0 0 C1.1953688 -0.00637985 2.39073761 -0.0127597 3.62232971 -0.01933289 C4.92637253 -0.02044571 6.23041534 -0.02155853 7.57397461 -0.02270508 C8.92101579 -0.02591809 10.26805661 -0.0292822 11.61509705 -0.03279114 C14.44734504 -0.03879262 17.2795625 -0.04063027 20.11181641 -0.04003906 C23.72407372 -0.039938 27.33613197 -0.05352685 30.94834232 -0.07081127 C33.73578266 -0.08199259 36.52317606 -0.08395631 39.31063652 -0.08342934 C41.28466628 -0.08517041 43.25868138 -0.09598278 45.23268127 -0.10697937 C61.78180802 -0.06515736 61.78180802 -0.06515736 67.28881836 5.02026367 C67.84311523 5.51268555 68.39741211 6.00510742 68.96850586 6.51245117 C72.46731514 10.46516004 72.73307549 13.85965708 72.78881836 19.08276367 C72.81717773 20.28803711 72.84553711 21.49331055 72.87475586 22.73510742 C72.17461398 27.91497066 69.07897537 30.66336451 65.41381836 34.14526367 C66.38319336 34.92901367 67.35256836 35.71276367 68.35131836 36.52026367 C70.25344182 38.05815072 71.31011793 38.93786281 72.41381836 41.14526367 C73.35121164 53.13160402 73.35121164 53.13160402 70.72631836 58.77026367 C66.66732333 62.93896127 63.53874117 66.01587602 57.50947571 66.26551819 C55.73409676 66.26218727 55.73409676 66.26218727 53.92285156 66.25878906 C52.9419606 66.2590081 52.9419606 66.2590081 51.94125366 66.25923157 C49.7823351 66.25853556 47.62350308 66.25075775 45.46459961 66.24291992 C43.96673123 66.24105464 42.46886225 66.23963125 40.97099304 66.2386322 C37.03036817 66.23481574 33.08978022 66.22499287 29.14916992 66.21392822 C25.12736511 66.2036954 21.10555432 66.19913057 17.08374023 66.1940918 C9.19374935 66.18336983 1.30378845 66.16630385 -6.58618164 66.14526367 C-6.61083092 60.89420925 -6.62901732 55.64318822 -6.64111328 50.39208984 C-6.64615382 48.60432346 -6.65298618 46.81656123 -6.66162109 45.02880859 C-6.67369894 42.46475199 -6.67941258 39.9007497 -6.68383789 37.33666992 C-6.68899918 36.53250137 -6.69416046 35.72833282 -6.69947815 34.89979553 C-6.69967379 32.98124652 -6.64820147 31.06280999 -6.58618164 29.14526367 C-4.81396585 27.37304789 -2.24433782 28.01109809 0.15527344 28.00341797 C1.38357376 27.99638351 2.61187408 27.98934906 3.87739563 27.98210144 C4.53806849 27.98028555 5.19874134 27.97846966 5.87943459 27.97659874 C7.94322066 27.96944822 10.00676688 27.95379199 12.07048035 27.93525696 C17.93953115 27.88272581 23.80845364 27.83481919 29.67773438 27.81933594 C33.26475565 27.80925147 36.85117863 27.77991339 40.43796349 27.73801613 C41.805035 27.72570403 43.17219104 27.72058528 44.53931618 27.72281456 C46.45433475 27.72516832 48.36932961 27.70080498 50.28417969 27.67529297 C51.37370438 27.66942673 52.46322906 27.66356049 53.58576965 27.65751648 C57.09885231 27.02118145 58.29262979 25.97663931 60.41381836 23.14526367 C60.87719039 18.74322938 60.89420743 16.86584728 58.41381836 13.14526367 C55.18671556 12.06956274 52.77724426 11.98815207 49.38183594 11.93994141 C48.14077591 11.91999619 46.89971588 11.90005096 45.62104797 11.87950134 C44.26681646 11.8625184 42.91258363 11.84563954 41.55834961 11.82885742 C40.17257577 11.80828139 38.78680811 11.78728475 37.40104675 11.7658844 C33.75640883 11.71073066 30.1117149 11.66129194 26.46697998 11.61303711 C22.74673486 11.56277311 19.02657093 11.50711264 15.30639648 11.4519043 C8.00893923 11.34440468 0.71141439 11.2429416 -6.58618164 11.14526367 C-6.61306315 9.49951801 -6.63252287 7.85364954 -6.64868164 6.20776367 C-6.6602832 5.29124023 -6.67188477 4.3747168 -6.68383789 3.43041992 C-6.49420492 -1.00699164 -3.83310136 0.01381906 0 0 Z M4.41381836 39.14526367 C4.38697157 41.79116381 4.36705479 44.43679463 4.35131836 47.08276367 C4.34293945 47.83750977 4.33456055 48.59225586 4.32592773 49.36987305 C4.31729395 51.29520681 4.36157503 53.22061948 4.41381836 55.14526367 C6.03062852 56.76207383 7.80279096 56.28887417 10.0378418 56.30639648 C11.02266541 56.31600403 12.00748901 56.32561157 13.02215576 56.33551025 C14.63141937 56.34188507 14.63141937 56.34188507 16.27319336 56.34838867 C17.36972229 56.35408875 18.46625122 56.35978882 19.5960083 56.36566162 C21.92296376 56.37513003 24.24993275 56.38165287 26.5769043 56.38549805 C30.13476092 56.39518456 33.69203545 56.42618335 37.24975586 56.45776367 C39.50756492 56.46429527 41.76537812 56.46954512 44.02319336 56.47338867 C45.62031158 56.49190887 45.62031158 56.49190887 47.24969482 56.51080322 C54.35813072 56.58226259 54.35813072 56.58226259 60.41381836 53.14526367 C61.97853069 50.01583902 62.11083794 46.53444144 61.41381836 43.14526367 C59.36347536 40.60251925 58.17334218 39.29180582 54.92071533 38.66424561 C53.98805847 38.67312805 53.05540161 38.6820105 52.09448242 38.69116211 C51.03368469 38.69146423 49.97288696 38.69176636 48.87994385 38.69207764 C47.74127869 38.71272278 46.60261353 38.73336792 45.42944336 38.75463867 C44.25871277 38.76029846 43.08798218 38.76595825 41.8817749 38.77178955 C38.14204036 38.79418242 34.40326339 38.84438687 30.66381836 38.89526367 C28.12867594 38.91532479 25.59351851 38.93357623 23.05834961 38.94995117 C16.84317907 38.99405689 10.62856712 39.06099913 4.41381836 39.14526367 Z " fill="#199772" transform="translate(7.586181640625,0.854736328125)"/>
<path d="M0 0 C1.28125 1.375 1.28125 1.375 3.28125 4.625 C3.66925781 5.25148438 4.05726563 5.87796875 4.45703125 6.5234375 C9.10620096 15.63005858 8.76210359 28.165154 6.515625 37.96484375 C3.85539876 44.98488522 0.19238089 49.59318444 -6.65625 52.875 C-7.67589844 53.37515625 -8.69554687 53.8753125 -9.74609375 54.390625 C-16.89259456 57.35816016 -24.28660486 56.84468813 -31.90625 56.875 C-33.82147461 56.9059375 -33.82147461 56.9059375 -35.77539062 56.9375 C-46.6446549 56.98220649 -56.1060513 55.8477607 -64.30859375 48.12890625 C-71.46456327 40.55302653 -72.20640042 32.39950673 -72.140625 22.36669922 C-71.86496711 13.64901851 -69.78732675 5.56585787 -63.58984375 -0.87890625 C-47.32076842 -13.88737358 -15.99626746 -12.79701396 0 0 Z M-56.3828125 8.83203125 C-60.6613223 14.57424177 -61.57307785 21.65801658 -60.71875 28.625 C-59.58969496 34.75851523 -57.54405674 38.68118755 -52.54296875 42.4765625 C-42.96545432 48.50608979 -28.97939818 47.55214527 -18.30078125 45.3828125 C-13.07067341 43.84780354 -9.07214068 41.41496832 -5.78125 37.0625 C-2.74343012 30.0933838 -2.49957002 21.50098299 -4.78125 14.25 C-7.21517006 8.8797452 -10.92144636 5.71033743 -16.38671875 3.58984375 C-28.78424875 0.0687487 -46.47368494 -0.95625329 -56.3828125 8.83203125 Z " fill="#189A73" transform="translate(185.71875,10.375)"/>
<path d="M0 0 C12.23658242 0 12.23658242 0 16.18237305 3.91088867 C16.92741089 4.72843628 16.92741089 4.72843628 17.6875 5.5625 C18.79102455 6.67511641 19.89518837 7.78709914 21 8.8984375 C21.77537109 9.70619629 21.77537109 9.70619629 22.56640625 10.53027344 C24.35112888 12.35997886 26.24137704 14.03172603 28.1875 15.6875 C31.15726789 18.25713074 34.08511071 20.86819555 37 23.5 C40.61404058 26.76145125 44.25789354 29.98359155 47.9296875 33.1796875 C51.15389154 36.01455369 54.32970335 38.90271419 57.5078125 41.7890625 C60.28576414 44.25351489 63.14716284 46.6226357 66 49 C66.33 40.42 66.66 31.84 67 23 C70.96 23 74.92 23 79 23 C79 37.19 79 51.38 79 66 C65.65061119 66 65.65061119 66 61.37402344 61.73339844 C60.8380957 61.14075195 60.30216797 60.54810547 59.75 59.9375 C58.56311597 58.73246591 57.37562105 57.5280332 56.1875 56.32421875 C55.63578125 55.74462402 55.0840625 55.1650293 54.515625 54.56787109 C52.68768036 52.67691418 50.75451875 50.95141612 48.75 49.25 C45.79938235 46.70288562 42.89301214 44.11247763 40 41.5 C32.65532015 34.87865983 25.17700305 28.42210169 17.65917969 21.9987793 C13.10322922 18.10322922 13.10322922 18.10322922 12 17 C11.67 33.17 11.34 49.34 11 66 C7.37 66 3.74 66 0 66 C0 44.22 0 22.44 0 0 Z " fill="#9BCB23" transform="translate(205,1)"/>
<path d="M0 0 C2.97933282 0.01855743 5.95835886 0.02050707 8.93774414 0.02026367 C10.83032498 0.02516929 12.72290371 0.03099339 14.61547852 0.0378418 C15.95271721 0.03951103 15.95271721 0.03951103 17.31697083 0.04121399 C23.51105081 0.08966409 23.51105081 0.08966409 24.62719727 1.20581055 C24.69925238 2.89190021 24.71105794 4.58081714 24.68969727 6.26831055 C24.68067383 7.18741211 24.67165039 8.10651367 24.66235352 9.0534668 C24.65075195 9.76374023 24.63915039 10.47401367 24.62719727 11.20581055 C24.0775531 11.21167679 23.52790894 11.21754303 22.96160889 11.22358704 C17.18510344 11.28805597 11.40912792 11.37260537 5.63305664 11.46826172 C3.48403966 11.50129625 1.33494039 11.5293933 -0.81420898 11.55224609 C-19.2752935 11.20012873 -19.2752935 11.20012873 -36.43530273 17.01831055 C-41.61106397 22.86191194 -42.69464874 29.07746666 -42.58374023 36.6081543 C-42.14303561 42.03535018 -40.66441247 46.38603459 -36.56030273 50.08081055 C-28.48016679 55.46756785 -19.24675585 55.35651273 -9.84545898 55.5222168 C-8.3620829 55.55338844 -8.3620829 55.55338844 -6.84873962 55.58518982 C-3.71099335 55.65021609 -0.57316827 55.70935073 2.56469727 55.76831055 C4.7007729 55.81154046 6.83684076 55.85515613 8.97290039 55.89916992 C14.19091999 56.00584897 19.40901832 56.10724671 24.62719727 56.20581055 C24.62719727 59.50581055 24.62719727 62.80581055 24.62719727 66.20581055 C17.1198948 66.28029533 9.6128103 66.33457136 2.10522461 66.37060547 C-0.44559479 66.38563691 -2.99638859 66.40606759 -5.54711914 66.43212891 C-9.22605736 66.46876027 -12.90465209 66.485594 -16.58374023 66.4987793 C-17.71331146 66.51426315 -18.84288269 66.52974701 -20.00668335 66.54570007 C-30.2907674 66.54785703 -39.18305419 64.89368759 -46.96264648 57.74487305 C-53.95899298 50.45772486 -54.83337028 41.86321412 -54.72436523 32.10839844 C-54.44041656 23.79402638 -52.71248603 16.54040157 -47.34545898 10.02612305 C-34.74280932 -1.60325269 -15.94087088 -0.10312081 0 0 Z " fill="#189A74" transform="translate(484.372802734375,0.794189453125)"/>
<path d="M0 0 C0.9075 0.00257812 1.815 0.00515625 2.75 0.0078125 C4.11125 0.00394531 4.11125 0.00394531 5.5 0 C7.75 0.1328125 7.75 0.1328125 8.75 1.1328125 C8.84409479 3.15775481 8.86743122 5.1860112 8.86352539 7.21313477 C8.86341209 9.16504478 8.86341209 9.16504478 8.86329651 11.15638733 C8.85818909 12.58733152 8.85297308 14.01827532 8.84765625 15.44921875 C8.84579203 16.9051051 8.84436815 18.36099207 8.84336853 19.81687927 C8.83954365 23.65560629 8.82971364 27.49429569 8.81866455 31.33300781 C8.80844978 35.24739066 8.80387077 39.16177956 8.79882812 43.07617188 C8.78809133 50.76173791 8.77049479 58.44726515 8.75 66.1328125 C4.79 66.1328125 0.83 66.1328125 -3.25 66.1328125 C-3.25 57.5528125 -3.25 48.9728125 -3.25 40.1328125 C-21.73 39.8028125 -40.21 39.4728125 -59.25 39.1328125 C-59.25 48.0428125 -59.25 56.9528125 -59.25 66.1328125 C-62.88 66.1328125 -66.51 66.1328125 -70.25 66.1328125 C-70.25 53.5928125 -70.25 41.0528125 -70.25 28.1328125 C-48.14 28.1328125 -26.03 28.1328125 -3.25 28.1328125 C-3.25 19.2228125 -3.25 10.3128125 -3.25 1.1328125 C-2.25 0.1328125 -2.25 0.1328125 0 0 Z " fill="#199872" transform="translate(590.25,0.8671875)"/>
<path d="M0 0 C0.71484055 0.00202423 1.42968109 0.00404846 2.16618347 0.00613403 C2.91574814 0.00438171 3.66531281 0.00262939 4.43759155 0.00082397 C6.92722354 -0.00359463 9.41678508 -0.00065653 11.90641785 0.00271606 C13.62895217 0.00204303 15.35148639 0.001073 17.07402039 -0.00018311 C20.68889772 -0.00166009 24.3037504 0.00049449 27.91862488 0.00515747 C32.56283277 0.01085476 37.20698289 0.00757576 41.85118866 0.00158501 C45.40953511 -0.00202059 48.96786775 -0.00088203 52.5262146 0.0017128 C54.23911547 0.00238207 55.95201757 0.00155363 57.66491699 -0.00076675 C60.05469606 -0.00329326 62.44438026 0.00054727 64.83415222 0.00613403 C65.90641304 0.00309769 65.90641304 0.00309769 67.00033569 0 C71.88590516 0.02126588 71.88590516 0.02126588 73.00016785 1.13552856 C73.00016785 4.43552856 73.00016785 7.73552856 73.00016785 11.13552856 C61.78016785 11.13552856 50.56016785 11.13552856 39.00016785 11.13552856 C39.00016785 29.28552856 39.00016785 47.43552856 39.00016785 66.13552856 C35.37016785 66.13552856 31.74016785 66.13552856 28.00016785 66.13552856 C28.00016785 47.98552856 28.00016785 29.83552856 28.00016785 11.13552856 C16.78016785 11.13552856 5.56016785 11.13552856 -5.99983215 11.13552856 C-5.99983215 0.02611603 -5.99983215 0.02611603 0 0 Z " fill="#9DC92B" transform="translate(277.9998321533203,0.864471435546875)"/>
<path d="M0 0 C26.07 0 52.14 0 79 0 C79 3.3 79 6.6 79 10 C77.30331793 11.69668207 75.18867982 11.11968993 72.92559814 11.12442017 C72.19983582 11.12082489 71.47407349 11.11722961 70.72631836 11.11352539 C69.58493156 11.11374443 69.58493156 11.11374443 68.42048645 11.1139679 C65.89357702 11.11326862 63.36674038 11.10547555 60.83984375 11.09765625 C59.0924941 11.09579212 57.34514393 11.0943682 55.59779358 11.09336853 C50.98968066 11.08954293 46.38159905 11.07971229 41.77349854 11.06866455 C37.07491479 11.05845134 32.37632601 11.0538711 27.67773438 11.04882812 C18.45180913 11.03809005 9.22590716 11.02101313 0 11 C0 7.37 0 3.74 0 0 Z " fill="#189671" transform="translate(340,29)"/>
<path d="M0 0 C26.07 0 52.14 0 79 0 C79 3.3 79 6.6 79 10 C52.93 10 26.86 10 0 10 C0 6.7 0 3.4 0 0 Z " fill="#159C74" transform="translate(340,57)"/>
<path d="M0 0 C0.9075 0.00257812 1.815 0.00515625 2.75 0.0078125 C4.11125 0.00394531 4.11125 0.00394531 5.5 0 C7.75 0.1328125 7.75 0.1328125 8.75 1.1328125 C8.84409479 3.15775481 8.86743122 5.1860112 8.86352539 7.21313477 C8.86344986 8.51440811 8.86337433 9.81568146 8.86329651 11.15638733 C8.85818909 12.58733152 8.85297308 14.01827532 8.84765625 15.44921875 C8.84579203 16.9051051 8.84436815 18.36099207 8.84336853 19.81687927 C8.83954365 23.65560629 8.82971364 27.49429569 8.81866455 31.33300781 C8.80844978 35.24739066 8.80387077 39.16177956 8.79882812 43.07617188 C8.78809133 50.76173791 8.77049479 58.44726515 8.75 66.1328125 C4.79 66.1328125 0.83 66.1328125 -3.25 66.1328125 C-3.27255381 57.67513519 -3.2909167 49.21748109 -3.30181217 40.75978184 C-3.30704031 36.83292592 -3.31413669 32.90609156 -3.32543945 28.97924805 C-3.3362708 25.19266993 -3.34227736 21.4061126 -3.34487724 17.61952019 C-3.34673105 16.17176931 -3.35035081 14.72401962 -3.35573006 13.27627754 C-3.36294367 11.25524115 -3.36340808 9.23418402 -3.36352539 7.21313477 C-3.365746 6.06063736 -3.36796661 4.90813995 -3.37025452 3.72071838 C-3.20615475 0.18925219 -3.20615475 0.18925219 0 0 Z " fill="#1B9571" transform="translate(94.25,0.8671875)"/>
<path d="M0 0 C1.09783813 -0.00315216 2.19567627 -0.00630432 3.32678223 -0.009552 C5.11892151 -0.00651566 5.11892151 -0.00651566 6.94726562 -0.00341797 C8.16426147 -0.00437469 9.38125732 -0.00533142 10.63513184 -0.00631714 C13.21427461 -0.00699919 15.79341909 -0.00514319 18.37255859 -0.00097656 C22.33630198 0.00437131 26.29993204 -0.00092076 30.26367188 -0.00732422 C32.76237004 -0.00666344 35.26106814 -0.00538229 37.75976562 -0.00341797 C38.95452515 -0.0054422 40.14928467 -0.00746643 41.38024902 -0.009552 C42.47808716 -0.00639984 43.57592529 -0.00324768 44.70703125 0 C46.16477966 0.00119339 46.16477966 0.00119339 47.65197754 0.00241089 C49.85351562 0.12939453 49.85351562 0.12939453 50.85351562 1.12939453 C50.85351562 4.42939453 50.85351562 7.72939453 50.85351562 11.12939453 C32.04351562 11.12939453 13.23351562 11.12939453 -6.14648438 11.12939453 C-6.14648438 0.00503184 -6.14648438 0.00503184 0 0 Z " fill="#169B74" transform="translate(368.146484375,0.87060546875)"/>
<path d="M0 0 C25.41 0 50.82 0 77 0 C76.67 2.64 76.34 5.28 76 8 C59.665 8.495 59.665 8.495 43 9 C42.67 10.65 42.34 12.3 42 14 C39.2160817 12.60804085 39.02101003 10.84424221 38 8 C37.50145508 8.16749756 37.00291016 8.33499512 36.48925781 8.50756836 C33.03710837 9.1904818 29.66785999 9.0096198 26.171875 8.87890625 C25.42286926 8.85529526 24.67386353 8.83168427 23.90216064 8.80735779 C21.51790112 8.73099344 19.13398895 8.64685283 16.75 8.5625 C15.13022514 8.50925201 13.51043349 8.4565118 11.890625 8.40429688 C7.92686479 8.27541537 3.96339799 8.13956072 0 8 C0 5.36 0 2.72 0 0 Z " fill="#99D01E" transform="translate(273,3)"/>
<path d="M0 0 C1.14344879 0.0169693 2.28689758 0.0339386 3.46499634 0.05142212 C4.75658661 0.06829071 6.04817688 0.0851593 7.37890625 0.10253906 C8.80034804 0.12642934 10.22178556 0.15057498 11.64321899 0.17495728 C13.09191438 0.19671751 14.54061445 0.21816743 15.98931885 0.23931885 C19.03091525 0.28489102 22.07242521 0.33411704 25.11392212 0.38589478 C29.01348509 0.45200628 32.91311751 0.50932712 36.81285667 0.56392479 C39.80688295 0.60677867 42.80082339 0.65420397 45.79475784 0.703022 C47.23245735 0.72593198 48.6701799 0.74743995 50.1079216 0.76752853 C52.11894519 0.79633515 54.12986817 0.83192512 56.14077759 0.86782837 C57.28581757 0.88638885 58.43085754 0.90494934 59.6105957 0.92407227 C62.43228149 1.08901978 62.43228149 1.08901978 65.43228149 2.08901978 C65.10228149 4.06901978 64.77228149 6.04901978 64.43228149 8.08901978 C65.42228149 7.75901978 66.41228149 7.42901978 67.43228149 7.08901978 C66.77228149 8.40901978 66.11228149 9.72901978 65.43228149 11.08901978 C64.41105698 10.92825455 63.38983246 10.76748932 62.33766174 10.60185242 C58.8276021 10.14093106 55.48170342 9.93430802 51.94619751 9.88369751 C50.70543961 9.86375229 49.4646817 9.84380707 48.18632507 9.82325745 C46.85294718 9.80627995 45.51956804 9.7894009 44.18618774 9.77261353 C42.80613122 9.75201146 41.42608055 9.7310142 40.04603577 9.7096405 C36.43433401 9.65475536 32.82257853 9.60519983 29.21078491 9.55679321 C25.51699101 9.50633127 21.82327401 9.45077482 18.12954712 9.3956604 C10.89719059 9.28849005 3.66476959 9.18695588 -3.56771851 9.08901978 C-3.66537476 2.93667603 -3.66537476 2.93667603 -3.56771851 1.08901978 C-2.56771851 0.08901978 -2.56771851 0.08901978 0 0 Z " fill="#159C74" transform="translate(5.567718505859375,1.910980224609375)"/>
<path d="M0 0 C0.99 0 1.98 0 3 0 C3 1.32 3 2.64 3 4 C3.66 4 4.32 4 5 4 C5 4.66 5 5.32 5 6 C5.66 6 6.32 6 7 6 C7 5.34 7 4.68 7 4 C7.66 4.33 8.32 4.66 9 5 C8.67 21.17 8.34 37.34 8 54 C4.04 53.505 4.04 53.505 0 53 C0 35.51 0 18.02 0 0 Z " fill="#9ACF1A" transform="translate(207,12)"/>
<path d="M0 0 C1.64574566 -0.02688151 3.29161413 -0.04634123 4.9375 -0.0625 C5.85402344 -0.07410156 6.77054688 -0.08570312 7.71484375 -0.09765625 C10 0 10 0 11 1 C11.09409479 3.02494231 11.11743122 5.0531987 11.11352539 7.08032227 C11.11344986 8.38159561 11.11337433 9.68286896 11.11329651 11.02357483 C11.10818909 12.45451902 11.10297308 13.88546282 11.09765625 15.31640625 C11.09579203 16.7722926 11.09436815 18.22817957 11.09336853 19.68406677 C11.08954365 23.52279379 11.07971364 27.36148319 11.06866455 31.20019531 C11.05844978 35.11457816 11.05387077 39.02896706 11.04882812 42.94335938 C11.03809133 50.62892541 11.02049479 58.31445265 11 66 C7.04 66 3.08 66 -1 66 C-1 57.42 -1 48.84 -1 40 C-0.67 40 -0.34 40 0 40 C0.33 41.65 0.66 43.3 1 45 C1.99 44.34 2.98 43.68 4 43 C6.475 42.505 6.475 42.505 9 42 C9 28.8 9 15.6 9 2 C6.36 2 3.72 2 1 2 C0.67 1.34 0.34 0.68 0 0 Z " fill="#1E9572" transform="translate(588,1)"/>
<path d="M0 0 C3.63 0 7.26 0 11 0 C11.33 0.66 11.66 1.32 12 2 C8.7 2.33 5.4 2.66 2 3 C1.67 23.46 1.34 43.92 1 65 C3.97 65 6.94 65 10 65 C10 48.83 10 32.66 10 16 C10.33 16 10.66 16 11 16 C11 32.5 11 49 11 66 C7.37 66 3.74 66 0 66 C0 44.22 0 22.44 0 0 Z " fill="#A0BD46" transform="translate(205,1)"/>
<path d="M0 0 C7.58044988 -0.10152851 15.160724 -0.17151993 22.74169922 -0.21972656 C25.31989088 -0.23982563 27.89803704 -0.26710941 30.47607422 -0.30175781 C34.18468461 -0.35034847 37.89269156 -0.37298658 41.6015625 -0.390625 C42.75177887 -0.41127014 43.90199524 -0.43191528 45.08706665 -0.45318604 C51.30854606 -0.45492538 55.35681507 -0.35849915 60 4 C60.5859375 6.359375 60.5859375 6.359375 60.375 8.75 C60.32085937 9.54921875 60.26671875 10.3484375 60.2109375 11.171875 C60.14132813 11.77515625 60.07171875 12.3784375 60 13 C59.34 13.33 58.68 13.66 58 14 C57.87882812 13.28972656 57.75765625 12.57945313 57.6328125 11.84765625 C57.38144531 10.46900391 57.38144531 10.46900391 57.125 9.0625 C56.96257812 8.14597656 56.80015625 7.22945312 56.6328125 6.28515625 C56.42398438 5.53105469 56.21515625 4.77695312 56 4 C53.49065701 2.7453285 51.71622645 2.84126442 48.90771484 2.79467773 C47.84676605 2.77473251 46.78581726 2.75478729 45.69271851 2.73423767 C44.54373077 2.71752518 43.39474304 2.70081268 42.2109375 2.68359375 C41.03737701 2.66281265 39.86381653 2.64203156 38.6546936 2.62062073 C34.89485696 2.55508017 31.13494878 2.49621924 27.375 2.4375 C24.83072168 2.39431908 22.28645067 2.35070493 19.7421875 2.30664062 C13.49486793 2.19939418 7.24747674 2.0976362 1 2 C0.67 1.34 0.34 0.68 0 0 Z " fill="#168E6A" transform="translate(11,38)"/>
<path d="M0 0 C1.40897804 0.00333092 1.40897804 0.00333092 2.84642029 0.00672913 C3.90744461 0.00680466 4.96846893 0.00688019 6.06164551 0.00695801 C7.21579453 0.01211929 8.36994354 0.01728058 9.55906677 0.02259827 C10.73404221 0.02401321 11.90901764 0.02542816 13.11959839 0.02688599 C16.88981116 0.0325046 20.65996556 0.04506026 24.43016052 0.05775452 C26.97898779 0.06276712 29.52781599 0.06733044 32.0766449 0.07142639 C38.34033685 0.08248007 44.60399452 0.0992363 50.86766052 0.12025452 C50.86766052 0.45025452 50.86766052 0.78025452 50.86766052 1.12025452 C34.03766052 1.12025452 17.20766052 1.12025452 -0.13233948 1.12025452 C-0.79233948 4.09025452 -1.45233948 7.06025452 -2.13233948 10.12025452 C16.01766052 10.12025452 34.16766052 10.12025452 52.86766052 10.12025452 C53.19766052 8.80025452 53.52766052 7.48025452 53.86766052 6.12025452 C53.86766052 7.77025452 53.86766052 9.42025452 53.86766052 11.12025452 C35.05766052 11.12025452 16.24766052 11.12025452 -3.13233948 11.12025452 C-3.13233948 0.17665009 -3.13233948 0.17665009 0 0 Z " fill="#22806D" transform="translate(365.13233947753906,0.8797454833984375)"/>
<path d="M0 0 C0.33 0 0.66 0 1 0 C1 3.3 1 6.6 1 10 C-6.54393565 10.04957095 -14.08777571 10.08580083 -21.63183594 10.10986328 C-24.19630587 10.11989845 -26.76076443 10.13352955 -29.32519531 10.15087891 C-33.01890884 10.17523621 -36.71247059 10.18650824 -40.40625 10.1953125 C-41.5461438 10.20563507 -42.6860376 10.21595764 -43.86047363 10.22659302 C-49.94042592 10.22744303 -55.17980474 9.78940046 -61 8 C-60.67 7.34 -60.34 6.68 -60 6 C-58.91501221 6.15919922 -57.83002441 6.31839844 -56.7121582 6.48242188 C-51.34942722 7.14979571 -46.00377064 7.20948099 -40.60546875 7.28125 C-39.53629715 7.29965942 -38.46712555 7.31806885 -37.36555481 7.33703613 C-32.81777406 7.41531827 -28.26986002 7.48368263 -23.72192383 7.55224609 C-20.39136322 7.60391209 -17.06093111 7.66114704 -13.73046875 7.71875 C-12.69923386 7.73232544 -11.66799896 7.74590088 -10.60551453 7.7598877 C-9.65054581 7.77660522 -8.69557709 7.79332275 -7.71166992 7.81054688 C-6.45213753 7.82933899 -6.45213753 7.82933899 -5.16716003 7.84851074 C-3 8 -3 8 0 9 C0 6.03 0 3.06 0 0 Z " fill="#298A6F" transform="translate(508,57)"/>
<path d="M0 0 C0.99 0.495 0.99 0.495 2 1 C2 3.31 2 5.62 2 8 C26.75 8.33 51.5 8.66 77 9 C76.505 7.02 76.505 7.02 76 5 C76.4375 2.25 76.4375 2.25 77 0 C77.66 0 78.32 0 79 0 C79 3.3 79 6.6 79 10 C52.93 10 26.86 10 0 10 C0 6.7 0 3.4 0 0 Z " fill="#32846B" transform="translate(340,57)"/>
<path d="M0 0 C1.64574566 -0.02688151 3.29161413 -0.04634123 4.9375 -0.0625 C5.85402344 -0.07410156 6.77054688 -0.08570312 7.71484375 -0.09765625 C10 0 10 0 11 1 C11.08868299 3.95705321 11.11520296 6.89065056 11.09765625 9.84765625 C11.0962413 10.7340831 11.09482635 11.62050995 11.09336853 12.53379822 C11.08775215 15.37673254 11.07519691 18.21958931 11.0625 21.0625 C11.05748711 22.98502491 11.05292384 24.90755104 11.04882812 26.83007812 C11.03777741 31.55341549 11.02050183 36.27669458 11 41 C10.34 41 9.68 41 9 41 C9 28.13 9 15.26 9 2 C6.36 2 3.72 2 1 2 C0.67 1.34 0.34 0.68 0 0 Z " fill="#2A886C" transform="translate(588,1)"/>
<path d="M0 0 C0 0.66 0 1.32 0 2 C-1.7325 2.3403125 -1.7325 2.3403125 -3.5 2.6875 C-8.28685883 3.85857082 -11.99040166 6.20607775 -16 9 C-15.01 9.66 -14.02 10.32 -13 11 C-13.99 11 -14.98 11 -16 11 C-15.608125 11.9075 -15.21625 12.815 -14.8125 13.75 C-14 17 -14 17 -15.375 19.375 C-15.91125 19.91125 -16.4475 20.4475 -17 21 C-17.66 19.68 -18.32 18.36 -19 17 C-21.34058637 19.12780579 -22.70700306 21.11562221 -24 24 C-23.60507729 17.8128776 -21.81101397 12.94353228 -18 8 C-12.73344668 3.51579699 -7.02277014 0 0 0 Z " fill="#1E8F6D" transform="translate(455,3)"/>
<path d="M0 0 C2.5623434 4.51253593 2.38430543 8.54004933 2.375 13.625 C2.37338867 14.52420166 2.37177734 15.42340332 2.37011719 16.34985352 C2.20719095 25.15985036 0.41928695 32.58071305 -6 39 C-8.25 40.3125 -8.25 40.3125 -10 41 C-9.505 38.03 -9.505 38.03 -9 35 C-7.68 35.33 -6.36 35.66 -5 36 C-4.566875 34.6078125 -4.566875 34.6078125 -4.125 33.1875 C-3 30 -3 30 -1 27 C-0.7398099 24.20437008 -0.7398099 24.20437008 -0.83984375 21.0546875 C-0.85080078 19.89582031 -0.86175781 18.73695312 -0.87304688 17.54296875 C-0.89431641 16.33253906 -0.91558594 15.12210938 -0.9375 13.875 C-0.97176257 11.47662026 -1.00194168 9.07817745 -1.02734375 6.6796875 C-1.05429321 5.08229736 -1.05429321 5.08229736 -1.08178711 3.45263672 C-1 1 -1 1 0 0 Z " fill="#238A6B" transform="translate(191,21)"/>
<path d="M0 0 C0.33 0 0.66 0 1 0 C1.33 20.46 1.66 40.92 2 62 C3.32 62.66 4.64 63.32 6 64 C3.69 64 1.38 64 -1 64 C-0.67 42.88 -0.34 21.76 0 0 Z " fill="#209372" transform="translate(92,3)"/>
<path d="M0 0 C1.33897583 0.95043374 2.67105427 1.91059147 4 2.875 C5.11375 3.67550781 5.11375 3.67550781 6.25 4.4921875 C6.8275 4.98976563 7.405 5.48734375 8 6 C8 6.66 8 7.32 8 8 C8.598125 7.67 9.19625 7.34 9.8125 7 C12 6 12 6 15 6 C15 6.99 15 7.98 15 9 C15.66 9 16.32 9 17 9 C17 9.66 17 10.32 17 11 C18.32 11.33 19.64 11.66 21 12 C21 12.33 21 12.66 21 13 C13.03639853 12.57337849 7.76422463 9.78445408 2 4.3125 C0 2 0 2 0 0 Z " fill="#1B8F6D" transform="translate(118,53)"/>
<path d="M0 0 C0.33 0 0.66 0 1 0 C1.68895794 13.97053607 1.68895794 13.97053607 -0.875 17.75 C-2.23055023 19.18528848 -3.6040112 20.6040112 -5 22 C-6.32 22 -7.64 22 -9 22 C-8.505 20.515 -8.505 20.515 -8 19 C-7.01 19 -6.02 19 -5 19 C-4.67 17.68 -4.34 16.36 -4 15 C-3.34 15.33 -2.68 15.66 -2 16 C-1.93941406 14.92878906 -1.87882812 13.85757813 -1.81640625 12.75390625 C-1.73201463 11.35675609 -1.64736594 9.95962143 -1.5625 8.5625 C-1.50352539 7.50192383 -1.50352539 7.50192383 -1.44335938 6.41992188 C-1.11328125 1.11328125 -1.11328125 1.11328125 0 0 Z " fill="#178E6B" transform="translate(79,42)"/>
<path d="M0 0 C0.99 0.66 1.98 1.32 3 2 C4.32860925 2.35169068 5.66158328 2.68770276 7 3 C8 4 8 4 8.0625 6.5625 C8.041875 7.366875 8.02125 8.17125 8 9 C7.34 8.67 6.68 8.34 6 8 C6 7.01 6 6.02 6 5 C3.10482473 5.94261521 0.25097219 6.89593836 -2.5625 8.0625 C-5.03316042 9.01275401 -7.39550995 9.55351599 -10 10 C-9.2575 9.4225 -8.515 8.845 -7.75 8.25 C-3.24910177 4.65227823 -3.24910177 4.65227823 0 0 Z " fill="#1D9470" transform="translate(180,45)"/>
<path d="M0 0 C0 0.33 0 0.66 0 1 C-0.79172607 1.02505615 -1.58345215 1.0501123 -2.39916992 1.07592773 C-5.99543363 1.19215729 -9.5914528 1.31476176 -13.1875 1.4375 C-15.05631836 1.49647461 -15.05631836 1.49647461 -16.96289062 1.55664062 C-18.16494141 1.59853516 -19.36699219 1.64042969 -20.60546875 1.68359375 C-21.71043701 1.72025146 -22.81540527 1.75690918 -23.95385742 1.79467773 C-26.72592972 1.98152656 -29.29542873 2.38162366 -32 3 C-32.33 2.34 -32.66 1.68 -33 1 C-21.62554523 -0.83564688 -11.41078155 -1.47235891 0 0 Z " fill="#248A6F" transform="translate(168,2)"/>
<path d="M0 0 C0.33 0 0.66 0 1 0 C1.33 2.97 1.66 5.94 2 9 C1.01 9 0.02 9 -1 9 C-1 14.28 -1 19.56 -1 25 C-1.33 25 -1.66 25 -2 25 C-2.05437005 22.14557247 -2.09384974 19.29219924 -2.125 16.4375 C-2.14175781 15.63763672 -2.15851563 14.83777344 -2.17578125 14.01367188 C-2.21723982 8.93499665 -1.64056075 4.81188094 0 0 Z " fill="#218A6D" transform="translate(116,19)"/>
<path d="M0 0 C3.79379058 1.49041773 5.68343758 3.69062512 8 7 C8 7.66 8 8.32 8 9 C7.34 9 6.68 9 6 9 C5.731875 8.360625 5.46375 7.72125 5.1875 7.0625 C4.11332248 4.66868314 4.11332248 4.66868314 1 4 C0.67 4.99 0.34 5.98 0 7 C-0.66 6.34 -1.32 5.68 -2 5 C-1.34 3.35 -0.68 1.7 0 0 Z " fill="#18906D" transform="translate(71,4)"/>
<path d="M0 0 C0.2475 0.61875 0.495 1.2375 0.75 1.875 C2.20628639 4.35068687 3.37812506 4.95125002 6 6 C6 6.99 6 7.98 6 9 C1.04303419 7.76075855 -1.11658466 6.21422242 -4 2 C-2.68 2.33 -1.36 2.66 0 3 C0 2.01 0 1.02 0 0 Z " fill="#1D8D6D" transform="translate(441,55)"/>
<path d="M0 0 C2.475 0.495 2.475 0.495 5 1 C6.1577506 4.47325181 6.06866652 7.36067448 6 11 C5.01 11.495 5.01 11.495 4 12 C3.81824219 10.95199219 3.81824219 10.95199219 3.6328125 9.8828125 C3.46523437 8.97273438 3.29765625 8.06265625 3.125 7.125 C2.96257812 6.22007813 2.80015625 5.31515625 2.6328125 4.3828125 C2.16955297 1.83494012 2.16955297 1.83494012 0 0 Z " fill="#1E8D6C" transform="translate(65,40)"/>
<path d="M0 0 C0.66 0.33 1.32 0.66 2 1 C2 5.62 2 10.24 2 15 C0.21210334 11.42420668 -0.34287914 9.63722654 -0.6875 5.8125 C-0.77386719 4.93207031 -0.86023437 4.05164062 -0.94921875 3.14453125 C-0.96597656 2.43683594 -0.98273437 1.72914062 -1 1 C-0.67 0.67 -0.34 0.34 0 0 Z " fill="#288770" transform="translate(11,40)"/>
<path d="M0 0 C0.33 0.66 0.66 1.32 1 2 C-0.1446875 2.804375 -0.1446875 2.804375 -1.3125 3.625 C-4.22864474 6.20205814 -5.4705622 8.45814404 -7 12 C-7.66 12 -8.32 12 -9 12 C-7.50948318 7.39294801 -5.21457741 4.53603516 -2 1 C-1.34 0.67 -0.68 0.34 0 0 Z " fill="#26866A" transform="translate(126,7)"/>
<path d="M0 0 C6.35714286 0.48901099 6.35714286 0.48901099 9.4375 2.9375 C11 5 11 5 11 7 C8 6 8 6 6.625 4.5625 C4.61423786 2.62907486 2.60947795 1.9168436 0 1 C0 0.67 0 0.34 0 0 Z " fill="#208B6B" transform="translate(68,35)"/>
<path d="M0 0 C0.66 0 1.32 0 2 0 C2 2.97 2 5.94 2 9 C1.34 9 0.68 9 0 9 C-1.10844919 5.67465243 -0.84454356 3.37817425 0 0 Z " fill="#1E8B6B" transform="translate(417,57)"/>
<path d="M0 0 C1.98 1.65 3.96 3.3 6 5 C5.01 5.495 5.01 5.495 4 6 C1.375 4.5625 1.375 4.5625 -1 3 C-0.67 2.01 -0.34 1.02 0 0 Z " fill="#9DC22F" transform="translate(249,31)"/>
</svg>
