<?xml version="1.0" encoding="UTF-8"?>
<svg version="1.1" xmlns="http://www.w3.org/2000/svg" width="477" height="106">
<path d="M0 0 C0.495 0.99 0.495 0.99 1 2 C0.01 1.835 -0.98 1.67 -2 1.5 C-7.9470373 0.66934094 -13.465447 0.2327235 -19 3 C-19 4.65 -19 6.3 -19 8 C-16.08416032 7.58345147 -14.23492964 7.16780689 -11.8125 5.4375 C-5.68140348 2.30382845 0.75916087 3.70156694 7.125 5.625 C16.79944929 9.15989493 24.17267954 15.61724702 29.1875 24.625 C34.77123922 36.65690669 34.95136959 48.3776247 32 61 C31.34 61 30.68 61 30 61 C30.165 60.01 30.33 59.02 30.5 58 C31.33065906 52.0529627 31.7672765 46.534553 29 41 C27.35 41 25.7 41 24 41 C24.44326784 44.01422128 25.04362999 46.07678877 26.5625 48.75 C29.80224586 56.07464282 27.9044043 62.83919761 25.26171875 70.13671875 C20.91091754 80.01020881 12.87249064 86.94028422 3 91 C-7.30967321 94.9165239 -18.4138689 94.66303922 -29 92 C-29 91.34 -29 90.68 -29 90 C-28.01 90.165 -27.02 90.33 -26 90.5 C-20.0529627 91.33065906 -14.534553 91.7672765 -9 89 C-9 87.35 -9 85.7 -9 84 C-12.01422128 84.44326784 -14.07678877 85.04362999 -16.75 86.5625 C-24.07464282 89.80224586 -30.83919761 87.9044043 -38.13671875 85.26171875 C-48.08974315 80.87587034 -54.81361027 72.86936322 -59 63 C-62.8673896 53.02620577 -63.68351656 41.12967054 -60 31 C-59.34 31 -58.68 31 -58 31 C-58.165 31.99 -58.33 32.98 -58.5 34 C-59.33065906 39.9470373 -59.7672765 45.465447 -57 51 C-55.35 51 -53.7 51 -52 51 C-52.44326784 47.98577872 -53.04362999 45.92321123 -54.5625 43.25 C-57.80224586 35.92535718 -55.9044043 29.16080239 -53.26171875 21.86328125 C-48.87587034 11.91025685 -40.86936322 5.18638973 -31 1 C-21.37597872 -2.73176335 -9.84405691 -3.55968129 0 0 Z M-30 22 C-32.48573994 26.41279566 -34 29.89023014 -34 35 C-34.99 34.34 -35.98 33.68 -37 33 C-37.40843923 30.28796348 -37.13336867 27.7562858 -37 25 C-38.98 25.99 -38.98 25.99 -41 27 C-41.45284144 32.06967866 -41.45284144 32.06967866 -39.1875 36.4375 C-37.04117104 38.2906191 -37.04117104 38.2906191 -34 38 C-33.34 39.65 -32.68 41.3 -32 43 C-27.38492226 44.04214691 -27.38492226 44.04214691 -23 43 C-24 46 -24 46 -26.2578125 47.32421875 C-27.20398437 47.77410156 -28.15015625 48.22398438 -29.125 48.6875 C-34.62774689 51.58217415 -38.69648093 54.6730755 -42 60 C-43.26532224 64.14744512 -43.48599531 65.93543885 -41.6875 69.875 C-40.17274837 72.0895931 -40.17274837 72.0895931 -38 73 C-33.88501683 73.39567146 -31.52545911 73.26788111 -27.8125 71.375 C-22.18785408 66.625299 -20.63518717 62.18612084 -19.9375 55.0625 C-19.31126139 50.49147998 -18.73633816 47.76706634 -15.47265625 44.3671875 C-12.67198967 42.54914638 -10.16559342 41.06314357 -7 40 C-6.01 40.33 -5.02 40.66 -4 41 C-4.48210938 41.38671875 -4.96421875 41.7734375 -5.4609375 42.171875 C-6.09257813 42.69265625 -6.72421875 43.2134375 -7.375 43.75 C-8.00148437 44.26046875 -8.62796875 44.7709375 -9.2734375 45.296875 C-12.83553212 48.81061539 -13.31244307 51.95802525 -13.375 56.875 C-13.27363418 62.08266907 -12.69948398 65.10580633 -9 69 C-4.84484631 72.67199629 -1.58394168 73.65056281 3.8203125 73.38671875 C8.33091766 72.58645009 11.02202415 70.17357102 13.875 66.75 C15.38386024 63.06167496 15.59691821 59.9317013 15 56 C13.36312815 52.41447119 12.31027417 51.20684945 9 49 C5.41828629 48.67438966 2.90225448 48.5726163 -0.375 50.125 C-2.61725434 52.71221654 -2.86164132 54.61021227 -3 58 C-2.45782232 60.33664149 -2.45782232 60.33664149 -1 62 C1.05000871 62.80528889 1.05000871 62.80528889 3 63 C3.495 62.01 3.495 62.01 4 61 C3.34 60.01 2.68 59.02 2 58 C2.1875 55.875 2.1875 55.875 3 54 C3.99 53.67 4.98 53.34 6 53 C8.7479865 55.23273903 9.89632752 56.39092417 10.5 59.9375 C9.86162709 63.84753406 9.02791041 65.42627616 6 68 C2.73679844 68.5179685 1.06924573 68.77340121 -2 68 C-5.21954645 65.46546343 -6.70432435 63.88702695 -8 60 C-8.44938828 54.04560524 -7.46423227 50.04748251 -3.6796875 45.3671875 C-1.54684824 43.63115554 -0.15790189 43.54530523 2.5625 43.375 C5.90775258 43.17127819 5.90775258 43.17127819 9 42 C8.505 40.515 8.505 40.515 8 39 C5.36 38.67 2.72 38.34 0 38 C0 37.01 0 36.02 0 35 C1.47809054 33.78468111 2.95873576 32.57210543 4.4609375 31.38671875 C6.85865689 29.22633707 7.93261462 27.013794 9 24 C8.78143957 20.66342857 8.78143957 20.66342857 7 18 C4.16926564 17.49830585 4.16926564 17.49830585 1 18 C-2.22387607 20.63771679 -4.43628197 23.14808907 -6 27 C-5.99468357 28.43809391 -5.95152219 29.8764336 -5.875 31.3125 C-6.05078125 33.671875 -6.05078125 33.671875 -7 36 C-10.72346953 38.91911488 -14.72608621 40.99519278 -19 43 C-18.72285156 42.48050781 -18.44570313 41.96101563 -18.16015625 41.42578125 C-16.19266733 37.63783995 -14.53662611 34.29300887 -14 30 C-15.93342093 30.19811715 -15.93342093 30.19811715 -18 31 C-19.34205706 32.81676496 -19.34205706 32.81676496 -20.375 35 C-22.59835398 38.87874837 -22.59835398 38.87874837 -26.3125 40 C-27.199375 40 -28.08625 40 -29 40 C-29.33 39.34 -29.66 38.68 -30 38 C-29.29875 37.814375 -28.5975 37.62875 -27.875 37.4375 C-22.59065116 34.79532558 -19.69812137 30.71621504 -17.5 25.3125 C-16.98835194 21.92283159 -17.03134386 20.73424464 -19 18 C-24.14749522 17.52116324 -26.46256981 18.18329901 -30 22 Z " fill="#600BC6" transform="translate(67,7)"/>
<path d="M0 0 C10.18064389 7.01365382 18.2850401 18.78857842 21.34765625 30.87890625 C23.74374956 48.83797454 20.93667144 63.61871534 9.97265625 78.26953125 C1.98247623 87.94271442 -9.75163169 94.9895093 -22.25 96.89453125 C-39.48937318 97.92957236 -53.51133966 94.9792336 -67.49609375 84.15625 C-77.09566745 75.41745679 -83.83807494 62.16683404 -84.55859375 49.25390625 C-85.11347515 33.29086032 -81.62253472 20.23400241 -71.37109375 7.57421875 C-52.21569602 -12.78080995 -22.95130598 -14.19514367 0 0 Z M-69.91796875 10.98046875 C-79.53185708 22.99380325 -82.68837869 36.76028594 -81.25 51.89453125 C-78.73080999 65.56151417 -71.16864746 77.54468516 -59.8359375 85.61328125 C-48.04437756 93.06058227 -35.08580729 95.68173583 -21.2421875 93.3984375 C-6.96423631 89.79844126 4.99674108 81.57281628 12.75 68.89453125 C19.36181656 56.45906169 20.98465513 42.60873367 17.125 29.01953125 C12.43923615 15.82455042 4.28853544 5.21113104 -8.375 -1.10546875 C-30.07116895 -11.26209902 -53.30059044 -6.34347525 -69.91796875 10.98046875 Z " fill="#480FA0" transform="translate(84.25,9.10546875)"/>
<path d="M0 0 C1.32 0 2.64 0 4 0 C4 6.27 4 12.54 4 19 C10.27 19 16.54 19 23 19 C22.96047851 13.4953118 22.96047851 13.4953118 22.90991211 7.99072266 C22.88888889 2.22222222 22.88888889 2.22222222 24 0 C26.475 0.495 26.475 0.495 29 1 C29 14.86 29 28.72 29 43 C26.525 43.495 26.525 43.495 24 44 C22.8517315 41.703463 22.88438825 40.41686833 22.90234375 37.8671875 C22.90484131 37.14128418 22.90733887 36.41538086 22.90991211 35.66748047 C22.91901611 34.74596191 22.92812012 33.82444336 22.9375 32.875 C22.958125 29.94625 22.97875 27.0175 23 24 C16.73 24 10.46 24 4 24 C4 30.27 4 36.54 4 43 C2.02 43.495 2.02 43.495 0 44 C-1.94863925 42.05136075 -1.1291874 39.1019128 -1.13894653 36.50878906 C-1.1369223 35.59838867 -1.13489807 34.68798828 -1.1328125 33.75 C-1.13376923 32.82155273 -1.13472595 31.89310547 -1.13571167 30.93652344 C-1.13639355 28.96940035 -1.13453872 27.00227504 -1.13037109 25.03515625 C-1.12502295 22.01296974 -1.13031582 18.99093185 -1.13671875 15.96875 C-1.13605797 14.06249967 -1.13477681 12.15624943 -1.1328125 10.25 C-1.13483673 9.33959961 -1.13686096 8.42919922 -1.13894653 7.49121094 C-1.11494969 1.11494969 -1.11494969 1.11494969 0 0 Z " fill="#5A07CA" transform="translate(216,31)"/>
<path d="M0 0 C1.875 2.6875 1.875 2.6875 1.6875 5.5 C1.419375 6.221875 1.15125 6.94375 0.875 7.6875 C-0.115 7.6875 -1.105 7.6875 -2.125 7.6875 C-3.0221875 6.4809375 -3.0221875 6.4809375 -3.9375 5.25 C-5.92371278 2.46736561 -5.92371278 2.46736561 -9.0625 1.75 C-12.51755506 1.67948867 -14.21677126 1.80108136 -17.125 3.6875 C-19.77369616 8.7423611 -20.59869779 12.96302843 -20.5 18.6875 C-20.51160156 19.36039063 -20.52320313 20.03328125 -20.53515625 20.7265625 C-20.50574388 25.80509852 -19.43718998 29.2661416 -17.125 33.6875 C-13.91492389 35.29253806 -10.60732692 35.15733776 -7.125 34.6875 C-4.28790586 32.97031144 -3.39072304 31.57477059 -2.4453125 28.41796875 C-1.93094739 26.18083282 -1.49288579 23.95290194 -1.125 21.6875 C-2.17300781 21.70490234 -2.17300781 21.70490234 -3.2421875 21.72265625 C-4.15226562 21.73167969 -5.06234375 21.74070312 -6 21.75 C-7.35738281 21.76740234 -7.35738281 21.76740234 -8.7421875 21.78515625 C-11.125 21.6875 -11.125 21.6875 -13.125 20.6875 C-12.795 19.3675 -12.465 18.0475 -12.125 16.6875 C-9.64576199 16.66064905 -7.1668116 16.64073453 -4.6875 16.625 C-3.98044922 16.61662109 -3.27339844 16.60824219 -2.54492188 16.59960938 C-0.73806441 16.59096412 1.06887603 16.63529989 2.875 16.6875 C4.64709714 18.45959714 4.13086963 20.91018018 4.1875 23.3125 C4.12550928 29.11207639 3.47481389 32.14036667 -0.125 36.6875 C-3.6611679 39.97108448 -6.40676794 40.96788259 -11.125 41.1875 C-15.80940761 40.99026179 -18.54361249 39.83213293 -22.125 36.6875 C-26.88543349 31.270455 -26.33957212 25.72586638 -26.375 18.875 C-26.395625 17.88951172 -26.41625 16.90402344 -26.4375 15.88867188 C-26.47146835 9.56631221 -26.00659787 5.00212487 -21.6953125 0.04296875 C-14.65728863 -5.6445154 -7.2451292 -5.36139561 0 0 Z " fill="#500EB0" transform="translate(162.125,34.3125)"/>
<path d="M0 0 C1.00023193 0.00523682 2.00046387 0.01047363 3.03100586 0.01586914 C4.1105957 0.0190918 5.19018555 0.02231445 6.30249023 0.02563477 C8.00695312 0.03820312 8.00695312 0.03820312 9.74584961 0.05102539 C11.45611328 0.05779297 11.45611328 0.05779297 13.20092773 0.06469727 C16.02845312 0.07652792 18.85587601 0.09301129 21.68334961 0.11352539 C22.24584961 2.05102539 22.24584961 2.05102539 22.68334961 4.11352539 C21.68334961 5.11352539 21.68334961 5.11352539 19.73388672 5.22705078 C18.90123291 5.22181396 18.0685791 5.21657715 17.21069336 5.21118164 C16.31157227 5.20795898 15.41245117 5.20473633 14.48608398 5.20141602 C13.54055664 5.19303711 12.5950293 5.1846582 11.62084961 5.17602539 C10.67145508 5.17151367 9.72206055 5.16700195 8.74389648 5.16235352 C6.3903543 5.15052667 4.03684429 5.1325906 1.68334961 5.11352539 C1.68334961 9.73352539 1.68334961 14.35352539 1.68334961 19.11352539 C7.62334961 19.11352539 13.56334961 19.11352539 19.68334961 19.11352539 C20.01334961 20.43352539 20.34334961 21.75352539 20.68334961 23.11352539 C19.68334961 24.11352539 19.68334961 24.11352539 17.91748047 24.22705078 C17.16861572 24.22181396 16.41975098 24.21657715 15.64819336 24.21118164 C14.83930664 24.20795898 14.03041992 24.20473633 13.19702148 24.20141602 C12.34688477 24.19303711 11.49674805 24.1846582 10.62084961 24.17602539 C9.7668457 24.17151367 8.9128418 24.16700195 8.03295898 24.16235352 C5.91639297 24.15052912 3.79986276 24.13259308 1.68334961 24.11352539 C1.68334961 29.06352539 1.68334961 34.01352539 1.68334961 39.11352539 C8.28334961 39.11352539 14.88334961 39.11352539 21.68334961 39.11352539 C22.01334961 40.10352539 22.34334961 41.09352539 22.68334961 42.11352539 C22.35334961 42.77352539 22.02334961 43.43352539 21.68334961 44.11352539 C17.70419802 44.14239523 13.72507308 44.16027945 9.74584961 44.17602539 C8.04138672 44.18859375 8.04138672 44.18859375 6.30249023 44.20141602 C5.22290039 44.20463867 4.14331055 44.20786133 3.03100586 44.21118164 C1.53065796 44.21903687 1.53065796 44.21903687 0 44.22705078 C-2.31665039 44.11352539 -2.31665039 44.11352539 -3.31665039 43.11352539 C-3.4178196 40.02271074 -3.45633597 36.95469984 -3.44946289 33.86352539 C-3.45041962 32.93507812 -3.45137634 32.00663086 -3.45236206 31.05004883 C-3.45304394 29.08292574 -3.45118911 27.11580043 -3.44702148 25.14868164 C-3.44167334 22.12649513 -3.44696621 19.10445724 -3.45336914 16.08227539 C-3.45270836 14.17602506 -3.4514272 12.26977482 -3.44946289 10.36352539 C-3.45148712 9.453125 -3.45351135 8.54272461 -3.45559692 7.60473633 C-3.42760889 0.16796692 -3.42760889 0.16796692 0 0 Z " fill="#5B09C8" transform="translate(176.316650390625,30.886474609375)"/>
<path d="M0 0 C1.32 0 2.64 0 4 0 C5.26237731 2.52475462 5.09856404 4.31200466 5.0625 7.125 C5.05347656 8.03507812 5.04445313 8.94515625 5.03515625 9.8828125 C5.02355469 10.58148438 5.01195312 11.28015625 5 12 C5.59039062 11.67773438 6.18078125 11.35546875 6.7890625 11.0234375 C10.04203204 9.51764595 12.45292945 9.63306167 16 10 C19.99987149 12.11313965 22.39314544 13.76400053 24 18 C24.22705078 20.74902344 24.22705078 20.74902344 24.1953125 23.859375 C24.18886719 24.97441406 24.18242187 26.08945312 24.17578125 27.23828125 C24.15902344 28.39714844 24.14226562 29.55601563 24.125 30.75 C24.11597656 31.92433594 24.10695313 33.09867188 24.09765625 34.30859375 C24.07410063 37.20593536 24.04120652 40.10286441 24 43 C22.0625 43.5625 22.0625 43.5625 20 44 C18.2990219 42.2990219 18.83070338 40.08397125 18.7890625 37.7578125 C18.76070313 36.69175781 18.73234375 35.62570313 18.703125 34.52734375 C18.65122479 32.26708939 18.6068995 30.00664784 18.5703125 27.74609375 C18.539375 26.67746094 18.5084375 25.60882813 18.4765625 24.5078125 C18.45674316 23.52441895 18.43692383 22.54102539 18.41650391 21.52783203 C18.18783589 18.97799365 18.18783589 18.97799365 16.69287109 17.17529297 C13.89012194 15.22945587 11.28906873 15.70099375 8 16 C5.40668436 18.59331564 5.71319999 19.76419859 5.62109375 23.375 C5.58693359 24.44234375 5.55277344 25.5096875 5.51757812 26.609375 C5.49115234 27.72828125 5.46472656 28.8471875 5.4375 30 C5.37770913 32.20844558 5.31410015 34.41679214 5.24609375 36.625 C5.22216553 37.60726562 5.1982373 38.58953125 5.17358398 39.6015625 C5 42 5 42 4 44 C2.68 44 1.36 44 0 44 C-1.68335939 40.63328122 -1.14154289 36.827034 -1.1328125 33.125 C-1.13376923 32.24473145 -1.13472595 31.36446289 -1.13571167 30.45751953 C-1.13639276 28.59472584 -1.13454343 26.73192977 -1.13037109 24.86914062 C-1.12502184 22.01166472 -1.13031849 19.154346 -1.13671875 16.296875 C-1.13605796 14.48958299 -1.13477677 12.68229107 -1.1328125 10.875 C-1.13483673 10.01664551 -1.13686096 9.15829102 -1.13894653 8.27392578 C-1.11495872 2.22991745 -1.11495872 2.22991745 0 0 Z " fill="#4B0FA4" transform="translate(344,31)"/>
<path d="M0 0 C3.125 1.5625 3.125 1.5625 5 4 C6.07902511 7.70914881 6.47002583 9.89691354 4.94140625 13.484375 C2.45236579 16.70961052 -0.44705448 18.14637912 -4.0625 19.8125 C-4.69994141 20.12380859 -5.33738281 20.43511719 -5.99414062 20.75585938 C-10.67477679 23 -10.67477679 23 -13 23 C-12.34 24.65 -11.68 26.3 -11 28 C-7.73723433 28.86013727 -7.73723433 28.86013727 -4 29 C-1.32601524 27.06102121 -1.32601524 27.06102121 1 25 C3.3125 25.25 3.3125 25.25 5 26 C4.69895795 28.80972581 3.95275592 30.05669289 2.125 32.25 C-2.50040275 34.84022554 -6.81663052 34.92615761 -12 34 C-14.89683868 31.7984026 -16.39297231 30.21405538 -18 27 C-18.26385085 23.90215121 -18.23151467 20.79534677 -18.25 17.6875 C-18.270625 16.83220703 -18.29125 15.97691406 -18.3125 15.09570312 C-18.34255673 10.24529833 -18.2344438 6.88278952 -15 3 C-10.64278387 -1.20982615 -5.72435219 -0.74628592 0 0 Z M-12 7 C-13.20272819 9.40545638 -13.10071472 10.94996953 -13.0625 13.625 C-13.05347656 14.44226562 -13.04445313 15.25953125 -13.03515625 16.1015625 C-13.02355469 16.72804688 -13.01195312 17.35453125 -13 18 C-6.96719209 16.3833652 -3.049191 14.83290538 1 10 C0.45291273 7.46255685 0.45291273 7.46255685 -1 5 C-5.6631693 3.34198425 -8.13623957 4.01938481 -12 7 Z " fill="#510CAF" transform="translate(471,41)"/>
<path d="M0 0 C2.53463412 1.99535026 4.56794818 4.09053726 6 7 C5.67 7.99 5.34 8.98 5 10 C2.16642652 9.59520379 1.14969877 9.16518485 -0.8125 7 C-3.82501155 4.24570372 -5.96620684 4.0707683 -10 4 C-12.89878671 5.22393217 -14.47027509 6.13455513 -16.11791992 8.82641602 C-17.70185598 12.72948347 -17.32742891 16.77830621 -17.3125 20.9375 C-17.32861328 21.83146484 -17.34472656 22.72542969 -17.36132812 23.64648438 C-17.36496216 28.54152444 -17.30031139 32.09255586 -14 36 C-10.52816614 37.77449286 -8.70973051 38.1419461 -4.875 37.375 C-1.89124664 35.94798752 -0.27354523 34.35194335 2 32 C2.99 32 3.98 32 5 32 C5.33 32.99 5.66 33.98 6 35 C4.85546875 36.7890625 4.85546875 36.7890625 3.1875 38.625 C2.64480469 39.23601562 2.10210937 39.84703125 1.54296875 40.4765625 C-1.99633601 43.97106594 -6.21738027 43.44632425 -10.94140625 43.41796875 C-15.57470264 42.78481075 -18.2009727 40.65382007 -21 37 C-23.99938899 32.01893337 -23.32921804 26.70985412 -23.3125 21.0625 C-23.32861328 19.97775391 -23.34472656 18.89300781 -23.36132812 17.77539062 C-23.36197266 16.72673828 -23.36261719 15.67808594 -23.36328125 14.59765625 C-23.36626221 13.64383057 -23.36924316 12.69000488 -23.37231445 11.70727539 C-22.76090465 7.26142408 -20.49494529 4.05422586 -17.0625 1.25 C-11.44904858 -2.87416839 -6.40833174 -2.40438192 0 0 Z " fill="#4C11A4" transform="translate(397,32)"/>
<path d="M0 0 C3.00197464 1.80118478 4.45166366 2.90332732 6 6 C6.26640863 9.43142384 6.23156403 12.87188717 6.25 16.3125 C6.270625 17.26318359 6.29125 18.21386719 6.3125 19.19335938 C6.36288176 28.20539693 6.36288176 28.20539693 3 32 C-1.42440033 35.07743702 -6.84780467 34.72405112 -12 34 C-15.19255488 31.99682831 -16.57669832 30.76434984 -17.46484375 27.0625 C-17.75106467 23.376533 -17.28677597 21.44040596 -15.25 18.3125 C-10.53996459 14.96112865 -5.39173637 13.02082623 0 11 C-0.33 9.35 -0.66 7.7 -1 6 C-5.44694861 4.8500977 -5.44694861 4.8500977 -9.625 6.4375 C-10.40875 6.953125 -11.1925 7.46875 -12 8 C-13.32 8 -14.64 8 -16 8 C-15.68122276 5.0513105 -15.46887329 3.45063337 -13.29296875 1.359375 C-9.15765362 -1.09222579 -4.65081884 -0.64077948 0 0 Z M-4.9375 18.375 C-6.28134766 19.03628906 -6.28134766 19.03628906 -7.65234375 19.7109375 C-10.09757365 20.91125023 -10.09757365 20.91125023 -12 23 C-11.67801034 26.09926819 -11.67801034 26.09926819 -11 29 C-6.2750297 29.99133364 -6.2750297 29.99133364 -1.625 29.1875 C0.15088244 28.08014273 0.15088244 28.08014273 1 26 C1.06996014 24.29297265 1.08440154 22.58331997 1.0625 20.875 C1.05347656 19.96492188 1.04445313 19.05484375 1.03515625 18.1171875 C1.02355469 17.41851562 1.01195312 16.71984375 1 16 C-1.074072 16 -3.13202584 17.4787388 -4.9375 18.375 Z " fill="#4F11A5" transform="translate(423,41)"/>
<path d="M0 0 C3.00197464 1.80118478 4.45166366 2.90332732 6 6 C6.32011789 9.59707151 6.32432332 13.20293799 6.375 16.8125 C6.41238281 17.81087891 6.44976562 18.80925781 6.48828125 19.83789062 C6.57711028 27.24524502 6.57711028 27.24524502 3.6015625 31.13671875 C-1.19275794 34.57048879 -5.20819419 34.52818355 -11 34 C-15.51315789 31.97368421 -15.51315789 31.97368421 -17 29 C-17.89692586 22.27305606 -17.89692586 22.27305606 -15.7890625 19.28125 C-11.22057086 15.07737976 -5.80764819 12.9865195 0 11 C-0.33 9.35 -0.66 7.7 -1 6 C-5.1849342 5.01611828 -5.1849342 5.01611828 -9.3125 5.8125 C-11.15097822 6.90687325 -11.15097822 6.90687325 -12 9 C-13.32 8.67 -14.64 8.34 -16 8 C-15.68122276 5.0513105 -15.46887329 3.45063337 -13.29296875 1.359375 C-9.15765362 -1.09222579 -4.65081884 -0.64077948 0 0 Z M-4.9375 18.375 C-6.28134766 19.03628906 -6.28134766 19.03628906 -7.65234375 19.7109375 C-10.09757365 20.91125023 -10.09757365 20.91125023 -12 23 C-11.90888062 25.53951544 -11.90888062 25.53951544 -11 28 C-8.10420618 30.37222995 -8.10420618 30.37222995 -4.4375 29.75 C-0.95407388 29.3141556 -0.95407388 29.3141556 1 27 C1.24315656 24.33050591 1.24315656 24.33050591 1.125 21.375 C1.10695313 20.37210938 1.08890625 19.36921875 1.0703125 18.3359375 C1.04710937 17.56507812 1.02390625 16.79421875 1 16 C-1.074072 16 -3.13202584 17.4787388 -4.9375 18.375 Z " fill="#4E0EA8" transform="translate(296,41)"/>
<path d="M0 0 C4.51315789 2.02631579 4.51315789 2.02631579 6 5 C6.89692586 11.72694394 6.89692586 11.72694394 4.7890625 14.71875 C0.22057086 18.92262024 -5.19235181 21.0134805 -11 23 C-10.67 24.65 -10.34 26.3 -10 28 C-5.8150658 28.98388172 -5.8150658 28.98388172 -1.6875 28.1875 C0.15097822 27.09312675 0.15097822 27.09312675 1 25 C2.32 25.33 3.64 25.66 5 26 C4.68122276 28.9486895 4.46887329 30.54936663 2.29296875 32.640625 C-1.84234638 35.09222579 -6.34918116 34.64077948 -11 34 C-14.00197464 32.19881522 -15.45166366 31.09667268 -17 28 C-17.32011789 24.40292849 -17.32432332 20.79706201 -17.375 17.1875 C-17.41238281 16.18912109 -17.44976562 15.19074219 -17.48828125 14.16210938 C-17.57711028 6.75475498 -17.57711028 6.75475498 -14.6015625 2.86328125 C-9.80724206 -0.57048879 -5.79180581 -0.52818355 0 0 Z M-12 7 C-12.44192381 10.69906598 -12.28329418 14.2919939 -12 18 C-10.39214223 17.40572612 -8.78882291 16.79916412 -7.1875 16.1875 C-6.29417969 15.85105469 -5.40085937 15.51460937 -4.48046875 15.16796875 C-2.05111342 14.02406758 -0.62626881 13.12122018 1 11 C0.99843776 8.40882687 0.99843776 8.40882687 0 6 C-4.51436539 2.99042308 -8.14017644 3.24739376 -12 7 Z " fill="#520EAF" transform="translate(269,41)"/>
<path d="M0 0 C10.40949292 0.05178852 10.40949292 0.05178852 15.390625 2.265625 C14.72395833 3.59895833 14.05729167 4.93229167 13.390625 6.265625 C13.16375 6.94625 12.936875 7.626875 12.703125 8.328125 C11.390625 10.265625 11.390625 10.265625 7.953125 11.515625 C4.11680781 13.40013169 3.82272454 13.70648012 2.453125 17.453125 C2.1025 18.71125 1.751875 19.969375 1.390625 21.265625 C0.730625 21.265625 0.070625 21.265625 -0.609375 21.265625 C-0.939375 22.585625 -1.269375 23.905625 -1.609375 25.265625 C-1.609375 24.605625 -1.609375 23.945625 -1.609375 23.265625 C-2.269375 23.265625 -2.929375 23.265625 -3.609375 23.265625 C-3.939375 22.605625 -4.269375 21.945625 -4.609375 21.265625 C-5.929375 21.595625 -7.249375 21.925625 -8.609375 22.265625 C-8.77831943 20.51584343 -8.94443809 18.76578888 -9.109375 17.015625 C-9.2021875 16.04109375 -9.295 15.0665625 -9.390625 14.0625 C-9.56737668 11.80260347 -9.609375 9.53242307 -9.609375 7.265625 C-7.234375 4.640625 -7.234375 4.640625 -4.609375 2.265625 C-2.609375 0.265625 -2.609375 0.265625 0 0 Z " fill="#6309CC" transform="translate(59.609375,12.734375)"/>
<path d="M0 0 C1.32 0 2.64 0 4 0 C4 3.3 4 6.6 4 10 C6.64 10 9.28 10 12 10 C12.33 11.65 12.66 13.3 13 15 C10.03 15 7.06 15 4 15 C4.11400369 18.08409976 4.24075202 21.16677137 4.375 24.25 C4.4059375 25.12269531 4.436875 25.99539062 4.46875 26.89453125 C4.50742187 27.73886719 4.54609375 28.58320312 4.5859375 29.453125 C4.6173584 30.22817383 4.6487793 31.00322266 4.68115234 31.80175781 C5.04016787 34.27693073 5.63440547 35.90513808 7 38 C10.04199472 39.29231642 10.04199472 39.29231642 13 40 C13 41.32 13 42.64 13 44 C9.00329808 44.31346682 6.67325099 44.40395059 3.1875 42.3125 C-1.76755596 37.07429799 -1.25025847 31.50445117 -1.125 24.6875 C-1.11597656 23.75615234 -1.10695313 22.82480469 -1.09765625 21.86523438 C-1.07418263 19.5765564 -1.04134729 17.28841328 -1 15 C-2.98 15 -4.96 15 -7 15 C-7.5625 13.0625 -7.5625 13.0625 -8 11 C-7 10 -7 10 -3.9375 9.9375 C-2.4834375 9.9684375 -2.4834375 9.9684375 -1 10 C-1.01160156 9.36191406 -1.02320313 8.72382812 -1.03515625 8.06640625 C-1.04417969 7.24011719 -1.05320312 6.41382813 -1.0625 5.5625 C-1.07410156 4.73878906 -1.08570313 3.91507813 -1.09765625 3.06640625 C-1 1 -1 1 0 0 Z " fill="#5C09C4" transform="translate(326,31)"/>
<path d="M0 0 C2 1.375 2 1.375 4 3 C4 3.66 4 4.32 4 5 C8.62 4.67 13.24 4.34 18 4 C18 3.34 18 2.68 18 2 C21 1 21 1 23.6875 2.125 C26 4 26 4 26.3125 6.6875 C26.209375 7.450625 26.10625 8.21375 26 9 C26.66 9 27.32 9 28 9 C28 9.99 28 10.98 28 12 C26.02 12.66 24.04 13.32 22 14 C22 14.66 22 15.32 22 16 C18.48796448 17.75601776 14.74717595 16.76686391 11 16 C6.67505043 14.45198037 2.82064175 12.5470945 -1 10 C-1 9.34 -1 8.68 -1 8 C-2.45833358 6.37485532 -2.45833358 6.37485532 -4 5 C-3.34 5 -2.68 5 -2 5 C-1.7834375 4.0409375 -1.7834375 4.0409375 -1.5625 3.0625 C-1 1 -1 1 0 0 Z " fill="#620ACC" transform="translate(22,76)"/>
<path d="M0 0 C0 0.99 0 1.98 0 3 C-1.98 3.99 -1.98 3.99 -4 5 C-4 5.99 -4 6.98 -4 8 C-2.741875 7.896875 -1.48375 7.79375 -0.1875 7.6875 C2.015625 7.67578125 2.015625 7.67578125 4 8 C6.0625 10.375 6.0625 10.375 7 13 C6.67 13.66 6.34 14.32 6 15 C3.85546875 15.34375 3.85546875 15.34375 1.1875 15.5 C-2.36997653 15.71019064 -4.95272794 16.08261533 -8 18 C-8.33 18.66 -8.66 19.32 -9 20 C-9.66 20 -10.32 20 -11 20 C-11.63394697 24.04141194 -12.12404452 27.9065307 -12 32 C-11.01 32 -10.02 32 -9 32 C-9 29.03 -9 26.06 -9 23 C-8.34 22.67 -7.68 22.34 -7 22 C-6.67 24.97 -6.34 27.94 -6 31 C-4.68 31.33 -3.36 31.66 -2 32 C-2.350625 31.4225 -2.70125 30.845 -3.0625 30.25 C-4 28 -4 28 -3.875 25.875 C-2.73160273 23.424863 -1.46882406 22.95567383 1 22 C5.80519481 26.08441558 5.80519481 26.08441558 6.625 29.9375 C5.74931432 34.22835983 4.28826203 36.12277073 1 39 C-1.82704116 39.75235773 -4.16162278 39.67224724 -7 39 C-10.06247955 37.20245766 -11.56734966 35.76228869 -13.3125 32.6875 C-14.51404564 27.99054885 -14.52868796 24.3481543 -12.75 19.8125 C-9.70859539 14.9245283 -9.70859539 14.9245283 -7 13 C-3.35415143 12.22525718 0.27914614 12 4 12 C3.67 11.34 3.34 10.68 3 10 C1.10466658 9.53476937 1.10466658 9.53476937 -1.0625 9.375 C-2.361875 9.25125 -3.66125 9.1275 -5 9 C-5.33 7.68 -5.66 6.36 -6 5 C-4.02 3.35 -2.04 1.7 0 0 Z " fill="#510FAD" transform="translate(72,37)"/>
<path d="M0 0 C2.475 0.495 2.475 0.495 5 1 C5 14.86 5 28.72 5 43 C2.525 43.495 2.525 43.495 0 44 C-1.1482685 41.703463 -1.11561175 40.41686833 -1.09765625 37.8671875 C-1.09515869 37.14128418 -1.09266113 36.41538086 -1.09008789 35.66748047 C-1.08098389 34.74596191 -1.07187988 33.82444336 -1.0625 32.875 C-1.041875 29.94625 -1.02125 27.0175 -1 24 C-7.27 24 -13.54 24 -20 24 C-20 30.27 -20 36.54 -20 43 C-21.98 43.495 -21.98 43.495 -24 44 C-25 43 -25 43 -25.11352539 39.03100586 C-25.1133662 37.25894393 -25.10766785 35.4868774 -25.09765625 33.71484375 C-25.0962413 32.78402481 -25.09482635 31.85320587 -25.09336853 30.8941803 C-25.08775172 27.90858809 -25.0751964 24.92306971 -25.0625 21.9375 C-25.05748716 19.91862087 -25.05292388 17.89974057 -25.04882812 15.88085938 C-25.03777683 10.92054428 -25.02050095 5.96028468 -25 1 C-24.67 1 -24.34 1 -24 1 C-24 14.53 -24 28.06 -24 42 C-23.01 42 -22.02 42 -21 42 C-21 35.4 -21 28.8 -21 22 C-17.52078265 21.97316799 -14.04176961 21.9532433 -10.5625 21.9375 C-9.07266602 21.92493164 -9.07266602 21.92493164 -7.55273438 21.91210938 C-6.60849609 21.90888672 -5.66425781 21.90566406 -4.69140625 21.90234375 C-3.37958374 21.89448853 -3.37958374 21.89448853 -2.04125977 21.88647461 C0 22 0 22 1 23 C1.08631874 24.34267413 1.10706473 25.68974322 1.09765625 27.03515625 C1.09443359 27.84404297 1.09121094 28.65292969 1.08789062 29.48632812 C1.07951172 30.33646484 1.07113281 31.18660156 1.0625 32.0625 C1.05798828 32.91650391 1.05347656 33.77050781 1.04882812 34.65039062 C1.03700373 36.76695663 1.01906769 38.88348685 1 41 C1.66 41 2.32 41 3 41 C3 28.13 3 15.26 3 2 C2.34 2 1.68 2 1 2 C1 7.61 1 13.22 1 19 C0.34 19 -0.32 19 -1 19 C-1.02690104 16.20826945 -1.04679053 13.41679652 -1.0625 10.625 C-1.07087891 9.8309375 -1.07925781 9.036875 -1.08789062 8.21875 C-1.11328125 2.2265625 -1.11328125 2.2265625 0 0 Z " fill="#49139C" transform="translate(240,31)"/>
<path d="M0 0 C0 3.3 0 6.6 0 10 C0.99 10 1.98 10 3 10 C3.33 9.34 3.66 8.68 4 8 C4.33 8.99 4.66 9.98 5 11 C5.66 11 6.32 11 7 11 C7.33 10.34 7.66 9.68 8 9 C8.66 9 9.32 9 10 9 C10.72318245 12.22144909 10.93420601 14.80855029 10 18 C6.57349521 21.10579745 1.81026081 25 -3 25 C-1.58192622 20.52761347 0.11304374 16.28853694 2 12 C-2.31569501 13.48817069 -3.06846267 16.05644462 -5 20 C-6.875 21.9375 -6.875 21.9375 -9 23 C-11.75 22.6875 -11.75 22.6875 -14 22 C-14 21.34 -14 20.68 -14 20 C-12.35546875 18.66796875 -12.35546875 18.66796875 -10.1875 17.1875 C-5.94375265 14.09841182 -3.710865 11.48802749 -2.25 6.375 C-1.81896121 3.85344479 -1.81896121 3.85344479 -3 1 C-6.91754899 0.54447105 -8.50407467 0.61940614 -11.6875 3.0625 C-14.99035858 7.25802306 -16.95295518 11.76477591 -18 17 C-19.32 16.34 -20.64 15.68 -22 15 C-22 13.35 -22 11.7 -22 10 C-21.34 9.67 -20.68 9.34 -20 9 C-19.67 9.66 -19.34 10.32 -19 11 C-17.39644899 7.49223216 -16.77963136 4.85645121 -17 1 C-11.66409343 -0.77863552 -5.32975737 -2.66487869 0 0 Z " fill="#580FB3" transform="translate(51,25)"/>
<path d="M0 0 C1.00023193 0.00523682 2.00046387 0.01047363 3.03100586 0.01586914 C4.1105957 0.0190918 5.19018555 0.02231445 6.30249023 0.02563477 C8.00695312 0.03820312 8.00695312 0.03820312 9.74584961 0.05102539 C11.45611328 0.05779297 11.45611328 0.05779297 13.20092773 0.06469727 C16.02845312 0.07652792 18.85587601 0.09301129 21.68334961 0.11352539 C22.24584961 2.05102539 22.24584961 2.05102539 22.68334961 4.11352539 C21.68334961 5.11352539 21.68334961 5.11352539 19.73388672 5.22705078 C18.90123291 5.22181396 18.0685791 5.21657715 17.21069336 5.21118164 C16.31157227 5.20795898 15.41245117 5.20473633 14.48608398 5.20141602 C13.54055664 5.19303711 12.5950293 5.1846582 11.62084961 5.17602539 C10.67145508 5.17151367 9.72206055 5.16700195 8.74389648 5.16235352 C6.39031896 5.15052649 4.03686484 5.13404564 1.68334961 5.11352539 C1.68334961 4.78352539 1.68334961 4.45352539 1.68334961 4.11352539 C3.33334961 3.78352539 4.98334961 3.45352539 6.68334961 3.11352539 C4.04334961 2.78352539 1.40334961 2.45352539 -1.31665039 2.11352539 C-1.31665039 15.31352539 -1.31665039 28.51352539 -1.31665039 42.11352539 C5.94334961 42.11352539 13.20334961 42.11352539 20.68334961 42.11352539 C20.68334961 41.45352539 20.68334961 40.79352539 20.68334961 40.11352539 C14.41334961 40.11352539 8.14334961 40.11352539 1.68334961 40.11352539 C1.68334961 39.78352539 1.68334961 39.45352539 1.68334961 39.11352539 C8.28334961 39.11352539 14.88334961 39.11352539 21.68334961 39.11352539 C22.01334961 40.10352539 22.34334961 41.09352539 22.68334961 42.11352539 C22.35334961 42.77352539 22.02334961 43.43352539 21.68334961 44.11352539 C17.70419802 44.14239523 13.72507308 44.16027945 9.74584961 44.17602539 C8.04138672 44.18859375 8.04138672 44.18859375 6.30249023 44.20141602 C5.22290039 44.20463867 4.14331055 44.20786133 3.03100586 44.21118164 C1.53065796 44.21903687 1.53065796 44.21903687 0 44.22705078 C-2.31665039 44.11352539 -2.31665039 44.11352539 -3.31665039 43.11352539 C-3.4178196 40.02271074 -3.45633597 36.95469984 -3.44946289 33.86352539 C-3.45041962 32.93507812 -3.45137634 32.00663086 -3.45236206 31.05004883 C-3.45304394 29.08292574 -3.45118911 27.11580043 -3.44702148 25.14868164 C-3.44167334 22.12649513 -3.44696621 19.10445724 -3.45336914 16.08227539 C-3.45270836 14.17602506 -3.4514272 12.26977482 -3.44946289 10.36352539 C-3.45148712 9.453125 -3.45351135 8.54272461 -3.45559692 7.60473633 C-3.42760889 0.16796692 -3.42760889 0.16796692 0 0 Z " fill="#4D16A2" transform="translate(176.316650390625,30.886474609375)"/>
<path d="M0 0 C1.98 0.495 1.98 0.495 4 1 C4.33 13.54 4.66 26.08 5 39 C6.65 39.33 8.3 39.66 10 40 C10 41.32 10 42.64 10 44 C6.69492676 44.2253459 4.60786486 44.34500438 1.6875 42.6875 C-1.42975181 39.57024819 -1.12100016 36.24231409 -1.13894653 32.04452515 C-1.1369223 31.25381622 -1.13489807 30.4631073 -1.1328125 29.6484375 C-1.13376923 28.83380035 -1.13472595 28.01916321 -1.13571167 27.17984009 C-1.13639166 25.46006188 -1.13454998 23.74028108 -1.13037109 22.02050781 C-1.12500649 19.37819717 -1.13032925 16.73605545 -1.13671875 14.09375 C-1.13605821 12.42447879 -1.13477754 10.75520768 -1.1328125 9.0859375 C-1.13483673 8.29118011 -1.13686096 7.49642273 -1.13894653 6.67758179 C-1.11496014 1.11496014 -1.11496014 1.11496014 0 0 Z " fill="#4B1A97" transform="translate(310,31)"/>
<path d="M0 0 C0.33 1.65 0.66 3.3 1 5 C-3.455 5.495 -3.455 5.495 -8 6 C-8.02505615 6.77714355 -8.0501123 7.55428711 -8.07592773 8.35498047 C-8.19166796 11.86183069 -8.31449352 15.36839745 -8.4375 18.875 C-8.49647461 20.70998047 -8.49647461 20.70998047 -8.55664062 22.58203125 C-8.59853516 23.74863281 -8.64042969 24.91523437 -8.68359375 26.1171875 C-8.72025146 27.19597168 -8.75690918 28.27475586 -8.79467773 29.38623047 C-9 32 -9 32 -10 34 C-11.32 34 -12.64 34 -14 34 C-15.91056419 30.17887162 -15.22834649 25.51598704 -15.25 21.3125 C-15.2809375 19.84006836 -15.2809375 19.84006836 -15.3125 18.33789062 C-15.34419986 12.42982887 -14.89539633 8.19222514 -12 3 C-8.15734332 -0.30895436 -4.95213111 -0.29130183 0 0 Z " fill="#4F0DAE" transform="translate(450,41)"/>
<path d="M0 0 C0.495 0.99 0.495 0.99 1 2 C0.01 1.835 -0.98 1.67 -2 1.5 C-7.9470373 0.66934094 -13.465447 0.2327235 -19 3 C-19 4.65 -19 6.3 -19 8 C-16.08416032 7.58345147 -14.23492964 7.16780689 -11.8125 5.4375 C-5.68140348 2.30382845 0.75916087 3.70156694 7.125 5.625 C14.35767074 8.24661073 19.80266756 12.36955653 25 18 C24.67 18.66 24.34 19.32 24 20 C23.57589844 19.54109375 23.15179688 19.0821875 22.71484375 18.609375 C14.90323172 10.43722703 7.09311955 7.00450091 -4.25 6.6875 C-8.74414192 6.61182144 -10.5279814 7.23685187 -14 10 C-17.75 10.1875 -17.75 10.1875 -21 10 C-21.38063221 7.6739143 -21.71269945 5.33944736 -22 3 C-21.67 2.67 -21.34 2.34 -21 2 C-21.66 1.67 -22.32 1.34 -23 1 C-23.33 2.65 -23.66 4.3 -24 6 C-25.32 6 -26.64 6 -28 6 C-28.33 5.34 -28.66 4.68 -29 4 C-31.49935058 4.4628427 -33.17987412 5.10887118 -35.375 6.4375 C-38.17649677 8.1050576 -40.8879014 9.05913298 -44 10 C-33.58016473 -1.72231468 -14.63639297 -5.29262424 0 0 Z " fill="#5414AB" transform="translate(67,7)"/>
<path d="M0 0 C0.99 0.33 1.98 0.66 3 1 C3 3.31 3 5.62 3 8 C1.35 8.33 -0.3 8.66 -2 9 C-0.93354885 10.29633621 -0.93354885 10.29633621 1.5625 10.0625 C2.366875 10.041875 3.17125 10.02125 4 10 C4.05395478 11.62463842 4.09277195 13.24978541 4.125 14.875 C4.14820313 15.77992187 4.17140625 16.68484375 4.1953125 17.6171875 C4 20 4 20 2 22 C1.505 17.05 1.505 17.05 1 12 C-0.65581725 12.70620155 -2.29951386 13.44087238 -3.9375 14.1875 C-4.85402344 14.59355469 -5.77054687 14.99960937 -6.71484375 15.41796875 C-9.21800848 16.82113752 -9.21800848 16.82113752 -9.90625 19.5625 C-10.26744642 22.06674128 -10.26744642 22.06674128 -8.5625 23.8125 C-8.046875 24.204375 -7.53125 24.59625 -7 25 C-8.32 25.33 -9.64 25.66 -11 26 C-4.74676951 27.20676378 -1.64808507 26.93700423 4 24 C4.66 23.67 5.32 23.34 6 23 C5.04966507 25.37583732 4.42689775 26.73142194 2.23046875 28.11328125 C-1.7443321 29.69345602 -5.79535315 29.45584359 -10 29 C-14.51315789 26.97368421 -14.51315789 26.97368421 -16 24 C-16.89692586 17.27305606 -16.89692586 17.27305606 -14.7890625 14.28125 C-10.22057086 10.07737976 -4.80764819 7.9865195 1 6 C0.67 4.02 0.34 2.04 0 0 Z " fill="#4D0FA5" transform="translate(295,46)"/>
<path d="M0 0 C0.99 0 1.98 0 3 0 C2.83628906 0.56203125 2.67257812 1.1240625 2.50390625 1.703125 C1.97135003 4.13059056 1.90101319 6.26889681 1.9375 8.75 C1.958125 10.1525 1.97875 11.555 2 13 C6.455 12.505 6.455 12.505 11 12 C10.01 12.99 9.02 13.98 8 15 C6.68 15 5.36 15 4 15 C3.74984127 18.41642759 3.74984127 18.41642759 4 22 C6.89461901 24.36139302 6.89461901 24.36139302 10.5625 23.8125 C14.25825752 23.35160238 14.25825752 23.35160238 16 20 C17.32 20.33 18.64 20.66 20 21 C19.68122276 23.9486895 19.46887329 25.54936663 17.29296875 27.640625 C14.52398486 29.28220319 12.76585491 29.43305707 9.5625 29.4375 C8.63566406 29.45683594 7.70882813 29.47617188 6.75390625 29.49609375 C2.89546092 28.80102629 1.48973364 28.08870008 -1 25 C-1.64546596 21.11055452 -1.51433291 17.30514887 -1.375 13.375 C-1.36082031 12.3128125 -1.34664062 11.250625 -1.33203125 10.15625 C-1.18337674 2.36675347 -1.18337674 2.36675347 0 0 Z " fill="#5D09CA" transform="translate(254,46)"/>
<path d="M0 0 C0.66 0 1.32 0 2 0 C2 5.61 2 11.22 2 17 C1.67 17 1.34 17 1 17 C1 14.36 1 11.72 1 9 C-4.69227513 10.33770712 -4.69227513 10.33770712 -9 14 C-9.721875 14.433125 -10.44375 14.86625 -11.1875 15.3125 C-13.35773994 16.95163704 -13.35773994 16.95163704 -13.25 20.1875 C-13.1675 21.115625 -13.085 22.04375 -13 23 C-7.52566405 23.21467984 -3.39107803 23.14372513 0.8125 19.375 C1.204375 18.92125 1.59625 18.4675 2 18 C1.125 22.75 1.125 22.75 0 25 C-5.54264929 26.84754976 -11.62799303 26.74415905 -17.1875 25 C-19 23 -19 23 -19.625 19.125 C-19.35917441 15.74963325 -18.64596091 13.40020751 -15.9765625 11.09765625 C-11.35231549 8.52964556 -6.08801223 7.33346148 -1 6 C-0.67 4.02 -0.34 2.04 0 0 Z " fill="#510CB2" transform="translate(425,47)"/>
<path d="M0 0 C-0.19942101 7.83180706 -2.42248426 13.42248426 -8 19 C-11 19.25 -11 19.25 -14 19 C-14.66 18.34 -15.32 17.68 -16 17 C-15.89881729 12.54796068 -14.58389362 9.76201223 -11.6015625 6.45703125 C-8.50944745 3.64396073 -4.32333253 0 0 0 Z " fill="#6009C7" transform="translate(44,57)"/>
<path d="M0 0 C3.40312738 1.05875074 6.01353231 2.00902154 9 4 C8.67 7.63 8.34 11.26 8 15 C6.02 15 4.04 15 2 15 C1.7834375 16.175625 1.7834375 16.175625 1.5625 17.375 C1 20 1 20 0 22 C-0.66 22 -1.32 22 -2 22 C-1.84402344 21.37351562 -1.68804687 20.74703125 -1.52734375 20.1015625 C-1.33269531 19.28429687 -1.13804688 18.46703125 -0.9375 17.625 C-0.74027344 16.81289063 -0.54304688 16.00078125 -0.33984375 15.1640625 C0.22109319 12.95838716 0.22109319 12.95838716 -1 11 C-3.78938212 10.58109782 -3.78938212 10.58109782 -7 11 C-9.9271127 13.46143568 -11.88082786 15.82124178 -14 19 C-13.67558396 17.33157466 -13.34060811 15.66519519 -13 14 C-12.896875 13.278125 -12.79375 12.55625 -12.6875 11.8125 C-12 10 -12 10 -10.1875 8.75 C-8 8 -8 8 -4 8 C-3.71125 7.236875 -3.4225 6.47375 -3.125 5.6875 C-2 3 -2 3 0 0 Z " fill="#5C0CC0" transform="translate(75,15)"/>
<path d="M0 0 C5.0987434 8.83782189 3.2043655 19.57240111 1 29 C0.34 29 -0.32 29 -1 29 C-0.835 28.01 -0.67 27.02 -0.5 26 C0.33065906 20.0529627 0.7672765 14.534553 -2 9 C-3.65 9 -5.3 9 -7 9 C-6.55673216 12.01422128 -5.95637001 14.07678877 -4.4375 16.75 C-1.19821142 24.07360896 -3.10998245 30.80628164 -5.7109375 38.11328125 C-7.55629167 42.2457562 -10.01659681 45.61880972 -13 49 C-13 45.09382567 -11.68215404 42.49370455 -10 39 C-9.01 38.505 -9.01 38.505 -8 38 C-5.80967743 32.06449623 -5.23890087 25.25424938 -6 19 C-6.94726954 17.30280873 -7.94228261 15.63064764 -9 14 C-9.1875 10.1875 -9.1875 10.1875 -9 7 C-6.36 6.34 -3.72 5.68 -1 5 C-0.67 3.35 -0.34 1.7 0 0 Z " fill="#4C169F" transform="translate(98,39)"/>
<path d="M0 0 C-0.0314209 0.82201904 -0.0628418 1.64403809 -0.09521484 2.4909668 C-0.22009441 6.22286351 -0.29802723 9.95432078 -0.375 13.6875 C-0.42527344 14.98107422 -0.47554688 16.27464844 -0.52734375 17.60742188 C-0.82612843 24.0454941 -0.82612843 24.0454941 1.15576172 29.99926758 C3.55816244 32.20192427 5.81681851 32.97010746 8.9921875 33.48828125 C9.94351562 33.43027344 10.89484375 33.37226562 11.875 33.3125 C12.84179688 33.26738281 13.80859375 33.22226563 14.8046875 33.17578125 C15.52914063 33.11777344 16.25359375 33.05976562 17 33 C17 33.66 17 34.32 17 35 C3.04093774 35.68839211 3.04093774 35.68839211 -0.75 33.25 C-5.38821998 28.61178002 -5.27982862 24.58678607 -5.32226562 18.26367188 C-5.31904297 17.16603516 -5.31582031 16.06839844 -5.3125 14.9375 C-5.32861328 13.83599609 -5.34472656 12.73449219 -5.36132812 11.59960938 C-5.36197266 10.54451172 -5.36261719 9.48941406 -5.36328125 8.40234375 C-5.36626221 7.43804443 -5.36924316 6.47374512 -5.37231445 5.48022461 C-5 3 -5 3 -3.60229492 1.16235352 C-2 0 -2 0 0 0 Z " fill="#580DBB" transform="translate(379,38)"/>
<path d="M0 0 C0.33 0 0.66 0 1 0 C1 4.95 1 9.9 1 15 C1.66 15 2.32 15 3 15 C5.875 21.625 5.875 21.625 7 25 C13.435 24.505 13.435 24.505 20 24 C20 24.66 20 25.32 20 26 C15.04592041 28.03244291 10.29562625 28.95510402 5 28 C1.93169611 26.28047136 -0.40379388 24.19241224 -2 21 C-2.43244724 14.38610097 -2.07018211 7.54000179 -1 1 C-0.67 0.67 -0.34 0.34 0 0 Z " fill="#5D0BC3" transform="translate(139,46)"/>
<path d="M0 0 C4.875 2.75 4.875 2.75 6 5 C6.25860135 9.05142119 6.30441554 10.54337669 4 14 C1.6171875 14.73046875 1.6171875 14.73046875 -1.125 15.1875 C-2.03507812 15.34605469 -2.94515625 15.50460938 -3.8828125 15.66796875 C-4.58148438 15.77753906 -5.28015625 15.88710937 -6 16 C-6.66 14.68 -7.32 13.36 -8 12 C-7.34 11.01 -6.68 10.02 -6 9 C-4.68 9.33 -3.36 9.66 -2 10 C-2.350625 9.4225 -2.70125 8.845 -3.0625 8.25 C-4 6 -4 6 -3.8125 3.875 C-3 2 -3 2 0 0 Z " fill="#5310AE" transform="translate(72,59)"/>
<path d="M0 0 C1.32 0 2.64 0 4 0 C4 3.3 4 6.6 4 10 C6.64 10 9.28 10 12 10 C12.33 11.65 12.66 13.3 13 15 C8.545 15.495 8.545 15.495 4 16 C3.67 17.65 3.34 19.3 3 21 C2.67 21 2.34 21 2 21 C2 17.04 2 13.08 2 9 C1.34 9.66 0.68 10.32 0 11 C-0.680625 11.165 -1.36125 11.33 -2.0625 11.5 C-2.701875 11.665 -3.34125 11.83 -4 12 C-4.33 12.66 -4.66 13.32 -5 14 C-3.68 14.33 -2.36 14.66 -1 15 C-2.98 15 -4.96 15 -7 15 C-7.5625 13.0625 -7.5625 13.0625 -8 11 C-7 10 -7 10 -3.9375 9.9375 C-2.4834375 9.9684375 -2.4834375 9.9684375 -1 10 C-1.01160156 9.36191406 -1.02320313 8.72382812 -1.03515625 8.06640625 C-1.04417969 7.24011719 -1.05320312 6.41382813 -1.0625 5.5625 C-1.07410156 4.73878906 -1.08570313 3.91507813 -1.09765625 3.06640625 C-1 1 -1 1 0 0 Z " fill="#5A09C5" transform="translate(326,31)"/>
<path d="M0 0 C2.52841339 2.00309255 4.56774431 4.09012306 6 7 C5.67 7.99 5.34 8.98 5 10 C2.16642652 9.59520379 1.14969877 9.16518485 -0.8125 7 C-3.81890669 4.25128531 -5.9745906 4.20468183 -10 4 C-12.34260643 4.2602896 -14.6817571 4.57420028 -17 5 C-16.67 3.35 -16.34 1.7 -16 0 C-10.45370482 -2.62719245 -5.59336476 -2.24096036 0 0 Z " fill="#4B0EAA" transform="translate(397,32)"/>
<path d="M0 0 C5.94 0 11.88 0 18 0 C18.33 1.32 18.66 2.64 19 4 C18 5 18 5 16.23413086 5.11352539 C15.48526611 5.10828857 14.73640137 5.10305176 13.96484375 5.09765625 C13.15595703 5.09443359 12.34707031 5.09121094 11.51367188 5.08789062 C10.66353516 5.07951172 9.81339844 5.07113281 8.9375 5.0625 C8.08349609 5.05798828 7.22949219 5.05347656 6.34960938 5.04882812 C4.23304337 5.03700373 2.11651315 5.01906769 0 5 C0 9.95 0 14.9 0 20 C-0.33 20 -0.66 20 -1 20 C-1.02696009 17.2291017 -1.04681952 14.4584655 -1.0625 11.6875 C-1.07087891 10.90181641 -1.07925781 10.11613281 -1.08789062 9.30664062 C-1.09111328 8.54931641 -1.09433594 7.79199219 -1.09765625 7.01171875 C-1.10289307 6.31522217 -1.10812988 5.61872559 -1.11352539 4.90112305 C-1 3 -1 3 0 0 Z " fill="#5011AD" transform="translate(178,50)"/>
<path d="M0 0 C5.5 3 5.5 3 7 6 C6.34 6 5.68 6 5 6 C5 7.98 5 9.96 5 12 C-0.5 15.125 -0.5 15.125 -5 14 C-2.36 13.01 0.28 12.02 3 11 C2.67 9.35 2.34 7.7 2 6 C-2.44694861 4.8500977 -2.44694861 4.8500977 -6.625 6.4375 C-7.40875 6.953125 -8.1925 7.46875 -9 8 C-10.32 8 -11.64 8 -13 8 C-12.68762196 5.11050316 -12.35661121 3.41366901 -10.4375 1.1875 C-6.95535103 -0.50893155 -3.75288655 -0.66990105 0 0 Z " fill="#4D0DAB" transform="translate(420,41)"/>
<path d="M0 0 C0.66 0.33 1.32 0.66 2 1 C2.08706892 4.27066566 2.14041241 7.54103365 2.1875 10.8125 C2.21263672 11.74126953 2.23777344 12.67003906 2.26367188 13.62695312 C2.27333984 14.51962891 2.28300781 15.41230469 2.29296875 16.33203125 C2.3086792 17.15421143 2.32438965 17.9763916 2.34057617 18.82348633 C1.91978624 21.51262053 1.11638699 22.34579033 -1 24 C-5.3606222 25.70271914 -9.00657343 26.24399951 -13.5625 25.125 C-14.366875 24.75375 -15.17125 24.3825 -16 24 C-16 23.67 -16 23.34 -16 23 C-14.75283203 22.80083984 -14.75283203 22.80083984 -13.48046875 22.59765625 C-12.39378906 22.42105469 -11.30710937 22.24445313 -10.1875 22.0625 C-9.10855469 21.88847656 -8.02960938 21.71445313 -6.91796875 21.53515625 C-3.95066644 21.06128079 -3.95066644 21.06128079 -1 20 C-0.67 16.04 -0.34 12.08 0 8 C-1.98 8.33 -3.96 8.66 -6 9 C-6 8.34 -6 7.68 -6 7 C-4.35 6.67 -2.7 6.34 -1 6 C-0.67 4.02 -0.34 2.04 0 0 Z " fill="#6009CE" transform="translate(299,48)"/>
<path d="M0 0 C0.33 0 0.66 0 1 0 C0.99214478 1.05127075 0.99214478 1.05127075 0.98413086 2.1237793 C0.96329148 5.31167701 0.95031768 8.49956036 0.9375 11.6875 C0.92912109 12.79029297 0.92074219 13.89308594 0.91210938 15.02929688 C0.90888672 16.09599609 0.90566406 17.16269531 0.90234375 18.26171875 C0.89710693 19.24100342 0.89187012 20.22028809 0.88647461 21.22924805 C0.99692994 23.92507078 1.46184611 26.36329936 2 29 C1.5625 31.3125 1.5625 31.3125 1 33 C0.34 33 -0.32 33 -1 33 C-2.99357701 27.1933114 -3.30418499 21.98887302 -3.25 15.875 C-3.25773438 14.99457031 -3.26546875 14.11414062 -3.2734375 13.20703125 C-3.24338124 3.24338124 -3.24338124 3.24338124 0 0 Z " fill="#4A0EA9" transform="translate(3,37)"/>
<path d="M0 0 C0.66 0.33 1.32 0.66 2 1 C1.195625 1.763125 0.39125 2.52625 -0.4375 3.3125 C-3.16799024 5.79430898 -3.16799024 5.79430898 -4 9 C-3.34 9 -2.68 9 -2 9 C-2 8.01 -2 7.02 -2 6 C-1.01 6.33 -0.02 6.66 1 7 C0.52433594 8.22589844 0.52433594 8.22589844 0.0390625 9.4765625 C-1.15109083 13.51234559 -1.44359343 17.19509032 -1.625 21.375 C-1.68300781 22.47908203 -1.68300781 22.47908203 -1.7421875 23.60546875 C-1.83557998 25.40327406 -1.9188371 27.20160108 -2 29 C-2.33 29 -2.66 29 -3 29 C-3.33 24.38 -3.66 19.76 -4 15 C-4.66 20.61 -5.32 26.22 -6 32 C-6.33 32 -6.66 32 -7 32 C-7.08761663 28.45849107 -7.14059739 24.91726367 -7.1875 21.375 C-7.21263672 20.37597656 -7.23777344 19.37695312 -7.26367188 18.34765625 C-7.33244718 11.42427551 -6.66208974 6.89026886 -1.8125 1.625 C-1.214375 1.08875 -0.61625 0.5525 0 0 Z " fill="#4F10A6" transform="translate(143,32)"/>
<path d="M0 0 C0 0.66 0 1.32 0 2 C-1.65 2 -3.3 2 -5 2 C-4.67 2.66 -4.34 3.32 -4 4 C-1.97536745 4.65213292 -1.97536745 4.65213292 0 5 C-0.639375 5.28875 -1.27875 5.5775 -1.9375 5.875 C-4.15206079 6.82823451 -4.15206079 6.82823451 -5 9 C-5.22467831 10.53668865 -5.40796805 12.07968054 -5.5625 13.625 C-5.64628906 14.44226562 -5.73007812 15.25953125 -5.81640625 16.1015625 C-5.87699219 16.72804688 -5.93757813 17.35453125 -6 18 C-6.33 18 -6.66 18 -7 18 C-7 14.7 -7 11.4 -7 8 C-7.66 8 -8.32 8 -9 8 C-8.86076462 11.25031784 -8.71245815 14.50016061 -8.5625 17.75 C-8.52318359 18.67039062 -8.48386719 19.59078125 -8.44335938 20.5390625 C-8.40146484 21.42851563 -8.35957031 22.31796875 -8.31640625 23.234375 C-8.27974854 24.05131836 -8.24309082 24.86826172 -8.20532227 25.70996094 C-8.00865725 27.9034423 -7.59699406 29.88396413 -7 32 C-10.89114699 28.27803332 -10.89114699 28.27803332 -11.16113281 25.1081543 C-11.20661395 22.6344565 -11.23528427 20.16158128 -11.25 17.6875 C-11.270625 16.83220703 -11.29125 15.97691406 -11.3125 15.09570312 C-11.34271711 10.21941681 -11.16793621 6.96184723 -8 3 C-4.98512051 0.17962886 -4.33277666 0 0 0 Z " fill="#4C11A1" transform="translate(464,41)"/>
<path d="M0 0 C0.66 0.33 1.32 0.66 2 1 C2 2.65 2 4.3 2 6 C4.91583968 5.58345147 6.76507036 5.16780689 9.1875 3.4375 C15.31859652 0.30382845 21.75916087 1.70156694 28.125 3.625 C35.35767074 6.24661073 40.80266756 10.36955653 46 16 C45.67 16.66 45.34 17.32 45 18 C44.57589844 17.54109375 44.15179688 17.0821875 43.71484375 16.609375 C35.90323172 8.43722703 28.09311955 5.00450091 16.75 4.6875 C12.25585808 4.61182144 10.4720186 5.23685187 7 8 C3.25 8.1875 3.25 8.1875 0 8 C-0.38063221 5.6739143 -0.71269945 3.33944736 -1 1 C-0.67 0.67 -0.34 0.34 0 0 Z " fill="#4F11A2" transform="translate(46,9)"/>
<path d="M0 0 C0.268125 0.61875 0.53625 1.2375 0.8125 1.875 C1.95556848 4.2995233 1.95556848 4.2995233 5 6 C8.57176115 5.91832511 8.57176115 5.91832511 12 5 C12.66 4.01 13.32 3.02 14 2 C15.32 2.33 16.64 2.66 18 3 C17.68122276 5.9486895 17.46887329 7.54936663 15.29296875 9.640625 C11.16340678 12.08881506 6.64462543 11.65272103 2 11 C-1.1875 9 -1.1875 9 -3 7 C-2.67 6.34 -2.34 5.68 -2 5 C-1.608125 5.45375 -1.21625 5.9075 -0.8125 6.375 C1.30832487 8.27642919 3.33042235 9.06204028 6 10 C6 9.34 6 8.68 6 8 C5.195625 7.690625 4.39125 7.38125 3.5625 7.0625 C1 6 1 6 0 5 C-0.04063832 3.33382885 -0.042721 1.66611905 0 0 Z " fill="#4C0EAC" transform="translate(256,64)"/>
<path d="M0 0 C0.6373057 21.66839378 0.6373057 21.66839378 -3 28 C-3.99 28.33 -4.98 28.66 -6 29 C-5.85769192 27.58297487 -5.71099254 26.1663904 -5.5625 24.75 C-5.48128906 23.96109375 -5.40007812 23.1721875 -5.31640625 22.359375 C-5 20 -5 20 -4.4921875 18.18359375 C-3.6111535 14.2748794 -3.6356756 10.2204199 -3.48242188 6.22460938 C-3.39140077 4.47803462 -3.20325467 2.73709406 -3 1 C-1 0 -1 0 0 0 Z " fill="#5015A4" transform="translate(106,45)"/>
<path d="M0 0 C0.66 0 1.32 0 2 0 C2.02505615 1.00901367 2.0501123 2.01802734 2.07592773 3.05761719 C2.17022409 6.80741696 2.27039021 10.55704108 2.37231445 14.30664062 C2.41557931 15.92834357 2.45726028 17.55008958 2.49731445 19.171875 C2.55522214 21.50534027 2.61885698 23.83859043 2.68359375 26.171875 C2.70866249 27.25647003 2.70866249 27.25647003 2.73423767 28.36297607 C2.73630012 34.82660951 2.73630012 34.82660951 6 40 C1.125 39.125 1.125 39.125 0 38 C-0.08861992 35.1883662 -0.11522355 32.40141745 -0.09765625 29.58984375 C-0.0962413 28.74780899 -0.09482635 27.90577423 -0.09336853 27.03822327 C-0.08775263 24.33794665 -0.07519748 21.63775172 -0.0625 18.9375 C-0.05748705 17.11132932 -0.05292379 15.28515734 -0.04882812 13.45898438 C-0.03777804 8.97262458 -0.02050279 4.48632616 0 0 Z " fill="#5A09C9" transform="translate(311,33)"/>
<path d="M0 0 C2.3125 0.25 2.3125 0.25 4 1 C3.69895795 3.80972581 2.95275592 5.05669289 1.125 7.25 C-3.48845527 9.83353495 -7.82547942 9.32623948 -13 9 C-13.33 8.34 -13.66 7.68 -14 7 C-12.68 7 -11.36 7 -10 7 C-10 6.34 -10 5.68 -10 5 C-10.99 5 -11.98 5 -13 5 C-12.67 4.34 -12.34 3.68 -12 3 C-10.948125 3.2475 -9.89625 3.495 -8.8125 3.75 C-4.1519866 4.05560744 -3.39943407 2.94005109 0 0 Z " fill="#4D10A3" transform="translate(472,66)"/>
<path d="M0 0 C0.66 0 1.32 0 2 0 C3.41308973 13.3700028 2.70137951 26.6006295 2 40 C1.34 40 0.68 40 0 40 C0 26.8 0 13.6 0 0 Z " fill="#6009CE" transform="translate(345,33)"/>
<path d="M0 0 C0.66 0 1.32 0 2 0 C2 12.87 2 25.74 2 39 C1.34 39 0.68 39 0 39 C-0.16768291 36.06255476 -0.33418858 33.12505096 -0.5 30.1875 C-0.57154297 28.93743164 -0.57154297 28.93743164 -0.64453125 27.66210938 C-0.68964844 26.85966797 -0.73476562 26.05722656 -0.78125 25.23046875 C-0.82314453 24.49207764 -0.86503906 23.75368652 -0.90820312 22.99291992 C-1.05057929 19.90191819 -0.95633534 16.85541045 -0.78125 13.76953125 C-0.73613281 12.96708984 -0.69101563 12.16464844 -0.64453125 11.33789062 C-0.59683594 10.50451172 -0.54914063 9.67113281 -0.5 8.8125 C-0.45230469 7.96751953 -0.40460938 7.12253906 -0.35546875 6.25195312 C-0.23772712 4.16792636 -0.11896189 2.08395747 0 0 Z " fill="#6208CF" transform="translate(241,33)"/>
<path d="M0 0 C1.32 0 2.64 0 4 0 C4 6.27 4 12.54 4 19 C3.34 19 2.68 19 2 19 C1.67 26.59 1.34 34.18 1 42 C0.67 42 0.34 42 0 42 C0 28.14 0 14.28 0 0 Z " fill="#540CB4" transform="translate(216,31)"/>
<path d="M0 0 C0.66 0 1.32 0 2 0 C1.835 0.99 1.67 1.98 1.5 3 C0.68791871 8.73097366 0.58569963 14.34279853 2 20 C1.67 20 1.34 20 1 20 C0.67 21.65 0.34 23.3 0 25 C0.66 25 1.32 25 2 25 C2 26.65 2 28.3 2 30 C2.99 30 3.98 30 5 30 C5 32.64 5 35.28 5 38 C-0.2521621 33.36401334 -1.43092848 25.71504397 -2 19 C-2.29363758 12.29221651 -2.30854884 6.34850932 0 0 Z " fill="#4F1BAD" transform="translate(7,38)"/>
<path d="M0 0 C0.33 0 0.66 0 1 0 C1.33 3.3 1.66 6.6 2 10 C2.69867188 9.65066406 3.39734375 9.30132812 4.1171875 8.94140625 C7.41145833 7.29427083 10.70572917 5.64713542 14 4 C13.34 5.65 12.68 7.3 12 9 C13.65 8.34 15.3 7.68 17 7 C13.24696721 11.20794586 10.21974892 13.16342168 5 15 C4.01 15 3.02 15 2 15 C2 14.34 2 13.68 2 13 C3.32 12.34 4.64 11.68 6 11 C4.5459375 11.2784375 4.5459375 11.2784375 3.0625 11.5625 C2.051875 11.706875 1.04125 11.85125 0 12 C-1 11 -1 11 -1.1328125 9.00390625 C-1.13023437 8.19824219 -1.12765625 7.39257812 -1.125 6.5625 C-1.12757813 5.75941406 -1.13015625 4.95632812 -1.1328125 4.12890625 C-1 2 -1 2 0 0 Z " fill="#4B0FA5" transform="translate(256,48)"/>
<path d="M0 0 C1.98 0.66 3.96 1.32 6 2 C6.1875 4.875 6.1875 4.875 6 8 C5.01 8.66 4.02 9.32 3 10 C3.66 7.69 4.32 5.38 5 3 C0.68430499 4.48817069 -0.06846267 7.05644462 -2 11 C-3.875 12.9375 -3.875 12.9375 -6 14 C-8.75 13.6875 -8.75 13.6875 -11 13 C-11 12.34 -11 11.68 -11 11 C-9.35546875 9.66796875 -9.35546875 9.66796875 -7.1875 8.1875 C-3.87342568 5.80019336 -1.77220598 3.76593771 0 0 Z " fill="#5015A5" transform="translate(48,34)"/>
<path d="M0 0 C0.33 0 0.66 0 1 0 C1.33 12.54 1.66 25.08 2 38 C2.66 38 3.32 38 4 38 C4.33 37.01 4.66 36.02 5 35 C5 35.66 5 36.32 5 37 C6.65 37.33 8.3 37.66 10 38 C10 39.32 10 40.64 10 42 C6.94557656 42.20825614 4.64902945 42.28604133 1.82128906 41.03979492 C-1.0473265 37.8270224 -0.49138623 34.26376264 -0.390625 30.17578125 C-0.38496521 29.31438034 -0.37930542 28.45297943 -0.37347412 27.56547546 C-0.3510813 24.81391852 -0.3008808 22.06366337 -0.25 19.3125 C-0.2299387 17.44728443 -0.21168728 15.58204845 -0.1953125 13.71679688 C-0.15120713 9.14402958 -0.08216057 4.5722355 0 0 Z " fill="#4D0CAC" transform="translate(310,33)"/>
<path d="M0 0 C0.66 0 1.32 0 2 0 C2.04898437 0.85464844 2.09796875 1.70929687 2.1484375 2.58984375 C2.22320312 3.69457031 2.29796875 4.79929687 2.375 5.9375 C2.44460938 7.03964844 2.51421875 8.14179687 2.5859375 9.27734375 C2.72257812 10.17582031 2.85921875 11.07429688 3 12 C3.66 12.33 4.32 12.66 5 13 C4.34 13 3.68 13 3 13 C3.33 15.97 3.66 18.94 4 22 C4.99 22 5.98 22 7 22 C7 22.66 7 23.32 7 24 C5.35 24 3.7 24 2 24 C0.22330777 20.93843346 -0.24050818 18.75963785 -0.1953125 15.234375 C-0.18886719 14.34492187 -0.18242187 13.45546875 -0.17578125 12.5390625 C-0.15902344 11.61867188 -0.14226562 10.69828125 -0.125 9.75 C-0.11597656 8.81414063 -0.10695313 7.87828125 -0.09765625 6.9140625 C-0.07413636 4.60911343 -0.04126853 2.3046884 0 0 Z " fill="#6008CB" transform="translate(455,49)"/>
<path d="M0 0 C0.33 0 0.66 0 1 0 C1.66 2.31 2.32 4.62 3 7 C3.33 4.69 3.66 2.38 4 0 C4.99 0.33 5.98 0.66 7 1 C6.773125 1.763125 6.54625 2.52625 6.3125 3.3125 C6.209375 4.199375 6.10625 5.08625 6 6 C7.33378575 7.8354799 7.33378575 7.8354799 9 9 C7.68 9.33 6.36 9.66 5 10 C11.25323049 11.20676378 14.35191493 10.93700423 20 8 C20.66 7.67 21.32 7.34 22 7 C21.04966507 9.37583732 20.42689775 10.73142194 18.23046875 12.11328125 C14.2556679 13.69345602 10.20464685 13.45584359 6 13 C1.48684211 10.97368421 1.48684211 10.97368421 0 8 C-0.13415472 5.3276379 -0.04318541 2.67749512 0 0 Z " fill="#4C119F" transform="translate(279,62)"/>
<path d="M0 0 C-3.16789693 1.75994274 -5.24364431 2.24872886 -9 3 C-9.66 7.29 -10.32 11.58 -11 16 C-11.99 16 -12.98 16 -14 16 C-15.42857143 7.42857143 -15.42857143 7.42857143 -13 4 C-12.34 4 -11.68 4 -11 4 C-10.67 3.01 -10.34 2.02 -10 1 C-6.58469988 -1.52985194 -3.99422541 -0.9077785 0 0 Z " fill="#6007CD" transform="translate(74,53)"/>
<path d="M0 0 C0.99 0.33 1.98 0.66 3 1 C2.67 1.33 2.34 1.66 2 2 C4.64 2.66 7.28 3.32 10 4 C9.67 4.66 9.34 5.32 9 6 C8.113125 5.79375 7.22625 5.5875 6.3125 5.375 C2.7747289 4.97449761 1.13367033 5.43316484 -2 7 C-2 6.34 -2 5.68 -2 5 C-2.99 5 -3.98 5 -5 5 C-5.33 12.59 -5.66 20.18 -6 28 C-6.33 28 -6.66 28 -7 28 C-7.14567407 24.43793278 -7.23419196 20.87663449 -7.3125 17.3125 C-7.35439453 16.30509766 -7.39628906 15.29769531 -7.43945312 14.25976562 C-7.56354085 6.74004956 -7.56354085 6.74004956 -4.60546875 2.85546875 C-2 1 -2 1 0 0 Z " fill="#4D0DA4" transform="translate(259,41)"/>
<path d="M0 0 C0.33 0 0.66 0 1 0 C1 2.64 1 5.28 1 8 C2.98 8 4.96 8 7 8 C7 8.66 7 9.32 7 10 C5.35 10.33 3.7 10.66 2 11 C2 11.99 2 12.98 2 14 C1.01 14 0.02 14 -1 14 C-0.67 17.3 -0.34 20.6 0 24 C-2.79170013 21.20829987 -3.16723649 18.73772437 -3.25 14.9375 C-3.21513273 9.63767461 -1.74172984 4.96600353 0 0 Z " fill="#5912B2" transform="translate(14,28)"/>
<path d="M0 0 C0.99 0.33 1.98 0.66 3 1 C3 1.99 3 2.98 3 4 C4.2065625 4.185625 4.2065625 4.185625 5.4375 4.375 C6.7059375 4.684375 6.7059375 4.684375 8 5 C8.33 5.66 8.66 6.32 9 7 C8.34 7 7.68 7 7 7 C6.67 9.97 6.34 12.94 6 16 C5.34 16 4.68 16 4 16 C4.33 14.35 4.66 12.7 5 11 C4.01 11 3.02 11 2 11 C2 9.35 2 7.7 2 6 C1.34 6 0.68 6 0 6 C0 4.02 0 2.04 0 0 Z " fill="#6209CE" transform="translate(7,57)"/>
<path d="M0 0 C0.66 0.33 1.32 0.66 2 1 C2 1.66 2 2.32 2 3 C7.08303686 3.11320856 7.08303686 3.11320856 12 2 C11.80859375 3.796875 11.80859375 3.796875 11 6 C8.78515625 7.703125 8.78515625 7.703125 6.0625 9.25 C5.16660156 9.77078125 4.27070312 10.2915625 3.34765625 10.828125 C1 12 1 12 -1 12 C-1 10 -1 10 0.5 8.375 C0.995 7.92125 1.49 7.4675 2 7 C1.484375 6.5875 0.96875 6.175 0.4375 5.75 C-0.036875 5.1725 -0.51125 4.595 -1 4 C-0.6875 1.8125 -0.6875 1.8125 0 0 Z " fill="#520CB4" transform="translate(33,47)"/>
<path d="M0 0 C0.99 0 1.98 0 3 0 C3.37145697 3.3195282 3.22917568 4.67163667 1.28515625 7.45703125 C0.55167969 8.23433594 -0.18179688 9.01164062 -0.9375 9.8125 C-1.66839844 10.60269531 -2.39929687 11.39289062 -3.15234375 12.20703125 C-5 14 -5 14 -6 14 C-5.5414571 8.26821381 -4.14522 4.14522 0 0 Z " fill="#530FB4" transform="translate(43,28)"/>
<path d="M0 0 C1.875 2.6875 1.875 2.6875 1.6875 5.5 C1.419375 6.221875 1.15125 6.94375 0.875 7.6875 C-0.115 7.6875 -1.105 7.6875 -2.125 7.6875 C-4.3125 4.6875 -4.3125 4.6875 -6.125 1.6875 C-5.135 1.6875 -4.145 1.6875 -3.125 1.6875 C-3.125 1.0275 -3.125 0.3675 -3.125 -0.3125 C-7.745 -0.9725 -12.365 -1.6325 -17.125 -2.3125 C-17.125 -2.6425 -17.125 -2.9725 -17.125 -3.3125 C-10.94795403 -5.30509548 -5.08213626 -3.76078084 0 0 Z " fill="#4B10A7" transform="translate(162.125,34.3125)"/>
<path d="M0 0 C6.93 0 13.86 0 21 0 C20.01 1.485 20.01 1.485 19 3 C17.12060547 3.34057617 17.12060547 3.34057617 14.8671875 3.29296875 C14.06152344 3.28330078 13.25585938 3.27363281 12.42578125 3.26367188 C11.58402344 3.23853516 10.74226562 3.21339844 9.875 3.1875 C9.02550781 3.17396484 8.17601562 3.16042969 7.30078125 3.14648438 C5.20025163 3.11108219 3.10004707 3.05727401 1 3 C0.67 2.01 0.34 1.02 0 0 Z " fill="#540CBE" transform="translate(220,50)"/>
<path d="M0 0 C1.9375 1.5 1.9375 1.5 3 3 C2.34 3 1.68 3 1 3 C0.67 3.66 0.34 4.32 0 5 C-1.85625 4.938125 -1.85625 4.938125 -3.75 4.875 C-7.01637962 4.86341709 -9.2146947 5.1431298 -12 7 C-13 4 -13 4 -13 1 C-8.60590108 0.14261484 -4.47621945 -0.33782788 0 0 Z " fill="#550BB9" transform="translate(360,41)"/>
<path d="M0 0 C2 1 4 2 6 3 C3.87717331 4.00460531 1.75166979 5.00355602 -0.375 6 C-2.15003906 6.8353125 -2.15003906 6.8353125 -3.9609375 7.6875 C-7 9 -7 9 -9 9 C-9 7.35 -9 5.7 -9 4 C-7.54618103 3.30300448 -6.08677047 2.61766134 -4.625 1.9375 C-3.40683594 1.36322266 -3.40683594 1.36322266 -2.1640625 0.77734375 C-1.44992187 0.52082031 -0.73578125 0.26429687 0 0 Z " fill="#4D0CAB" transform="translate(467,55)"/>
<path d="M0 0 C0.33 0 0.66 0 1 0 C1.02578125 1.134375 1.0515625 2.26875 1.078125 3.4375 C1.18756145 14.91884282 1.18756145 14.91884282 6 25 C8.42457955 26.21228978 10.27345151 26.580531 13 27 C12.04134491 24.66924071 12.04134491 24.66924071 9 23 C10.65 23.33 12.3 23.66 14 24 C14 25.32 14 26.64 14 28 C10.00329808 28.31346682 7.67325099 28.40395059 4.1875 26.3125 C-0.65623103 21.19198434 -0.25424603 15.85361258 -0.125 9.1875 C-0.11597656 8.30384766 -0.10695313 7.42019531 -0.09765625 6.50976562 C-0.07419637 4.33972641 -0.03832865 2.16982753 0 0 Z " fill="#481694" transform="translate(325,47)"/>
<path d="M0 0 C0.33 0 0.66 0 1 0 C1.03738281 1.24136719 1.07476562 2.48273437 1.11328125 3.76171875 C1.1789595 5.40367511 1.2454062 7.04560087 1.3125 8.6875 C1.33505859 9.50412109 1.35761719 10.32074219 1.38085938 11.16210938 C1.59068923 15.8737434 1.95335141 19.17675471 5 23 C7.06700655 24.32793606 7.06700655 24.32793606 9 25 C9 25.66 9 26.32 9 27 C5.625 26.6875 5.625 26.6875 2 26 C-0.23413013 22.64880481 -0.23847762 21.5822245 -0.1953125 17.67578125 C-0.18886719 16.64775391 -0.18242187 15.61972656 -0.17578125 14.56054688 C-0.15064453 12.95276367 -0.15064453 12.95276367 -0.125 11.3125 C-0.11597656 10.22904297 -0.10695313 9.14558594 -0.09765625 8.02929688 C-0.0740734 5.3526429 -0.04116126 2.67643203 0 0 Z " fill="#560FBA" transform="translate(329,47)"/>
<path d="M0 0 C2.475 0.495 2.475 0.495 5 1 C5 1.66 5 2.32 5 3 C11.435 2.505 11.435 2.505 18 2 C18 2.66 18 3.32 18 4 C13.06139861 6.02609288 8.28759487 6.87089798 3 6 C0.9375 4.125 0.9375 4.125 0 2 C0 1.34 0 0.68 0 0 Z " fill="#5A08C5" transform="translate(141,68)"/>
<path d="M0 0 C0.33 0 0.66 0 1 0 C1.60634482 9.80257458 0.63204513 17.84290508 -5.75 25.625 C-6.4925 26.40875 -7.235 27.1925 -8 28 C-8 24.09382567 -6.68215404 21.49370455 -5 18 C-4.34 17.67 -3.68 17.34 -3 17 C-2.36087308 14.13565596 -1.83055456 11.33120119 -1.375 8.4375 C-1.2409375 7.63119141 -1.106875 6.82488281 -0.96875 5.99414062 C-0.63792701 3.9973876 -0.31794962 1.9988433 0 0 Z " fill="#4C10A7" transform="translate(93,60)"/>
<path d="M0 0 C-0.33 0.66 -0.66 1.32 -1 2 C-2.32 2 -3.64 2 -5 2 C-5 2.99 -5 3.98 -5 5 C-5.99 5 -6.98 5 -8 5 C-8 7.64 -8 10.28 -8 13 C-8.99 12.34 -9.98 11.68 -11 11 C-11.50235639 7.12467931 -11.57171759 4.89187945 -9.4375 1.5625 C-6.18129203 -0.5248128 -3.79004984 -0.2915423 0 0 Z " fill="#550CBC" transform="translate(291,57)"/>
<path d="M0 0 C0.66 0 1.32 0 2 0 C2 5.61 2 11.22 2 17 C1.67 17 1.34 17 1 17 C1 14.36 1 11.72 1 9 C0.45730469 9.2165625 -0.08539063 9.433125 -0.64453125 9.65625 C-1.35996094 9.9346875 -2.07539063 10.213125 -2.8125 10.5 C-3.52019531 10.7784375 -4.22789062 11.056875 -4.95703125 11.34375 C-7 12 -7 12 -10 12 C-10 11.01 -10 10.02 -10 9 C-7.03 8.01 -4.06 7.02 -1 6 C-0.67 4.02 -0.34 2.04 0 0 Z " fill="#6107CF" transform="translate(425,47)"/>
<path d="M0 0 C0.99 0.33 1.98 0.66 3 1 C1.97427701 4.3051074 0.93092146 5.04006555 -2.125 6.8125 C-6.36538332 8.45163977 -9.60994022 7.98397892 -14 7 C-14.33 6.34 -14.66 5.68 -15 5 C-13.75283203 4.80083984 -13.75283203 4.80083984 -12.48046875 4.59765625 C-11.39378906 4.42105469 -10.30710937 4.24445313 -9.1875 4.0625 C-8.10855469 3.88847656 -7.02960938 3.71445313 -5.91796875 3.53515625 C-2.95066644 3.06128079 -2.95066644 3.06128079 0 2 C0 1.34 0 0.68 0 0 Z " fill="#580BC3" transform="translate(298,66)"/>
<path d="M0 0 C-0.11409593 1.45922693 -0.24165544 2.91740598 -0.375 4.375 C-0.44460937 5.18710937 -0.51421875 5.99921875 -0.5859375 6.8359375 C-1 9 -1 9 -3 11 C-3 9.02 -3 7.04 -3 5 C-6.26954202 5.56371414 -7.82575883 6.49962266 -10 9 C-10.66 8.34 -11.32 7.68 -12 7 C-10.70982586 6.01886757 -9.41780894 5.04015801 -8.125 4.0625 C-7.04605469 3.24458984 -7.04605469 3.24458984 -5.9453125 2.41015625 C-2.62049861 0 -2.62049861 0 0 0 Z " fill="#4B0FA6" transform="translate(44,57)"/>
<path d="M0 0 C0.33 0.66 0.66 1.32 1 2 C2.32 1.67 3.64 1.34 5 1 C4.03441599 3.54563057 3.06131195 4.94635204 1 6.75 C-3.32316179 8.55131741 -7.37873401 8.24227996 -12 8 C-12 7.67 -12 7.34 -12 7 C-7.71 6.34 -3.42 5.68 1 5 C1 4.34 1 3.68 1 3 C0.01 3.495 0.01 3.495 -1 4 C-2.87379605 4.07033769 -4.75001102 4.0843022 -6.625 4.0625 C-7.62789062 4.05347656 -8.63078125 4.04445313 -9.6640625 4.03515625 C-10.43492187 4.02355469 -11.20578125 4.01195313 -12 4 C-11.67 3.34 -11.34 2.68 -11 2 C-9.01432292 2.06510417 -7.02864583 2.13020833 -5.04296875 2.1953125 C-2.68640281 2.13254462 -2.68640281 2.13254462 0 0 Z " fill="#470EA1" transform="translate(158,67)"/>
<path d="M0 0 C4.62 0 9.24 0 14 0 C14.26785714 12.32142857 14.26785714 12.32142857 12 16 C11.01 16 10.02 16 9 16 C9.22816406 15.40832031 9.45632812 14.81664063 9.69140625 14.20703125 C9.97886719 13.41683594 10.26632813 12.62664062 10.5625 11.8125 C10.85253906 11.03519531 11.14257812 10.25789063 11.44140625 9.45703125 C12.27075855 6.58310881 12.27075855 6.58310881 11 2 C7.37 1.67 3.74 1.34 0 1 C0 0.67 0 0.34 0 0 Z " fill="#5E0ACB" transform="translate(150,53)"/>
<path d="M0 0 C3.12482562 -0.08687496 6.24934246 -0.14034568 9.375 -0.1875 C10.70917969 -0.22520508 10.70917969 -0.22520508 12.0703125 -0.26367188 C13.34648438 -0.27817383 13.34648438 -0.27817383 14.6484375 -0.29296875 C15.82672119 -0.31653442 15.82672119 -0.31653442 17.02880859 -0.34057617 C17.67930176 -0.22818604 18.32979492 -0.1157959 19 0 C19.66 0.99 20.32 1.98 21 3 C14.4 2.67 7.8 2.34 1 2 C0.67 1.34 0.34 0.68 0 0 Z " fill="#5812C0" transform="translate(44,0)"/>
<path d="M0 0 C1.485 0.2475 1.485 0.2475 3 0.5 C8.73097366 1.31208129 14.34279853 1.41430037 20 0 C20 0.33 20 0.66 20 1 C22.475 1.495 22.475 1.495 25 2 C25 2.33 25 2.66 25 3 C16.27249433 3.94282543 8.55364922 4.11222766 0 2 C0 1.34 0 0.68 0 0 Z " fill="#4D289A" transform="translate(38,97)"/>
<path d="M0 0 C0 0.66 0 1.32 0 2 C-2.64 2.66 -5.28 3.32 -8 4 C-8.33 5.32 -8.66 6.64 -9 8 C-10.32 7.67 -11.64 7.34 -13 7 C-12.67 5.35 -12.34 3.7 -12 2 C-7.82262526 0.40861915 -4.46839215 -0.21278058 0 0 Z " fill="#540EB8" transform="translate(293,42)"/>
<path d="M0 0 C0.99 0 1.98 0 3 0 C2.62671065 5.35048061 1.0042343 7.50912907 -3 11 C-3.66 10.67 -4.32 10.34 -5 10 C-4.54857119 8.70590408 -4.08858979 7.41478941 -3.625 6.125 C-3.36976562 5.40570313 -3.11453125 4.68640625 -2.8515625 3.9453125 C-2 2 -2 2 0 0 Z " fill="#49149F" transform="translate(69,28)"/>
<path d="M0 0 C2.0625 0.4375 2.0625 0.4375 4 1 C3.01 1.33 2.02 1.66 1 2 C0.67 4.97 0.34 7.94 0 11 C-1.32 11.33 -2.64 11.66 -4 12 C-4.33 12.66 -4.66 13.32 -5 14 C-3.68 14.33 -2.36 14.66 -1 15 C-2.98 15 -4.96 15 -7 15 C-7.5625 13.0625 -7.5625 13.0625 -8 11 C-7 10 -7 10 -3.9375 9.9375 C-2.4834375 9.9684375 -2.4834375 9.9684375 -1 10 C-1.01160156 9.36191406 -1.02320313 8.72382812 -1.03515625 8.06640625 C-1.04417969 7.24011719 -1.05320312 6.41382813 -1.0625 5.5625 C-1.07410156 4.73878906 -1.08570313 3.91507813 -1.09765625 3.06640625 C-1 1 -1 1 0 0 Z " fill="#491D9A" transform="translate(326,31)"/>
<path d="M0 0 C-0.33 0.66 -0.66 1.32 -1 2 C-6.61 2 -12.22 2 -18 2 C-17.67 1.34 -17.34 0.68 -17 0 C-13.9453125 -0.44921875 -13.9453125 -0.44921875 -10.125 -0.6875 C-8.86945312 -0.77386719 -7.61390625 -0.86023438 -6.3203125 -0.94921875 C-3 -1 -3 -1 0 0 Z " fill="#5C15C3" transform="translate(63,104)"/>
<path d="M0 0 C0 1.32 0 2.64 0 4 C-0.61875 4.103125 -1.2375 4.20625 -1.875 4.3125 C-4.36526484 4.87525373 -4.36526484 4.87525373 -6 8 C-6.99 7.67 -7.98 7.34 -9 7 C-8.67 5.35 -8.34 3.7 -8 2 C-2.25 0 -2.25 0 0 0 Z " fill="#6508CE" transform="translate(39,66)"/>
<path d="M0 0 C0 5.61 0 11.22 0 17 C-2.85793316 14.14206684 -2.40799941 11.85334416 -2.625 7.875 C-2.69976562 6.59367187 -2.77453125 5.31234375 -2.8515625 3.9921875 C-2.90054688 3.00476562 -2.94953125 2.01734375 -3 1 C-1 0 -1 0 0 0 Z " fill="#5312B3" transform="translate(106,45)"/>
<path d="M0 0 C0.66 0 1.32 0 2 0 C3.1875 2.0625 3.1875 2.0625 4 5 C2.9375 8.75 2.9375 8.75 1 12 C-1.6875 12.9375 -1.6875 12.9375 -4 13 C-3.67 11.68 -3.34 10.36 -3 9 C-2.01 9 -1.02 9 0 9 C0 6.03 0 3.06 0 0 Z " fill="#5C0BC8" transform="translate(472,45)"/>
<path d="M0 0 C0.33 1.65 0.66 3.3 1 5 C-3.455 5.495 -3.455 5.495 -8 6 C-8 5.34 -8 4.68 -8 4 C-7.01 3.67 -6.02 3.34 -5 3 C-6.32 2.34 -7.64 1.68 -9 1 C-6.04335481 -0.4783226 -3.25770263 -0.06032783 0 0 Z " fill="#490FA0" transform="translate(450,41)"/>
<path d="M0 0 C0.625 1.8125 0.625 1.8125 1 4 C-1 7 -1 7 -4 8 C-5.82859013 8.16798795 -7.66430827 8.26562078 -9.5 8.3125 C-10.4590625 8.34988281 -11.418125 8.38726562 -12.40625 8.42578125 C-15 8 -15 8 -16.84375 5.98046875 C-17.2253125 5.32691406 -17.606875 4.67335938 -18 4 C-17.43152344 4.3196875 -16.86304688 4.639375 -16.27734375 4.96875 C-12.56116826 6.65154645 -8.9834907 6.85056741 -5 6 C-2.7187132 4.19179111 -1.60714789 2.48848705 0 0 Z " fill="#600BCC" transform="translate(426,65)"/>
<path d="M0 0 C2.48426514 0.44361878 3.84225951 0.86439853 5.78125 2.53125 C8.61881435 4.40963767 10.3820711 4.30778317 13.75 4.1875 C14.73484375 4.16042969 15.7196875 4.13335937 16.734375 4.10546875 C17.48203125 4.07066406 18.2296875 4.03585938 19 4 C19 4.66 19 5.32 19 6 C6.44831406 6.76431105 6.44831406 6.76431105 2.95703125 4.921875 C0 1.90414223 0 1.90414223 0 0 Z " fill="#5D0BC9" transform="translate(377,67)"/>
<path d="M0 0 C0.66 0 1.32 0 2 0 C2 1.65 2 3.3 2 5 C-0.97 5.66 -3.94 6.32 -7 7 C-7.66 5.68 -8.32 4.36 -9 3 C-4.545 2.505 -4.545 2.505 0 2 C0 1.34 0 0.68 0 0 Z " fill="#6309CD" transform="translate(73,68)"/>
<path d="M0 0 C2.31 0 4.62 0 7 0 C7.33 1.65 7.66 3.3 8 5 C5.03 5 2.06 5 -1 5 C-0.67 4.34 -0.34 3.68 0 3 C0.99 3 1.98 3 3 3 C3 2.34 3 1.68 3 1 C2.01 0.67 1.02 0.34 0 0 Z " fill="#4C11A6" transform="translate(331,41)"/>
<path d="M0 0 C0.58265625 0.21527344 1.1653125 0.43054687 1.765625 0.65234375 C-0.81222346 3.29986379 -3.15085598 5.5966644 -6.234375 7.65234375 C-6.564375 6.99234375 -6.894375 6.33234375 -7.234375 5.65234375 C-7.894375 5.32234375 -8.554375 4.99234375 -9.234375 4.65234375 C-8.16330383 3.78285058 -7.07691556 2.9322017 -5.984375 2.08984375 C-5.38109375 1.61417969 -4.7778125 1.13851562 -4.15625 0.6484375 C-2.234375 -0.34765625 -2.234375 -0.34765625 0 0 Z " fill="#48149D" transform="translate(62.234375,46.34765625)"/>
<path d="M0 0 C2.2477975 2.05233685 3.0022242 3.00667261 4 6 C4.06740865 7.56118428 4.08514456 9.1250252 4.0625 10.6875 C4.05347656 11.49574219 4.04445313 12.30398437 4.03515625 13.13671875 C4.02355469 13.75160156 4.01195313 14.36648437 4 15 C2.68 14.67 1.36 14.34 0 14 C0.33 13.01 0.66 12.02 1 11 C1.66 11 2.32 11 3 11 C3 10.01 3 9.02 3 8 C2.34 8 1.68 8 1 8 C0.67 5.36 0.34 2.72 0 0 Z " fill="#570CB5" transform="translate(94,30)"/>
<path d="M0 0 C1.231394 3.69418201 0.64432764 6.2056261 0 10 C2.31 9.34 4.62 8.68 7 8 C6.01 9.485 6.01 9.485 5 11 C2 11.3125 2 11.3125 -1 11 C-1.66 10.34 -2.32 9.68 -3 9 C-2.67582137 5.19090105 -2.14418558 3.21627837 0 0 Z " fill="#4D12A4" transform="translate(31,65)"/>
<path d="M0 0 C1.33333333 2.66666667 2.66666667 5.33333333 4 8 C2.68 7.67 1.36 7.34 0 7 C0.66 8.65 1.32 10.3 2 12 C-2.8 8.67692308 -2.8 8.67692308 -3.8125 5.25 C-3.874375 4.5075 -3.93625 3.765 -4 3 C-3.01 3.495 -3.01 3.495 -2 4 C-2 4.66 -2 5.32 -2 6 C-1.34 6 -0.68 6 0 6 C0 4.02 0 2.04 0 0 Z " fill="#4A10A2" transform="translate(141,61)"/>
<path d="M0 0 C0.08096803 1.45742463 0.13917774 2.91612807 0.1875 4.375 C0.22230469 5.18710938 0.25710937 5.99921875 0.29296875 6.8359375 C0.19628906 7.55007812 0.09960938 8.26421875 0 9 C-0.99 9.66 -1.98 10.32 -3 11 C-4.23666047 7.42742531 -3.89093449 4.64473199 -3 1 C-1 0 -1 0 0 0 Z " fill="#620ACC" transform="translate(52,59)"/>
<path d="M0 0 C0 0.99 0 1.98 0 3 C0.99 3.33 1.98 3.66 3 4 C1.576875 4.86625 1.576875 4.86625 0.125 5.75 C-2.76134098 7.82816551 -3.84095741 8.75468075 -5 12 C-5.33 10.02 -5.66 8.04 -6 6 C-5.01 5.67 -4.02 5.34 -3 5 C-2.67 4.34 -2.34 3.68 -2 3 C-2.99 2.67 -3.98 2.34 -5 2 C-2 0 -2 0 0 0 Z " fill="#4D0FA3" transform="translate(415,56)"/>
<path d="M0 0 C0.99 0.33 1.98 0.66 3 1 C3 4.3 3 7.6 3 11 C1.35 11.66 -0.3 12.32 -2 13 C-1.67 12.34 -1.34 11.68 -1 11 C0.28687011 7.13938967 0.13757618 4.05849717 0 0 Z " fill="#5D0BCB" transform="translate(270,44)"/>
<path d="M0 0 C1.04449911 3.13349732 0.93423645 3.98968256 0 7 C-0.66 7 -1.32 7 -2 7 C-2 12.28 -2 17.56 -2 23 C-2.33 23 -2.66 23 -3 23 C-3.05416741 20.27056463 -3.09375225 17.54221436 -3.125 14.8125 C-3.14175781 14.04357422 -3.15851563 13.27464844 -3.17578125 12.48242188 C-3.21254316 8.19965944 -3.03742246 4.88619469 -1 1 C-0.67 0.67 -0.34 0.34 0 0 Z " fill="#5D13C6" transform="translate(3,37)"/>
<path d="M0 0 C0.66 0 1.32 0 2 0 C2.35471906 3.07423183 2.52666346 5.94008528 2 9 C-2.48780488 13 -2.48780488 13 -6 13 C-6 12.34 -6 11.68 -6 11 C-5.195625 10.62875 -4.39125 10.2575 -3.5625 9.875 C-0.86762813 8.30777176 -0.86762813 8.30777176 -0.4453125 6.02734375 C-0.21238262 4.02626435 -0.09895862 2.01215861 0 0 Z " fill="#4D13A2" transform="translate(59,34)"/>
<path d="M0 0 C0.99 0.66 1.98 1.32 3 2 C2.00419922 2.07347656 2.00419922 2.07347656 0.98828125 2.1484375 C-5.7112236 2.71125812 -5.7112236 2.71125812 -12 5 C-11.67 3.68 -11.34 2.36 -11 1 C-7.31233808 -0.18005182 -3.84889483 -0.20993972 0 0 Z " fill="#5E0BC8" transform="translate(392,32)"/>
<path d="M0 0 C1.2065625 0.0309375 1.2065625 0.0309375 2.4375 0.0625 C1.4375 3.0625 1.4375 3.0625 -0.5625 5.0625 C-1.25998583 6.37997324 -1.93209957 7.71164193 -2.5625 9.0625 C-3.5625 8.0625 -3.5625 8.0625 -3.6875 4.5625 C-3.52762642 0.08603967 -3.52762642 0.08603967 0 0 Z " fill="#590CC0" transform="translate(410.5625,58.9375)"/>
<path d="M0 0 C0.33 0 0.66 0 1 0 C1 5.61 1 11.22 1 17 C1.66 17 2.32 17 3 17 C3.33 17.99 3.66 18.98 4 20 C3.01 20.33 2.02 20.66 1 21 C-0.17426264 18.65147472 -0.11508173 17.26225935 -0.09765625 14.6484375 C-0.09443359 13.79765625 -0.09121094 12.946875 -0.08789062 12.0703125 C-0.07951172 11.18085937 -0.07113281 10.29140625 -0.0625 9.375 C-0.05798828 8.4778125 -0.05347656 7.580625 -0.04882812 6.65625 C-0.03702591 4.43743352 -0.02056155 2.21874982 0 0 Z " fill="#6509D0" transform="translate(217,33)"/>
<path d="M0 0 C-0.66 2.97 -1.32 5.94 -2 9 C-2.33 9 -2.66 9 -3 9 C-3.33 6.69 -3.66 4.38 -4 2 C-5.98 2.99 -5.98 2.99 -8 4 C-8 3.01 -8 2.02 -8 1 C-2.25 0 -2.25 0 0 0 Z " fill="#5C0FBF" transform="translate(34,30)"/>
<path d="M0 0 C0.33 0.99 0.66 1.98 1 3 C1.99 3.33 2.98 3.66 4 4 C2.625 5.5 2.625 5.5 1 7 C0.34 7 -0.32 7 -1 7 C-1 6.34 -1 5.68 -1 5 C-2.98 5.99 -2.98 5.99 -5 7 C-3.70700306 4.11562221 -2.34058637 2.12780579 0 0 Z " fill="#4E0CA6" transform="translate(380,33)"/>
<path d="M0 0 C0.99 0 1.98 0 3 0 C3 2.64 3 5.28 3 8 C1.68 8 0.36 8 -1 8 C-1.04241723 5.66705225 -1.04092937 3.33297433 -1 1 C-0.67 0.67 -0.34 0.34 0 0 Z " fill="#570BB5" transform="translate(327,32)"/>
<path d="M0 0 C0.33 0.99 0.66 1.98 1 3 C-5.625 6 -5.625 6 -9 6 C-9 5.01 -9 4.02 -9 3 C-6.03 2.01 -3.06 1.02 0 0 Z " fill="#5A08C6" transform="translate(424,53)"/>
<path d="M0 0 C0.33 0.99 0.66 1.98 1 3 C-0.32 3.99 -1.64 4.98 -3 6 C-5 5 -5 5 -8 3 C-7.67 2.34 -7.34 1.68 -7 1 C-4.67843403 0.59270772 -2.3431213 0.25561323 0 0 Z " fill="#461799" transform="translate(44,49)"/>
<path d="M0 0 C2 3 2 3 2 7 C2.99 7 3.98 7 5 7 C5 7.66 5 8.32 5 9 C3.35 9 1.7 9 0 9 C-1.10844919 5.67465243 -0.84454356 3.37817425 0 0 Z " fill="#5A0CBA" transform="translate(457,64)"/>
<path d="M0 0 C0.7425 0.0825 1.485 0.165 2.25 0.25 C1.25 3.25 1.25 3.25 -0.5625 4.5 C-3.08943414 5.36637742 -4.27221994 5.13492145 -6.75 4.25 C-3.42692308 0.31153846 -3.42692308 0.31153846 0 0 Z " fill="#560ABB" transform="translate(37.75,69.75)"/>
<path d="M0 0 C0.80050781 0.22042969 1.60101563 0.44085938 2.42578125 0.66796875 C3.23402344 0.88066406 4.04226562 1.09335937 4.875 1.3125 C5.79732422 1.58126953 5.79732422 1.58126953 6.73828125 1.85546875 C2.35819682 4.44011317 -0.37296988 3.67026023 -5.26171875 2.85546875 C-2.89519796 -0.18501265 -2.89519796 -0.18501265 0 0 Z " fill="#430D9A" transform="translate(66.26171875,1.14453125)"/>
<path d="M0 0 C0.54140625 0.14308594 1.0828125 0.28617187 1.640625 0.43359375 C4.32992832 1.07920465 7.02745245 1.5763308 9.75 2.0625 C10.73484375 2.23910156 11.7196875 2.41570312 12.734375 2.59765625 C13.85585938 2.79681641 13.85585938 2.79681641 15 3 C15 3.33 15 3.66 15 4 C4.84682713 4.63019694 4.84682713 4.63019694 1.3125 2 C0.879375 1.34 0.44625 0.68 0 0 Z " fill="#4A1397" transform="translate(407,71)"/>
<path d="M0 0 C1.32 0.33 2.64 0.66 4 1 C3.67 2.32 3.34 3.64 3 5 C0.03 4.505 0.03 4.505 -3 4 C-2.01 2.68 -1.02 1.36 0 0 Z " fill="#5B0ACE" transform="translate(71,61)"/>
<path d="M0 0 C0.66 0.33 1.32 0.66 2 1 C1.59007812 1.47050781 1.18015625 1.94101562 0.7578125 2.42578125 C-0.05042969 3.35970703 -0.05042969 3.35970703 -0.875 4.3125 C-1.40867187 4.92738281 -1.94234375 5.54226562 -2.4921875 6.17578125 C-4.1640447 8.13498212 -4.1640447 8.13498212 -6 11 C-6.40060526 7.49470398 -6.15413141 6.2260594 -4.125 3.25 C-2 1 -2 1 0 0 Z " fill="#4911A0" transform="translate(30,59)"/>
<path d="M0 0 C-0.33 0.66 -0.66 1.32 -1 2 C-3.5625 2.625 -3.5625 2.625 -6 3 C-6 2.67 -6 2.34 -6 2 C-8.97 1.505 -8.97 1.505 -12 1 C-12 0.67 -12 0.34 -12 0 C-7.6835078 -0.76173392 -4.25566547 -1.16063604 0 0 Z " fill="#4D15AA" transform="translate(54,6)"/>
<path d="M0 0 C1.2065625 0.0309375 1.2065625 0.0309375 2.4375 0.0625 C2.1075 0.7225 1.7775 1.3825 1.4375 2.0625 C0.4475 2.0625 -0.5425 2.0625 -1.5625 2.0625 C-1.5625 3.0525 -1.5625 4.0425 -1.5625 5.0625 C-2.8825 5.0625 -4.2025 5.0625 -5.5625 5.0625 C-3.15007962 0.07683121 -3.15007962 0.07683121 0 0 Z " fill="#5B0DC3" transform="translate(413.5625,42.9375)"/>
<path d="M0 0 C0.33 0.99 0.66 1.98 1 3 C0.01 3.99 -0.98 4.98 -2 6 C-2.33 5.01 -2.66 4.02 -3 3 C-3.99 3 -4.98 3 -6 3 C-3.375 0 -3.375 0 0 0 Z " fill="#45129A" transform="translate(402,64)"/>
<path d="M0 0 C0.7425 0.0825 1.485 0.165 2.25 0.25 C1.92 0.91 1.59 1.57 1.25 2.25 C-0.07 2.25 -1.39 2.25 -2.75 2.25 C-2.75 3.24 -2.75 4.23 -2.75 5.25 C-4.07 4.92 -5.39 4.59 -6.75 4.25 C-3.42692308 0.31153846 -3.42692308 0.31153846 0 0 Z " fill="#5C0AC5" transform="translate(288.75,56.75)"/>
<path d="M0 0 C0.99 0.33 1.98 0.66 3 1 C2.67 2.32 2.34 3.64 2 5 C-0.64 5 -3.28 5 -6 5 C-5.67 4.34 -5.34 3.68 -5 3 C-3.66666667 2.66666667 -2.33333333 2.33333333 -1 2 C-0.67 1.34 -0.34 0.68 0 0 Z " fill="#5B08C3" transform="translate(74,40)"/>
<path d="M0 0 C2.62386487 3.06117568 3 3.73173127 3 8 C1.68 7.34 0.36 6.68 -1 6 C-1.042721 4.33388095 -1.04063832 2.66617115 -1 1 C-0.67 0.67 -0.34 0.34 0 0 Z " fill="#4C1B9D" transform="translate(30,34)"/>
<path d="M0 0 C0.99 0.33 1.98 0.66 3 1 C1.875 3 1.875 3 0 5 C-3.1875 5.25 -3.1875 5.25 -6 5 C-5.195625 4.360625 -4.39125 3.72125 -3.5625 3.0625 C-1.7249496 1.59396498 -1.7249496 1.59396498 0 0 Z " fill="#5B0BCC" transform="translate(472,68)"/>
<path d="M0 0 C0.33 0 0.66 0 1 0 C1 3.96 1 7.92 1 12 C0.01 11.67 -0.98 11.34 -2 11 C-1.34 7.37 -0.68 3.74 0 0 Z " fill="#510BB0" transform="translate(93,60)"/>
<path d="M0 0 C1.0625 1.8125 1.0625 1.8125 2 4 C1.67 4.99 1.34 5.98 1 7 C0.01 6.67 -0.98 6.34 -2 6 C-1.49396008 3.83125748 -1.00016187 2.00032373 0 0 Z " fill="#49149C" transform="translate(104,39)"/>
<path d="M0 0 C0.33 0.99 0.66 1.98 1 3 C0.67 3.66 0.34 4.32 0 5 C0.66 5.33 1.32 5.66 2 6 C0.68 6.99 -0.64 7.98 -2 9 C-1.125 2.25 -1.125 2.25 0 0 Z " fill="#501E9D" transform="translate(39,33)"/>
</svg>
