<?xml version="1.0" encoding="UTF-8"?>
<svg version="1.1" xmlns="http://www.w3.org/2000/svg" width="270" height="132">
<path d="M0 0 C1.32 0 2.64 0 4 0 C5.98 5.94 7.96 11.88 10 18 C10.495 9.09 10.495 9.09 11 0 C11.99 0 12.98 0 14 0 C14 10.89 14 21.78 14 33 C12.68 32.67 11.36 32.34 10 32 C8.86382681 29.41371104 8.02971713 27.12427994 7.25 24.4375 C6.5075 21.983125 5.765 19.52875 5 17 C4.67 22.28 4.34 27.56 4 33 C2.68 33 1.36 33 0 33 C0 22.11 0 11.22 0 0 Z " fill="#020202" transform="translate(37,41)"/>
<path d="M0 0 C1.32 0 2.64 0 4 0 C4.33 9.57 4.66 19.14 5 29 C6.32 29 7.64 29 9 29 C9.33 19.43 9.66 9.86 10 0 C11.32 0 12.64 0 14 0 C14.0990914 4.05664947 14.17157106 8.1128277 14.21972656 12.17041016 C14.23980642 13.5497668 14.26707666 14.92903869 14.30175781 16.30810547 C14.35042817 18.29356979 14.37086418 20.27966254 14.390625 22.265625 C14.41157227 23.45961914 14.43251953 24.65361328 14.45410156 25.88378906 C14 29 14 29 12.16308594 31.38964844 C10 33 10 33 7 33.5 C3.25451102 32.87575184 2.29632293 31.98729517 0 29 C-0.45410156 25.88378906 -0.45410156 25.88378906 -0.390625 22.265625 C-0.37773438 20.97011719 -0.36484375 19.67460938 -0.3515625 18.33984375 C-0.31814366 16.97655176 -0.28428391 15.61327051 -0.25 14.25 C-0.22992707 12.87111936 -0.21167767 11.49221088 -0.1953125 10.11328125 C-0.14815448 6.74148256 -0.08234538 3.37109313 0 0 Z " fill="#020202" transform="translate(100,41)"/>
<path d="M0 0 C1.32 0 2.64 0 4 0 C5.32 6.6 6.64 13.2 8 20 C9.32 13.4 10.64 6.8 12 0 C13.32 0 14.64 0 16 0 C15.33020896 7.32150894 13.98329403 14.37910423 12.4375 21.5625 C12.20353516 22.66658203 11.96957031 23.77066406 11.72851562 24.90820312 C11.15618938 27.60631255 10.57993998 30.30351875 10 33 C8.68 33 7.36 33 6 33 C5.14180668 28.78321236 4.28741212 24.56567827 3.43652344 20.34741211 C3.14655065 18.91263064 2.8555424 17.47805804 2.56347656 16.04370117 C2.14375513 13.98149843 1.72776795 11.91857229 1.3125 9.85546875 C1.06113281 8.61434326 0.80976563 7.37321777 0.55078125 6.09448242 C0 3 0 3 0 0 Z " fill="#010101" transform="translate(214,41)"/>
<path d="M0 0 C3.63 0 7.26 0 11 0 C11 1.32 11 2.64 11 4 C8.69 4 6.38 4 4 4 C4 7.3 4 10.6 4 14 C6.31 14 8.62 14 11 14 C11 15.32 11 16.64 11 18 C8.69 18 6.38 18 4 18 C4 21.96 4 25.92 4 30 C6.31 30 8.62 30 11 30 C11 30.99 11 31.98 11 33 C7.37 33 3.74 33 0 33 C0 22.11 0 11.22 0 0 Z " fill="#020202" transform="translate(247,40)"/>
<path d="M0 0 C4.62 0 9.24 0 14 0 C14 1.32 14 2.64 14 4 C12.35 4 10.7 4 9 4 C9 13.57 9 23.14 9 33 C7.68 33 6.36 33 5 33 C5 23.43 5 13.86 5 4 C3.35 4 1.7 4 0 4 C0 2.68 0 1.36 0 0 Z " fill="#010101" transform="translate(158,41)"/>
<path d="M0 0 C4.62 0 9.24 0 14 0 C14 1.32 14 2.64 14 4 C12.35 4 10.7 4 9 4 C9 13.57 9 23.14 9 33 C7.68 33 6.36 33 5 33 C5 23.43 5 13.86 5 4 C3.35 4 1.7 4 0 4 C0 2.68 0 1.36 0 0 Z " fill="#010101" transform="translate(68,41)"/>
<path d="M0 0 C1.8125 1.1875 1.8125 1.1875 3 3 C3.53852618 6.61581862 3.42236225 8.34111489 1.4375 11.4375 C-1 13 -1 13 -4.625 12.875 C-8 12 -8 12 -10 10 C-10.57142857 4.85714286 -10.57142857 4.85714286 -10 2 C-6.69498834 -1.11615385 -4.23159178 -1.5590075 0 0 Z " fill="#F9BC0B" transform="translate(141,19)"/>
<path d="M0 0 C1.32 0 2.64 0 4 0 C4 10.89 4 21.78 4 33 C2.68 33 1.36 33 0 33 C0 22.11 0 11.22 0 0 Z " fill="#010101" transform="translate(191,41)"/>
<path d="M0 0 C1.32 0 2.64 0 4 0 C4 10.89 4 21.78 4 33 C2.68 33 1.36 33 0 33 C0 22.11 0 11.22 0 0 Z " fill="#000000" transform="translate(135,41)"/>
<path d="M0 0 C1.32 0 2.64 0 4 0 C4 10.89 4 21.78 4 33 C2.68 33 1.36 33 0 33 C0 22.11 0 11.22 0 0 Z " fill="#010101" transform="translate(14,41)"/>
<path d="M0 0 C1.423125 -0.061875 2.84625 -0.12375 4.3125 -0.1875 C5.51326172 -0.23970703 5.51326172 -0.23970703 6.73828125 -0.29296875 C9 0 9 0 10.81640625 1.234375 C12.38492527 3.57421195 12.1143911 4.69967995 11.625 7.4375 C11.07024705 10.65180385 11.01640557 12.8710293 12 16 C10.68 15.67 9.36 15.34 8 15 C7.67 13.35 7.34 11.7 7 10 C5.68 10 4.36 10 3 10 C3 11.98 3 13.96 3 16 C2.01 16 1.02 16 0 16 C0 10.72 0 5.44 0 0 Z M3 3 C3 4.32 3 5.64 3 7 C4.98 7 6.96 7 9 7 C8.67 5.68 8.34 4.36 8 3 C6.35 3 4.7 3 3 3 Z " fill="#020202" transform="translate(106,99)"/>
<path d="M0 0 C3.375 1.0625 3.375 1.0625 4.8125 3.125 C5.0909375 4.0840625 5.0909375 4.0840625 5.375 5.0625 C4.385 5.3925 3.395 5.7225 2.375 6.0625 C2.045 5.4025 1.715 4.7425 1.375 4.0625 C-0.275 4.3925 -1.925 4.7225 -3.625 5.0625 C-3.625 7.3725 -3.625 9.6825 -3.625 12.0625 C-2.305 12.3925 -0.985 12.7225 0.375 13.0625 C1.035 12.0725 1.695 11.0825 2.375 10.0625 C1.055 10.0625 -0.265 10.0625 -1.625 10.0625 C-1.625 9.4025 -1.625 8.7425 -1.625 8.0625 C0.685 8.0625 2.995 8.0625 5.375 8.0625 C5.375 10.7025 5.375 13.3425 5.375 16.0625 C-0.86659797 17.40872701 -0.86659797 17.40872701 -4.5 15.75 C-6.625 14.0625 -6.625 14.0625 -7.625 12.0625 C-8.00515586 8.03284784 -7.94731584 5.68134641 -6.0625 2.0625 C-3.625 0.0625 -3.625 0.0625 0 0 Z " fill="#040404" transform="translate(133.625,98.9375)"/>
<path d="M0 0 C1.875 1.375 1.875 1.375 3 3 C3 3.66 3 4.32 3 5 C0.36 4.67 -2.28 4.34 -5 4 C-2.77077045 6.22922955 -0.90864722 6.88128953 2 8 C3 9 3 9 3.375 11.375 C3 14 3 14 0.875 15.9375 C-2 17 -2 17 -5.25 16.4375 C-8 15 -8 15 -8.875 12.875 C-8.936875 11.946875 -8.936875 11.946875 -9 11 C-8.13375 11.495 -8.13375 11.495 -7.25 12 C-4.80116138 13.27075898 -4.80116138 13.27075898 -1 13 C-0.67 12.01 -0.34 11.02 0 10 C-1.11375 9.896875 -2.2275 9.79375 -3.375 9.6875 C-5.169375 9.3471875 -5.169375 9.3471875 -7 9 C-9 6 -9 6 -8.75 3.375 C-8.5025 2.59125 -8.255 1.8075 -8 1 C-5.20129973 -0.39935013 -3.09501208 -0.25265405 0 0 Z " fill="#040404" transform="translate(74,99)"/>
<path d="M0 0 C1.8125 1.0625 1.8125 1.0625 3 3 C3.3125 6.5625 3.3125 6.5625 3 10 C1 12 1 12 -2.4375 12.3125 C-6 12 -6 12 -8 10.9375 C-9.63378851 7.77203476 -8.85267564 5.34979714 -8 2 C-4.76746204 -0.15502531 -3.74849077 -0.46856135 0 0 Z M0 4 C0 5.65 0 7.3 0 9 C0.33 9 0.66 9 1 9 C1 7.35 1 5.7 1 4 C0.67 4 0.34 4 0 4 Z M-7 5 C-6 8 -6 8 -6 8 Z M-4 7 C-4 7.99 -4 8.98 -4 10 C-3.34 9.67 -2.68 9.34 -2 9 C-2.66 8.34 -3.32 7.68 -4 7 Z " fill="#030303" transform="translate(220,89)"/>
<path d="M0 0 C0.99 0 1.98 0 3 0 C3.33 4.29 3.66 8.58 4 13 C5.32 13 6.64 13 8 13 C8.33 8.71 8.66 4.42 9 0 C9.99 0 10.98 0 12 0 C12.05423638 1.91635217 12.09289963 3.83314925 12.125 5.75 C12.14820312 6.81734375 12.17140625 7.8846875 12.1953125 8.984375 C12.00316272 11.95116764 11.66763101 13.56708627 10 16 C7.131446 17.05683569 5.63685855 17.2299767 2.75 16.1875 C1 15 1 15 0 13 C-0.07092842 10.7927077 -0.08415025 8.58332548 -0.0625 6.375 C-0.05347656 5.18648438 -0.04445313 3.99796875 -0.03515625 2.7734375 C-0.02355469 1.85820313 -0.01195313 0.94296875 0 0 Z " fill="#030303" transform="translate(85,99)"/>
<path d="M0 0 C0.33 1.65 0.66 3.3 1 5 C0.01 4.67 -0.98 4.34 -2 4 C-2 3.34 -2 2.68 -2 2 C-3.65 2.66 -5.3 3.32 -7 4 C-7.20970559 8.14093698 -7.20970559 8.14093698 -6 12 C-4.02463255 11.65213292 -4.02463255 11.65213292 -2 11 C-1.67 10.34 -1.34 9.68 -1 9 C-0.01 9.33 0.98 9.66 2 10 C0.5404686 12.99588024 -0.31429012 14.67519006 -3.375 16.125 C-6 16 -6 16 -8.8125 14 C-11.5085907 10.30250418 -11.57084971 8.48524773 -11 4 C-8.79511535 -1.9846869 -5.7544355 -0.95907258 0 0 Z " fill="#040404" transform="translate(171,100)"/>
<path d="M0 0 C1.32 0.33 2.64 0.66 4 1 C5.265625 3.87109375 5.265625 3.87109375 6.25 7.4375 C6.58515625 8.61183594 6.9203125 9.78617188 7.265625 10.99609375 C8 14 8 14 8 16 C7.01 16 6.02 16 5 16 C4.67 14.68 4.34 13.36 4 12 C2.35 12 0.7 12 -1 12 C-1.33 13.32 -1.66 14.64 -2 16 C-2.99 15.67 -3.98 15.34 -5 15 C-3.35 10.05 -1.7 5.1 0 0 Z M1 5 C0.67 6.65 0.34 8.3 0 10 C0.99 10 1.98 10 3 10 C2.67 8.35 2.34 6.7 2 5 C1.67 5 1.34 5 1 5 Z " fill="#030303" transform="translate(184,99)"/>
<path d="M0 0 C0.99 0 1.98 0 3 0 C3 4.62 3 9.24 3 14 C5.31 14 7.62 14 10 14 C10 14.66 10 15.32 10 16 C6.7 16 3.4 16 0 16 C0 10.72 0 5.44 0 0 Z " fill="#020202" transform="translate(199,99)"/>
<path d="M0 0 C0.66 0 1.32 0 2 0 C2 5.28 2 10.56 2 16 C1.34 16 0.68 16 0 16 C0 10.72 0 5.44 0 0 Z " fill="#000000" transform="translate(149,99)"/>
<path d="M0 0 C0.66 0.33 1.32 0.66 2 1 C0.515 3.475 0.515 3.475 -1 6 C-0.34 6.33 0.32 6.66 1 7 C0.67 7.99 0.34 8.98 0 10 C1.65 10 3.3 10 5 10 C5.33 10.99 5.66 11.98 6 13 C0.25 12.25 0.25 12.25 -2 10 C-2.265625 8.125 -2.265625 8.125 -2.25 6 C-2.25515625 5.29875 -2.2603125 4.5975 -2.265625 3.875 C-2 2 -2 2 0 0 Z " fill="#F1B41D" transform="translate(133,19)"/>
</svg>
