<?xml version="1.0" encoding="UTF-8"?>
<svg version="1.1" xmlns="http://www.w3.org/2000/svg" width="372" height="136">
<path d="M0 0 C0.84329993 3.8728998 1.67285999 7.74861953 2.5 11.625 C2.73847656 12.71941406 2.97695312 13.81382813 3.22265625 14.94140625 C3.44824219 16.00488281 3.67382812 17.06835938 3.90625 18.1640625 C4.11572266 19.13811035 4.32519531 20.1121582 4.54101562 21.11572266 C5.01976189 24.12418453 5.07888771 26.95887878 5 30 C5.66 30 6.32 30 7 30 C7.0825 28.741875 7.165 27.48375 7.25 26.1875 C7.79466165 20.71720256 8.83187557 15.37905489 9.9375 10 C10.10733398 9.15074951 10.27716797 8.30149902 10.45214844 7.42651367 C10.62133789 6.62576416 10.79052734 5.82501465 10.96484375 5 C11.1155835 4.278125 11.26632324 3.55625 11.42163086 2.8125 C12 1 12 1 14 -1 C17.00390625 -1.01171875 17.00390625 -1.01171875 20.5625 -0.6875 C22.32787109 -0.53861328 22.32787109 -0.53861328 24.12890625 -0.38671875 C27 0 27 0 28 1 C28.23188985 3.38825588 28.40392587 5.75402685 28.53515625 8.1484375 C28.57813339 8.87559967 28.62111053 9.60276184 28.66539001 10.35195923 C28.75582229 11.90036248 28.8439308 13.44890289 28.92993164 14.99755859 C29.06003462 17.33078667 29.19832652 19.66341477 29.33789062 21.99609375 C29.80464034 30.00975801 30.10698733 37.96881761 30 46 C27.03 46 24.06 46 21 46 C20.80083984 43.83050781 20.80083984 43.83050781 20.59765625 41.6171875 C20.41938473 39.70311439 20.24099299 37.78905247 20.0625 35.875 C19.97548828 34.92367187 19.88847656 33.97234375 19.79882812 32.9921875 C19.66831055 31.6 19.66831055 31.6 19.53515625 30.1796875 C19.456604 29.33132324 19.37805176 28.48295898 19.29711914 27.60888672 C18.96789207 24.71807284 18.49960141 21.86584546 18 19 C17.823479 19.78238037 17.64695801 20.56476074 17.46508789 21.37084961 C16.6679973 24.89393234 15.8653262 28.41572007 15.0625 31.9375 C14.78470703 33.16919922 14.50691406 34.40089844 14.22070312 35.66992188 C13.95322266 36.83974609 13.68574219 38.00957031 13.41015625 39.21484375 C13.16402588 40.29886475 12.91789551 41.38288574 12.66430664 42.49975586 C12 45 12 45 11 46 C9.31391034 46.07205511 7.62499341 46.08386068 5.9375 46.0625 C5.01839844 46.05347656 4.09929687 46.04445312 3.15234375 46.03515625 C2.44207031 46.02355469 1.73179688 46.01195312 1 46 C-1.22507607 40.38949301 -2.87659624 34.88631493 -4.1875 29 C-4.36474609 28.22527344 -4.54199219 27.45054688 -4.72460938 26.65234375 C-5.1546759 24.76934979 -5.578055 22.88483046 -6 21 C-6.9486364 23.84590919 -7.27750612 26.13390397 -7.53515625 29.10546875 C-7.66567383 30.57983398 -7.66567383 30.57983398 -7.79882812 32.08398438 C-7.88583984 33.10814453 -7.97285156 34.13230469 -8.0625 35.1875 C-8.15337891 36.22326172 -8.24425781 37.25902344 -8.33789062 38.32617188 C-8.56183483 40.88385044 -8.78240673 43.44177459 -9 46 C-15.15234375 46.09765625 -15.15234375 46.09765625 -17 46 C-18 45 -18 45 -18.03759766 43.10839844 C-17.99683105 42.2837207 -17.95606445 41.45904297 -17.9140625 40.609375 C-17.87087891 39.68141113 -17.82769531 38.75344727 -17.78320312 37.79736328 C-17.70489258 36.28891846 -17.70489258 36.28891846 -17.625 34.75 C-17.57537109 33.7276123 -17.52574219 32.70522461 -17.47460938 31.65185547 C-17.37060953 29.5116308 -17.26477643 27.37149452 -17.15722656 25.23144531 C-17.00486739 22.10003857 -16.87022926 18.96842372 -16.7421875 15.8359375 C-16.66145964 13.93229161 -16.58073053 12.02864578 -16.5 10.125 C-16.46471191 9.22233398 -16.42942383 8.31966797 -16.39306641 7.38964844 C-16.11310366 1.11310366 -16.11310366 1.11310366 -15 0 C-13.61337567 -0.26272882 -12.21419245 -0.46064745 -10.8125 -0.625 C-9.67748047 -0.76808594 -9.67748047 -0.76808594 -8.51953125 -0.9140625 C-5.56715886 -1.01476357 -2.89355975 -0.56112447 0 0 Z " fill="#100B45" transform="translate(63,45)"/>
<path d="M0 0 C3.46679688 0.04882812 3.46679688 0.04882812 6.93359375 0.09765625 C6.93359375 4.38765625 6.93359375 8.67765625 6.93359375 13.09765625 C9.57359375 13.09765625 12.21359375 13.09765625 14.93359375 13.09765625 C14.93359375 10.45765625 14.93359375 7.81765625 14.93359375 5.09765625 C17.90359375 5.09765625 20.87359375 5.09765625 23.93359375 5.09765625 C23.93359375 7.73765625 23.93359375 10.37765625 23.93359375 13.09765625 C26.57359375 13.09765625 29.21359375 13.09765625 31.93359375 13.09765625 C32.42859375 16.56265625 32.42859375 16.56265625 32.93359375 20.09765625 C29.96359375 20.09765625 26.99359375 20.09765625 23.93359375 20.09765625 C24.42859375 29.50265625 24.42859375 29.50265625 24.93359375 39.09765625 C27.24359375 39.09765625 29.55359375 39.09765625 31.93359375 39.09765625 C33.36447903 41.95942682 32.53351072 44.03141398 31.93359375 47.09765625 C21.96708298 47.88310806 21.96708298 47.88310806 17.80859375 44.72265625 C15.34847964 41.2784965 14.80960403 39.68803198 14.8359375 35.52734375 C14.83916016 34.63144531 14.84238281 33.73554687 14.84570312 32.8125 C14.85827148 31.40677734 14.85827148 31.40677734 14.87109375 29.97265625 C14.87560547 29.02777344 14.88011719 28.08289063 14.88476562 27.109375 C14.89657018 24.77207238 14.91303616 22.43489564 14.93359375 20.09765625 C10.97359375 20.59265625 10.97359375 20.59265625 6.93359375 21.09765625 C6.93359375 27.03765625 6.93359375 32.97765625 6.93359375 39.09765625 C8.25359375 39.09765625 9.57359375 39.09765625 10.93359375 39.09765625 C10.93359375 41.73765625 10.93359375 44.37765625 10.93359375 47.09765625 C9.67546875 47.13890625 8.41734375 47.18015625 7.12109375 47.22265625 C6.41339844 47.24585938 5.70570313 47.2690625 4.9765625 47.29296875 C2.93359375 47.09765625 2.93359375 47.09765625 -0.06640625 45.09765625 C-0.06640625 44.43765625 -0.06640625 43.77765625 -0.06640625 43.09765625 C-0.82953125 43.75765625 -1.59265625 44.41765625 -2.37890625 45.09765625 C-6.91402151 48.11388492 -11.83103286 47.84668136 -17.06640625 47.09765625 C-21.91039715 44.98391477 -24.28007423 42.09785216 -26.37109375 37.37109375 C-28.11916859 31.65547826 -27.85922068 26.18813592 -25.44140625 20.72265625 C-23.28856099 16.99657792 -20.99441823 14.98612355 -17.06640625 13.09765625 C-12.19959568 11.80685188 -8.6638238 12.04196521 -4.06640625 14.09765625 C-3.97552734 12.70740234 -3.97552734 12.70740234 -3.8828125 11.2890625 C-3.79902344 10.09152344 -3.71523437 8.89398438 -3.62890625 7.66015625 C-3.54769531 6.46519531 -3.46648437 5.27023438 -3.3828125 4.0390625 C-2.9633965 0.14004709 -2.9633965 0.14004709 0 0 Z M-15.37890625 21.97265625 C-18.00974176 25.28556023 -18.18261446 26.8786931 -17.81640625 31.03515625 C-17.749375 31.91042969 -17.68234375 32.78570312 -17.61328125 33.6875 C-16.98759385 36.44499376 -16.27818936 37.38757028 -14.06640625 39.09765625 C-11.70178133 40.10400871 -11.70178133 40.10400871 -9.06640625 40.09765625 C-5.58006024 38.47609996 -4.22338431 37.33312333 -2.06640625 34.09765625 C-1.63452202 28.74229181 -1.62157746 25.46993895 -5.06640625 21.09765625 C-8.88821679 19.18675098 -12.05957747 19.28130859 -15.37890625 21.97265625 Z " fill="#03022A" transform="translate(157.06640625,43.90234375)"/>
<path d="M0 0 C3.8617646 2.01304751 6.19930958 4.2467599 7.7734375 8.26953125 C9.32091698 17.17457228 9.32091698 17.17457228 7.7734375 20.26953125 C0.5134375 20.59953125 -6.7465625 20.92953125 -14.2265625 21.26953125 C-12.60650864 24.40432081 -12.60650864 24.40432081 -10.16015625 24.8515625 C-4.1200545 25.40925578 0.94792993 24.97215544 6.7734375 23.26953125 C6.7734375 25.57953125 6.7734375 27.88953125 6.7734375 30.26953125 C0.16089453 34.04812723 -5.76298808 34.18013839 -13.2265625 33.26953125 C-18.59842178 31.2947025 -21.72388193 28.43038438 -24.2265625 23.26953125 C-25.02129287 17.61334213 -25.29056687 11.3937719 -22.6015625 6.20703125 C-16.64529132 -1.15993574 -9.09013008 -2.98220057 0 0 Z M-14.015625 8.59765625 C-15.51986021 10.33041319 -15.51986021 10.33041319 -15.2265625 13.26953125 C-10.2765625 13.26953125 -5.3265625 13.26953125 -0.2265625 13.26953125 C-1.67945236 8.68533495 -1.67945236 8.68533495 -3.2265625 7.26953125 C-5.25926812 7.03132204 -5.25926812 7.03132204 -7.6015625 7.01953125 C-8.39304687 6.99375 -9.18453125 6.96796875 -10 6.94140625 C-12.29277065 7.10008775 -12.29277065 7.10008775 -14.015625 8.59765625 Z " fill="#020120" transform="translate(119.2265625,57.73046875)"/>
<path d="M0 0 C3.83295936 4.1134198 5.70057431 7.50352419 6 13.125 C5.76942009 18.83185287 3.87122879 23.0322964 0.1953125 27.359375 C-4.42606988 31.45194248 -9.44305044 31.41806214 -15.40625 31.171875 C-20.63164998 30.44462861 -23.13078652 28.09301107 -26.6875 24.4375 C-29.91624344 19.47907257 -30.77631196 15.41647725 -29.8125 9.625 C-28.54015924 4.28441044 -26.50305327 1.27198662 -22.0625 -2 C-15.03840036 -5.34480935 -6.29062624 -4.86307764 0 0 Z M-17.3125 5.5625 C-20.02151119 8.35118799 -20.39197654 9.14681422 -20.6875 13.0625 C-20.41852707 17.02985076 -20.00958894 18.74922957 -17.4375 21.75 C-14.18985794 23.37382103 -12.33097126 23.91622721 -8.75 23.25 C-5.53739753 21.16614975 -4.66390399 19.36107841 -3.4375 15.75 C-3.5609897 12.16879856 -4.03128692 9.60756095 -5.5625 6.375 C-9.37886135 3.06748683 -13.13215192 2.92706316 -17.3125 5.5625 Z " fill="#110C45" transform="translate(241.4375,60.25)"/>
<path d="M0 0 C3.91643197 3.21348264 4.86412328 6.9996216 5.69140625 11.82421875 C6.34203986 18.51997984 6.32557251 25.28412052 6 32 C5 33 5 33 3.15234375 33.09765625 C1.1015625 33.06510417 -0.94921875 33.03255208 -3 33 C-3.84177715 30.04913626 -4.14402106 27.36872378 -4.2109375 24.3046875 C-4.23929687 23.42425781 -4.26765625 22.54382813 -4.296875 21.63671875 C-4.34917341 19.78797006 -4.39337916 17.93897558 -4.4296875 16.08984375 C-4.460625 15.21199219 -4.4915625 14.33414063 -4.5234375 13.4296875 C-4.54325684 12.62772949 -4.56307617 11.82577148 -4.58349609 10.99951172 C-4.83930988 8.60052517 -4.83930988 8.60052517 -8 7 C-11.08333333 7 -11.08333333 7 -14 8 C-15.96062573 10.95210201 -16.28620435 13.48958563 -16.4140625 16.984375 C-16.47207031 18.38623047 -16.47207031 18.38623047 -16.53125 19.81640625 C-16.57765625 21.26853516 -16.57765625 21.26853516 -16.625 22.75 C-16.68300781 24.22533203 -16.68300781 24.22533203 -16.7421875 25.73046875 C-16.83628426 28.15346037 -16.92192328 30.57644796 -17 33 C-23.15234375 33.09765625 -23.15234375 33.09765625 -25 33 C-26 32 -26 32 -26.11352539 28.85717773 C-26.11336633 27.46597303 -26.10767506 26.07476239 -26.09765625 24.68359375 C-26.0962413 23.95253922 -26.09482635 23.22148468 -26.09336853 22.46827698 C-26.08775408 20.12464368 -26.07519922 17.78110461 -26.0625 15.4375 C-26.05748686 13.85221492 -26.05292363 12.26692834 -26.04882812 10.68164062 C-26.03777997 6.7877239 -26.02050572 2.89387795 -26 -1 C-23.03 -1 -20.06 -1 -17 -1 C-16.67 -0.34 -16.34 0.32 -16 1 C-15.030625 0.46375 -14.06125 -0.0725 -13.0625 -0.625 C-8.42096808 -2.60614167 -4.5777305 -1.91625928 0 0 Z " fill="#0D0940" transform="translate(276,58)"/>
<path d="M0 0 C0.16767864 1.95824694 0.33411205 3.91660055 0.5 5.875 C0.5928125 6.96554688 0.685625 8.05609375 0.78125 9.1796875 C0.90562958 10.78329564 1 12.39157551 1 14 C3.97 14 6.94 14 10 14 C10.0825 12.88625 10.165 11.7725 10.25 10.625 C11 7 11 7 13.0625 5.5625 C14.0215625 5.2840625 14.0215625 5.2840625 15 5 C16.76462683 8.08809695 17 9.23312136 17 13 C19.31 13.33 21.62 13.66 24 14 C24 14.66 24 15.32 24 16 C22.02 16.66 20.04 17.32 18 18 C17.67 25.59 17.34 33.18 17 41 C12 38 12 38 11.34057617 35.9152832 C11.32486572 35.13499756 11.30915527 34.35471191 11.29296875 33.55078125 C11.26396484 32.70322266 11.23496094 31.85566406 11.20507812 30.98242188 C11.19927734 30.10134766 11.19347656 29.22027344 11.1875 28.3125 C11.16236328 27.41982422 11.13722656 26.52714844 11.11132812 25.60742188 C11.05245113 23.4054223 11.02336479 21.20266265 11 19 C7.7 19 4.4 19 1 19 C0.21327306 22.14690775 -0.12004456 24.1937621 -0.09765625 27.328125 C-0.09282227 28.52695313 -0.09282227 28.52695313 -0.08789062 29.75 C-0.07951172 30.575 -0.07113281 31.4 -0.0625 32.25 C-0.05798828 33.09046875 -0.05347656 33.9309375 -0.04882812 34.796875 C-0.03707961 36.86461401 -0.01914522 38.93231624 0 41 C0.66 41 1.32 41 2 41 C1.67 41.66 1.34 42.32 1 43 C-0.32 42.34 -1.64 41.68 -3 41 C-3 40.34 -3 39.68 -3 39 C-4.32 38.67 -5.64 38.34 -7 38 C-6.96519531 36.96359375 -6.93039063 35.9271875 -6.89453125 34.859375 C-6.86638518 33.48959958 -6.83908589 32.11980659 -6.8125 30.75 C-6.78736328 30.06808594 -6.76222656 29.38617188 -6.73632812 28.68359375 C-6.69116427 25.58234245 -6.83584473 23.32675703 -8.23828125 20.53515625 C-10.44739766 18.61013906 -11.48048748 18.54425621 -14.375 18.6875 C-15.16519531 18.72230469 -15.95539063 18.75710937 -16.76953125 18.79296875 C-19.23286454 19.0216144 -21.60319046 19.38146851 -24 20 C-24 19.01 -24 18.02 -24 17 C-21.5625 14.6875 -21.5625 14.6875 -18 13 C-15.55083643 13.20409696 -13.40416904 13.72276844 -11.05078125 14.421875 C-8.87387536 15.13566477 -8.87387536 15.13566477 -6 15 C-5.97421875 14.08476563 -5.9484375 13.16953125 -5.921875 12.2265625 C-5.86515625 11.03804687 -5.8084375 9.84953125 -5.75 8.625 C-5.68039063 6.84996094 -5.68039063 6.84996094 -5.609375 5.0390625 C-5 2 -5 2 -3.015625 0.5859375 C-1 0 -1 0 0 0 Z " fill="#120E49" transform="translate(162,45)"/>
<path d="M0 0 C0.33 2.64 0.66 5.28 1 8 C-1.61175915 9.30587957 -2.54500677 8.7142586 -5.3125 7.9375 C-8.30084865 7.23605482 -9.87553512 6.9761663 -12.9375 7.5625 C-15.69359105 9.48341194 -16.27156016 10.72202074 -17 14 C-16.80187209 18.64514347 -16.80187209 18.64514347 -14.76171875 22.6953125 C-12.40531028 24.44041323 -10.90374665 24.33642103 -8 24.25 C-7.13375 24.23453125 -6.2675 24.2190625 -5.375 24.203125 C-2.85176221 24.0807181 -2.85176221 24.0807181 0 23 C0.29296875 29.0546875 0.29296875 29.0546875 0 31 C-4.69018957 34.12679305 -9.51032499 33.56887824 -15 33 C-20.38112628 31.32078329 -23.31339212 27.8565604 -26 23 C-27.81020278 17.56939165 -27.70097747 12.90256228 -25.3125 7.75 C-22.66023168 3.02043063 -19.74850887 0.6928054 -14.6875 -1.3125 C-9.41697243 -2.29514073 -5.11931377 -1.70643792 0 0 Z " fill="#130F4A" transform="translate(327,58)"/>
<path d="M0 0 C2.97 0 5.94 0 9 0 C9.33 0.66 9.66 1.32 10 2 C10.99 1.34 11.98 0.68 13 0 C15.04296875 -0.1953125 15.04296875 -0.1953125 17.1875 -0.125 C19.0746875 -0.063125 19.0746875 -0.063125 21 0 C20.67 2.97 20.34 5.94 20 9 C17.94921875 9.22786458 15.8984375 9.45572917 13.84765625 9.68359375 C11.98859771 9.81886614 11.98859771 9.81886614 11 11 C10.85492735 12.62122423 10.7728999 14.24819889 10.71875 15.875 C10.68136719 16.85984375 10.64398438 17.8446875 10.60546875 18.859375 C10.57066406 19.89578125 10.53585938 20.9321875 10.5 22 C10.43143151 24.04181732 10.35874142 26.08350185 10.28125 28.125 C10.23581055 29.49011719 10.23581055 29.49011719 10.18945312 30.8828125 C10 33 10 33 9 34 C7.1875 34.1328125 7.1875 34.1328125 5 34.125 C4.278125 34.12757812 3.55625 34.13015625 2.8125 34.1328125 C1 34 1 34 0 33 C-0.08843793 30.55169574 -0.11528752 28.13179401 -0.09765625 25.68359375 C-0.0962413 24.95253922 -0.09482635 24.22148468 -0.09336853 23.46827698 C-0.08775408 21.12464368 -0.07519922 18.78110461 -0.0625 16.4375 C-0.05748686 14.85221492 -0.05292363 13.26692834 -0.04882812 11.68164062 C-0.03777997 7.7877239 -0.02050572 3.89387795 0 0 Z " fill="#03022B" transform="translate(192,57)"/>
<path d="M0 0 C3.46679688 0.04882812 3.46679688 0.04882812 6.93359375 0.09765625 C6.93359375 4.38765625 6.93359375 8.67765625 6.93359375 13.09765625 C9.57359375 13.09765625 12.21359375 13.09765625 14.93359375 13.09765625 C14.93359375 13.75765625 14.93359375 14.41765625 14.93359375 15.09765625 C11.96359375 15.09765625 8.99359375 15.09765625 5.93359375 15.09765625 C5.78921875 14.06640625 5.64484375 13.03515625 5.49609375 11.97265625 C5.01698918 8.67215812 4.49484292 5.38497284 3.93359375 2.09765625 C2.94359375 2.42765625 1.95359375 2.75765625 0.93359375 3.09765625 C0.89621094 4.01289062 0.85882813 4.928125 0.8203125 5.87109375 C0.75457031 7.05960938 0.68882812 8.248125 0.62109375 9.47265625 C0.56308594 10.65601563 0.50507813 11.839375 0.4453125 13.05859375 C0.27644531 14.06148437 0.10757813 15.064375 -0.06640625 16.09765625 C-1.05640625 16.75765625 -2.04640625 17.41765625 -3.06640625 18.09765625 C-5.40197088 17.10287872 -7.73515696 16.10250508 -10.06640625 15.09765625 C-13.60805084 15.18002008 -14.72178671 15.79029288 -17.37890625 18.16015625 C-17.93578125 18.79953125 -18.49265625 19.43890625 -19.06640625 20.09765625 C-18.10734375 19.85015625 -18.10734375 19.85015625 -17.12890625 19.59765625 C-13.07433266 18.93568505 -9.14474553 18.38242511 -5.06640625 19.09765625 C-2.50390625 21.59765625 -2.50390625 21.59765625 -1.06640625 24.09765625 C-1.72640625 24.75765625 -2.38640625 25.41765625 -3.06640625 26.09765625 C-3.35515625 25.45828125 -3.64390625 24.81890625 -3.94140625 24.16015625 C-4.89464076 21.94559546 -4.89464076 21.94559546 -7.06640625 21.09765625 C-11.26295714 20.65682633 -11.26295714 20.65682633 -14.87890625 22.47265625 C-17.63914445 26.24982432 -17.14127495 29.23374227 -16.640625 33.74609375 C-16.24498572 36.33081787 -16.24498572 36.33081787 -13.75390625 38.16015625 C-11.16678477 39.12127473 -11.16678477 39.12127473 -8.81640625 39.59765625 C-8.23890625 39.76265625 -7.66140625 39.92765625 -7.06640625 40.09765625 C-6.06640625 43.09765625 -6.06640625 43.09765625 -7.06640625 46.09765625 C-10.99363364 46.40567408 -13.32272313 46.57573826 -16.69140625 44.41015625 C-17.47515625 43.64703125 -18.25890625 42.88390625 -19.06640625 42.09765625 C-19.93265625 41.29328125 -20.79890625 40.48890625 -21.69140625 39.66015625 C-25.0068092 36.08301096 -26.85658732 33.68628532 -27.50390625 28.78515625 C-26.79300311 22.79325833 -24.84779606 18.6766154 -20.31640625 14.66015625 C-16.25921509 12.70958358 -13.57557206 12.24080437 -9.06640625 12.09765625 C-6.3203125 13.08984375 -6.3203125 13.08984375 -4.06640625 14.09765625 C-3.97552734 12.70740234 -3.97552734 12.70740234 -3.8828125 11.2890625 C-3.79902344 10.09152344 -3.71523437 8.89398438 -3.62890625 7.66015625 C-3.54769531 6.46519531 -3.46648437 5.27023438 -3.3828125 4.0390625 C-2.9633965 0.14004709 -2.9633965 0.14004709 0 0 Z " fill="#03022C" transform="translate(157.06640625,43.90234375)"/>
<path d="M0 0 C0.125 7.75 0.125 7.75 -1 10 C-0.34 10.33 0.32 10.66 1 11 C-0.32 12.32 -1.64 13.64 -3 15 C-4.65 14.01 -6.3 13.02 -8 12 C-7.97679687 12.75925781 -7.95359375 13.51851562 -7.9296875 14.30078125 C-7.90261719 15.79158203 -7.90261719 15.79158203 -7.875 17.3125 C-7.85179687 18.29863281 -7.82859375 19.28476563 -7.8046875 20.30078125 C-8 23 -8 23 -10 26 C-9.83403634 28.58829005 -9.83403634 28.58829005 -9.3125 31.375 C-8.70415107 36.47837162 -8.70415107 36.47837162 -10.0390625 38.83203125 C-11.4375 40.1875 -11.4375 40.1875 -14 42 C-15.68398507 36.88338844 -16.28554652 32.31369057 -16.23046875 26.9140625 C-16.23001053 26.17167328 -16.22955231 25.42928406 -16.2290802 24.66439819 C-16.22608005 23.1097451 -16.21826163 21.55509441 -16.20581055 20.00048828 C-16.18739128 17.61089571 -16.18530228 15.22168788 -16.18554688 12.83203125 C-16.18063692 11.31770496 -16.17481089 9.8033813 -16.16796875 8.2890625 C-16.16685593 7.57247467 -16.1657431 6.85588684 -16.16459656 6.11758423 C-16.11610577 1.11610577 -16.11610577 1.11610577 -15 0 C-9.84611608 -0.97652537 -5.14620738 -1.18758632 0 0 Z " fill="#110D45" transform="translate(63,45)"/>
<path d="M0 0 C2.31284456 0.14026283 4.62527591 0.28735558 6.9375 0.4375 C8.86916016 0.55931641 8.86916016 0.55931641 10.83984375 0.68359375 C14 1 14 1 15 2 C15.25964103 5.6585385 15.18971146 9.33339127 15.1875 13 C15.18814453 14.07894531 15.18878906 15.15789063 15.18945312 16.26953125 C15.13055254 25.29738423 14.35699087 34.0826314 13 43 C12.34 43 11.68 43 11 43 C9.15625561 32.6680739 7.53774718 22.49534144 7 12 C6.01 12.495 6.01 12.495 5 13 C4.67 13.99 4.34 14.98 4 16 C2 15 2 15 -1 13 C-1.328125 10.46875 -1.328125 10.46875 -1.25 7.5 C-1.23453125 6.5203125 -1.2190625 5.540625 -1.203125 4.53125 C-1 2 -1 2 0 0 Z " fill="#110D45" transform="translate(76,44)"/>
<path d="M0 0 C2.97 0 5.94 0 9 0 C9 8.58 9 17.16 9 26 C10.65 26 12.3 26 14 26 C14 28.64 14 31.28 14 34 C12.60696395 34.13657216 11.20993879 34.23271149 9.8125 34.3125 C9.03519531 34.37050781 8.25789063 34.42851563 7.45703125 34.48828125 C3.74838252 33.75126839 2.36541071 31.88241913 0 29 C-0.56762695 25.77026367 -0.56762695 25.77026367 -0.48828125 22.16796875 C-0.47216797 20.87568359 -0.45605469 19.58339844 -0.43945312 18.25195312 C-0.39768274 16.89711843 -0.35535809 15.54230072 -0.3125 14.1875 C-0.28740069 12.81319134 -0.26459036 11.43883884 -0.24414062 10.06445312 C-0.18526461 6.70852024 -0.1030642 3.3548191 0 0 Z " fill="#120D48" transform="translate(286,57)"/>
<path d="M0 0 C6.93089984 -0.50203701 11.36762431 -0.25301838 17 4 C19.39329075 6.54287142 20.01887997 8.05454909 19.94921875 11.54296875 C19.71251868 14.04775011 19.40024521 16.51655082 19 19 C18.236875 18.814375 17.47375 18.62875 16.6875 18.4375 C13.91032625 17.77180827 13.91032625 17.77180827 11 19 C8.6593935 18.72230092 6.32375692 18.39460023 4 18 C4 17.67 4 17.34 4 17 C4.95712891 16.80083984 4.95712891 16.80083984 5.93359375 16.59765625 C6.75988281 16.42105469 7.58617188 16.24445313 8.4375 16.0625 C9.26121094 15.88847656 10.08492187 15.71445313 10.93359375 15.53515625 C12.97661204 15.19247006 12.97661204 15.19247006 14 14 C11.92837116 11.32693053 10.27604463 9.2838261 6.875 8.52734375 C1.5427443 8.32017841 -1.96163138 9.27227512 -6 13 C-6 14.32 -6 15.64 -6 17 C-3.69 17 -1.38 17 1 17 C1 17.33 1 17.66 1 18 C-2.96 18.495 -2.96 18.495 -7 19 C-7.33 20.32 -7.66 21.64 -8 23 C-8 22.01 -8 21.02 -8 20 C-8.66 20 -9.32 20 -10 20 C-10.34605141 14.23247651 -10.32125966 9.9818895 -7 5 C-4.39070749 2.55378827 -3.62968776 2 0 2 C0 1.34 0 0.68 0 0 Z " fill="#0F0B3E" transform="translate(107,57)"/>
<path d="M0 0 C0.66 0.33 1.32 0.66 2 1 C2 2.65 2 4.3 2 6 C2.99 6 3.98 6 5 6 C5.33 6.99 5.66 7.98 6 9 C6.33 7.68 6.66 6.36 7 5 C7.66 5 8.32 5 9 5 C10.62427626 8.24855253 10.62819917 11.86315845 11 15.4375 C11.08685059 16.24558105 11.17370117 17.05366211 11.26318359 17.88623047 C11.90506019 23.91842539 12.49401288 29.95478549 13 36 C13.66 36 14.32 36 15 36 C15.33 28.41 15.66 20.82 16 13 C20.73662789 17.73662789 19.05412162 28.93202563 19.0625 35.375 C19.04694942 36.916729 19.02831414 38.45845258 19 40 C16.03 40 13.06 40 10 40 C9.86722656 38.55367187 9.73445313 37.10734375 9.59765625 35.6171875 C9.41938473 33.70311439 9.24099299 31.78905247 9.0625 29.875 C8.97548828 28.92367187 8.88847656 27.97234375 8.79882812 26.9921875 C8.71181641 26.0640625 8.62480469 25.1359375 8.53515625 24.1796875 C8.456604 23.33132324 8.37805176 22.48295898 8.29711914 21.60888672 C7.96873864 18.72550628 7.47708905 15.86253429 7 13 C5.35 19.93 3.7 26.86 2 34 C1.34 33.67 0.68 33.34 0 33 C0.08378906 32.39671875 0.16757813 31.7934375 0.25390625 31.171875 C0.35574219 30.37265625 0.45757812 29.5734375 0.5625 28.75 C0.66691406 27.96109375 0.77132812 27.1721875 0.87890625 26.359375 C1.00027349 23.99467126 0.69633257 22.2488963 0 20 C0.66 20 1.32 20 2 20 C1.67 17.36 1.34 14.72 1 12 C0.01 15.3 -0.98 18.6 -2 22 C-2.66 22 -3.32 22 -4 22 C-3.25403037 14.5403037 -1.63253871 7.31048782 0 0 Z " fill="#020124" transform="translate(74,51)"/>
<path d="M0 0 C0.66 0 1.32 0 2 0 C2.12117187 0.69867188 2.24234375 1.39734375 2.3671875 2.1171875 C2.53476563 3.02726562 2.70234375 3.93734375 2.875 4.875 C3.11863281 6.23238281 3.11863281 6.23238281 3.3671875 7.6171875 C3.83044703 10.16505988 3.83044703 10.16505988 6 12 C8.87237512 12.93158112 10.66190581 13.07244876 13.625 12.4375 C16.78484232 10.52496386 17.61407634 8.35539412 19 5 C19.95465783 7.16967689 20.14401212 8.56328793 19.3984375 10.82421875 C18.64129615 12.5684743 17.82390802 14.28627131 17 16 C19.97017694 15.37189827 19.97017694 15.37189827 23 14 C24.29660434 11.50965614 24.29660434 11.50965614 25 9 C25.66 8.67 26.32 8.34 27 8 C26.49445676 12.42350331 25.04984798 14.78071602 22 18 C16.35714806 22.0868823 10.7241963 21.7621885 4 21 C-0.53415361 18.85224303 -3.08185228 16.04051223 -6 12 C-5.34 11.67 -4.68 11.34 -4 11 C-4 11.66 -4 12.32 -4 13 C-2.35 13.33 -0.7 13.66 1 14 C1 12.02 1 10.04 1 8 C0.34 7.67 -0.32 7.34 -1 7 C-0.67 4.69 -0.34 2.38 0 0 Z " fill="#040230" transform="translate(219,70)"/>
<path d="M0 0 C4.11906803 3.59098238 5.55180122 5.57181472 6 11 C5.83341111 14.14573587 5.46352763 17.25146802 5.0625 20.375 C4.96259766 21.20644531 4.86269531 22.03789063 4.75976562 22.89453125 C4.51403206 24.93060939 4.25805136 26.96544632 4 29 C3.34 29 2.68 29 2 29 C1.67 29.66 1.34 30.32 1 31 C0.01 30.34 -0.98 29.68 -2 29 C-2.34057617 26.20263672 -2.34057617 26.20263672 -2.29296875 22.6796875 C-2.28330078 21.42285156 -2.27363281 20.16601562 -2.26367188 18.87109375 C-2.23853516 17.55238281 -2.21339844 16.23367187 -2.1875 14.875 C-2.17245483 13.53517097 -2.15876613 12.19532596 -2.14648438 10.85546875 C-2.11102872 7.56991158 -2.06160849 4.28515418 -2 1 C-1.34 0.67 -0.68 0.34 0 0 Z " fill="#120E45" transform="translate(254,59)"/>
<path d="M0 0 C0.144375 0.639375 0.28875 1.27875 0.4375 1.9375 C0.81007181 3.97545146 0.81007181 3.97545146 2 5 C2.04063832 6.66617115 2.042721 8.33388095 2 10 C1.34 10 0.68 10 0 10 C0.185625 10.845625 0.37125 11.69125 0.5625 12.5625 C1.12579865 16.98841796 1.20314837 21.03696845 -1.1875 24.9375 C-3.80642619 26.47273259 -6.02914805 26.1980568 -9 26 C-9.99 23.03 -10.98 20.06 -12 17 C-11.01 16.01 -10.02 15.02 -9 14 C-8.67 14.99 -8.34 15.98 -8 17 C-7.01 16.67 -6.02 16.34 -5 16 C-5 14.35 -5 12.7 -5 11 C-4.34 11 -3.68 11 -3 11 C-2.86722656 10.28972656 -2.73445313 9.57945313 -2.59765625 8.84765625 C-2.42105469 7.92855469 -2.24445313 7.00945312 -2.0625 6.0625 C-1.88847656 5.14597656 -1.71445313 4.22945313 -1.53515625 3.28515625 C-1 1 -1 1 0 0 Z " fill="#130E49" transform="translate(75,62)"/>
<path d="M0 0 C2.5 2 2.5 2 4 4 C4 4.66 4 5.32 4 6 C4.99 6 5.98 6 7 6 C6.67 9.3 6.34 12.6 6 16 C5.236875 15.814375 4.47375 15.62875 3.6875 15.4375 C0.91032625 14.77180827 0.91032625 14.77180827 -2 16 C-4.3406065 15.72230092 -6.67624308 15.39460023 -9 15 C-9 14.67 -9 14.34 -9 14 C-8.36191406 13.86722656 -7.72382812 13.73445313 -7.06640625 13.59765625 C-6.24011719 13.42105469 -5.41382812 13.24445313 -4.5625 13.0625 C-3.73878906 12.88847656 -2.91507813 12.71445313 -2.06640625 12.53515625 C-0.02338796 12.19247006 -0.02338796 12.19247006 1 11 C0.34 10.34 -0.32 9.68 -1 9 C-1.70710678 7.35008418 -2.37943989 5.68437744 -3 4 C-4.2375 4.04125 -5.475 4.0825 -6.75 4.125 C-10.01637962 4.13658291 -12.2146947 3.8568702 -15 2 C-14 0 -14 0 -11.4375 -1.25 C-7.10561504 -2.19513854 -4.06296915 -1.71163381 0 0 Z " fill="#130E4B" transform="translate(120,60)"/>
<path d="M0 0 C0.99 0.33 1.98 0.66 3 1 C2.67 1.99 2.34 2.98 2 4 C7.94 3.67 13.88 3.34 20 3 C18 6 18 6 15 7 C16.32 7 17.64 7 19 7 C20.68698082 7.61344757 22.35965807 8.27095914 24 9 C24 7.02 24 5.04 24 3 C24.66 3.33 25.32 3.66 26 4 C25.67 6.31 25.34 8.62 25 11 C21.93726169 11.05410136 18.87548548 11.09372225 15.8125 11.125 C14.94818359 11.14175781 14.08386719 11.15851563 13.19335938 11.17578125 C4.94128083 11.23901557 4.94128083 11.23901557 1 9 C-0.9375 6.625 -0.9375 6.625 -2 4 C-1.1875 1.6875 -1.1875 1.6875 0 0 Z M-2 9 C-1.01 9 -0.02 9 1 9 C0.67 11.31 0.34 13.62 0 16 C-0.66 16 -1.32 16 -2 16 C-2 13.69 -2 11.38 -2 9 Z " fill="#040331" transform="translate(102,67)"/>
<path d="M0 0 C1.9375 0.3125 1.9375 0.3125 4 1 C4.33 1.99 4.66 2.98 5 4 C4.01 4.33 3.02 4.66 2 5 C1.97494385 5.66008057 1.9498877 6.32016113 1.92407227 7.00024414 C1.80728248 10.02115369 1.68493554 13.04181422 1.5625 16.0625 C1.50352539 17.62000977 1.50352539 17.62000977 1.44335938 19.20898438 C1.22333656 24.54030641 0.8883816 29.73689893 0 35 C-6.15234375 35.09765625 -6.15234375 35.09765625 -8 35 C-9 34 -9 34 -9.0534668 31.80688477 C-8.94134109 28.72487219 -8.82178234 25.6436359 -8.6875 22.5625 C-8.65205078 21.48677734 -8.61660156 20.41105469 -8.58007812 19.30273438 C-8.51530273 17.76262695 -8.51530273 17.76262695 -8.44921875 16.19140625 C-8.41143311 15.24467041 -8.37364746 14.29793457 -8.3347168 13.32250977 C-8 11 -8 11 -6 9 C-6.03480469 10.77117187 -6.03480469 10.77117187 -6.0703125 12.578125 C-6.08907497 14.13541033 -6.10727466 15.69270252 -6.125 17.25 C-6.14175781 18.02730469 -6.15851562 18.80460937 -6.17578125 19.60546875 C-6.25968301 25.08306936 -6.25968301 25.08306936 -4 30 C-1.73912508 27.59456786 -1.00065921 26.48517703 -0.99609375 23.125 C-1.14175781 22.09375 -1.28742187 21.0625 -1.4375 20 C-2.029786 15.7312721 -2.00560826 13.75582072 0 10 C0.24029959 7.40845081 0.24029959 7.40845081 0.125 4.75 C0.09792969 3.41195312 0.09792969 3.41195312 0.0703125 2.046875 C0.04710937 1.37140625 0.02390625 0.6959375 0 0 Z " fill="#02011A" transform="translate(54,56)"/>
<path d="M0 0 C0.99 0.33 1.98 0.66 3 1 C0.37352812 2.75098126 -2.28775382 4.38731308 -5 6 C-4.34 7.32 -3.68 8.64 -3 10 C-0.94729537 8.15811388 -0.94729537 8.15811388 0 6 C2.31 6 4.62 6 7 6 C6.67 6.66 6.34 7.32 6 8 C5.195625 8.268125 4.39125 8.53625 3.5625 8.8125 C0.85978919 9.78253802 0.85978919 9.78253802 -0.375 12.1875 C-1.17679729 15.7955878 -0.8626701 18.41660111 0 22 C1.64681913 24.18382536 2.57337979 24.90347626 5.26171875 25.51171875 C6.06222656 25.56972656 6.86273438 25.62773438 7.6875 25.6875 C8.49574219 25.75324219 9.30398438 25.81898437 10.13671875 25.88671875 C10.75160156 25.92410156 11.36648438 25.96148437 12 26 C12 26.99 12 27.98 12 29 C10.41532272 28.71572583 8.8322943 28.42225182 7.25 28.125 C6.36828125 27.96257812 5.4865625 27.80015625 4.578125 27.6328125 C2.0212538 27.00521684 0.15850114 26.51000409 -2 25 C-3.046875 22.65234375 -3.046875 22.65234375 -3.75 19.9375 C-3.99234375 19.03902344 -4.2346875 18.14054687 -4.484375 17.21484375 C-5 15 -5 15 -5 14 C-6.32 13.67 -7.64 13.34 -9 13 C-9 15.31 -9 17.62 -9 20 C-9.66 20.33 -10.32 20.66 -11 21 C-11.4538355 14.64630304 -10.65523569 10.3006794 -7 5 C-4.71809758 2.88109061 -2.76653461 1.38326731 0 0 Z " fill="#0B0836" transform="translate(311,57)"/>
<path d="M0 0 C2.97 0 5.94 0 9 0 C8.67 0.66 8.34 1.32 8 2 C5.69 1.67 3.38 1.34 1 1 C1 8.92 1 16.84 1 25 C1.99 25 2.98 25 4 25 C4 26.65 4 28.3 4 30 C4.66 30 5.32 30 6 30 C6.144375 29.195625 6.28875 28.39125 6.4375 27.5625 C7 25 7 25 8 24 C8.23427778 21.98405418 8.41336124 19.961526 8.5625 17.9375 C8.64628906 16.83277344 8.73007813 15.72804688 8.81640625 14.58984375 C8.87699219 13.73519531 8.93757812 12.88054687 9 12 C9.33 12 9.66 12 10 12 C10.02887814 15.47914941 10.04675687 18.95826831 10.0625 22.4375 C10.07087891 23.43072266 10.07925781 24.42394531 10.08789062 25.44726562 C10.09111328 26.39150391 10.09433594 27.33574219 10.09765625 28.30859375 C10.10289307 29.18314209 10.10812988 30.05769043 10.11352539 30.95874023 C10 33 10 33 9 34 C7.1875 34.1328125 7.1875 34.1328125 5 34.125 C4.278125 34.12757812 3.55625 34.13015625 2.8125 34.1328125 C1 34 1 34 0 33 C-0.08843793 30.55169574 -0.11528752 28.13179401 -0.09765625 25.68359375 C-0.0962413 24.95253922 -0.09482635 24.22148468 -0.09336853 23.46827698 C-0.08775408 21.12464368 -0.07519922 18.78110461 -0.0625 16.4375 C-0.05748686 14.85221492 -0.05292363 13.26692834 -0.04882812 11.68164062 C-0.03777997 7.7877239 -0.02050572 3.89387795 0 0 Z " fill="#010018" transform="translate(192,57)"/>
<path d="M0 0 C3.74646225 3.93896822 4.50705589 6.34771352 4.375 11.75 C4.21955782 17.42961819 3.50832385 22.53232604 2 28 C1.34 28 0.68 28 0 28 C0 26.02 0 24.04 0 22 C-0.66 22 -1.32 22 -2 22 C-2.05454409 19.64551325 -2.0939279 17.29232125 -2.125 14.9375 C-2.14820313 13.62652344 -2.17140625 12.31554687 -2.1953125 10.96484375 C-1.99417522 6.88175701 -1.27165462 3.85000947 0 0 Z " fill="#120E47" transform="translate(196,59)"/>
<path d="M0 0 C0.66 0.33 1.32 0.66 2 1 C2 2.65 2 4.3 2 6 C2.99 6 3.98 6 5 6 C5.31042285 15.80706267 5.39925415 24.63181742 2 34 C1.34 33.67 0.68 33.34 0 33 C0.08378906 32.39671875 0.16757813 31.7934375 0.25390625 31.171875 C0.35574219 30.37265625 0.45757812 29.5734375 0.5625 28.75 C0.66691406 27.96109375 0.77132812 27.1721875 0.87890625 26.359375 C1.00027349 23.99467126 0.69633257 22.2488963 0 20 C0.66 20 1.32 20 2 20 C1.67 17.36 1.34 14.72 1 12 C0.01 15.3 -0.98 18.6 -2 22 C-2.66 22 -3.32 22 -4 22 C-3.25403037 14.5403037 -1.63253871 7.31048782 0 0 Z " fill="#110C47" transform="translate(74,51)"/>
<path d="M0 0 C0.66 0 1.32 0 2 0 C2.33 2.31 2.66 4.62 3 7 C3.33 7 3.66 7 4 7 C4.84681133 12.08086796 5.09038099 16.84828377 5 22 C5.99 21.34 6.98 20.68 8 20 C8.16671852 17.4582293 8.16671852 17.4582293 8 15 C8.33 14.67 8.66 14.34 9 14 C9.36760731 11.67182036 9.70241581 9.3381615 10 7 C10.33 7 10.66 7 11 7 C11.02684312 9.81256281 11.04676188 12.62487241 11.0625 15.4375 C11.07087891 16.23994141 11.07925781 17.04238281 11.08789062 17.86914062 C11.0965143 19.91295221 11.0522815 21.95683902 11 24 C10 25 10 25 8.15234375 25.09765625 C6.1015625 25.06510417 4.05078125 25.03255208 2 25 C1.13888484 21.97230685 0.81769107 19.15733363 0.68359375 16.015625 C0.64169922 15.08105469 0.59980469 14.14648438 0.55664062 13.18359375 C0.51732422 12.21550781 0.47800781 11.24742188 0.4375 10.25 C0.39431641 9.26644531 0.35113281 8.28289062 0.30664062 7.26953125 C0.20077948 4.84648725 0.09869829 2.4233446 0 0 Z " fill="#05022A" transform="translate(271,66)"/>
<path d="M0 0 C2.97 0 5.94 0 9 0 C9 8.58 9 17.16 9 26 C10.65 26 12.3 26 14 26 C14 28.64 14 31.28 14 34 C11.03 34 8.06 34 5 34 C5.33 33.34 5.66 32.68 6 32 C9.0625 31.375 9.0625 31.375 12 31 C11.34608221 27.8891846 11.34608221 27.8891846 9 26.9375 C8.34 26.628125 7.68 26.31875 7 26 C5.72508784 23.45017567 5.97403384 21.83534576 6.12109375 18.9921875 C6.16943359 18.00605469 6.21777344 17.01992187 6.26757812 16.00390625 C6.32365234 14.97136719 6.37972656 13.93882813 6.4375 12.875 C6.48970703 11.83472656 6.54191406 10.79445313 6.59570312 9.72265625 C6.72560946 7.14814884 6.86058252 4.57400704 7 2 C4.69 2 2.38 2 0 2 C0 1.34 0 0.68 0 0 Z " fill="#080634" transform="translate(286,57)"/>
<path d="M0 0 C-0.33 0.99 -0.66 1.98 -1 3 C-0.46343721 5.11078626 -0.46343721 5.11078626 0.4375 7.3125 C1.77113954 11.02244273 2.30630496 14.01803557 2 18 C-5.57269591 12.98028586 -5.57269591 12.98028586 -7.0625 9.5625 C-6.98325249 6.31335228 -6.56445851 3.19859825 -6 0 C-2.25 -1.125 -2.25 -1.125 0 0 Z " fill="#130E49" transform="translate(308,70)"/>
<path d="M0 0 C1.8125 0.1875 1.8125 0.1875 4 1 C5.75 3.5625 5.75 3.5625 7 6 C6.34 6 5.68 6 5 6 C5 6.7425 5 7.485 5 8.25 C5 10.5 5 12.75 5 15 C3.68 15.33 2.36 15.66 1 16 C-1.98464873 11.89610799 -2.457712 9.03483202 -2 4 C-1 1.5625 -1 1.5625 0 0 Z " fill="#140F4A" transform="translate(132,65)"/>
<path d="M0 0 C2.4375 0.75 2.4375 0.75 4.4375 2.75 C4.8008156 5.58386167 4.7943671 7.15522151 3.3125 9.625 C1.4375 10.75 1.4375 10.75 -1.625 10.625 C-4.5625 9.75 -4.5625 9.75 -6.5625 6.75 C-6.375 4.1875 -6.375 4.1875 -5.5625 1.75 C-2.5625 -0.25 -2.5625 -0.25 0 0 Z " fill="#06032F" transform="translate(291.5625,44.25)"/>
<path d="M0 0 C3.08589287 3.22616073 3.63381435 6.37872924 4.4609375 10.60546875 C5.27696569 14.23028962 6.62150756 17.55376889 8 21 C12.7897321 21.23428313 12.7897321 21.23428313 17 19 C17.042721 20.66611905 17.04063832 22.33382885 17 24 C16 25 16 25 13.71484375 25.09765625 C12.34005859 25.08025391 12.34005859 25.08025391 10.9375 25.0625 C10.01839844 25.05347656 9.09929687 25.04445313 8.15234375 25.03515625 C7.44207031 25.02355469 6.73179688 25.01195313 6 25 C2.74708376 17.10006055 0 8.59504238 0 0 Z " fill="#020120" transform="translate(58,66)"/>
<path d="M0 0 C5.77807024 -0.2358396 10.51324804 0.13216954 16 2 C16 2.99 16 3.98 16 5 C15.34 5 14.68 5 14 5 C13.67 5.66 13.34 6.32 13 7 C8.31261335 6.09276387 3.65806256 5.0452733 -1 4 C-0.67 4.99 -0.34 5.98 0 7 C-0.66 7.66 -1.32 8.32 -2 9 C-3.125 4.25 -3.125 4.25 -2 2 C-1.34 2 -0.68 2 0 2 C0 1.34 0 0.68 0 0 Z " fill="#140E4D" transform="translate(222,58)"/>
<path d="M0 0 C0.33 0 0.66 0 1 0 C2.14516104 9.01814321 2.09471858 17.9280648 2 27 C3.32 27 4.64 27 6 27 C6.66 27 7.32 27 8 27 C8 25.35 8 23.7 8 22 C8.33 22 8.66 22 9 22 C9 24.64 9 27.28 9 30 C2.84765625 30.09765625 2.84765625 30.09765625 1 30 C0 29 0 29 -0.11352539 26.22436523 C-0.10828857 25.01466064 -0.10305176 23.80495605 -0.09765625 22.55859375 C-0.09443359 21.25341797 -0.09121094 19.94824219 -0.08789062 18.60351562 C-0.07953401 17.2148431 -0.07106905 15.82617123 -0.0625 14.4375 C-0.05748666 13.04492344 -0.05292347 11.65234519 -0.04882812 10.25976562 C-0.03699434 6.8398013 -0.0205088 3.41992156 0 0 Z " fill="#020121" transform="translate(250,61)"/>
<path d="M0 0 C0.99 0.33 1.98 0.66 3 1 C3.8125 2.9375 3.8125 2.9375 4 5 C3.34 5.66 2.68 6.32 2 7 C2 7.99 2 8.98 2 10 C4.31 10 6.62 10 9 10 C9 10.33 9 10.66 9 11 C6.36 11.33 3.72 11.66 1 12 C0.67 13.32 0.34 14.64 0 16 C0 15.01 0 14.02 0 13 C-0.66 13 -1.32 13 -2 13 C-2.05447047 11.58376784 -2.09300508 10.16691809 -2.125 8.75 C-2.14820312 7.96109375 -2.17140625 7.1721875 -2.1953125 6.359375 C-1.9828378 3.79268059 -1.28654105 2.2083933 0 0 Z " fill="#130F49" transform="translate(99,64)"/>
<path d="M0 0 C0.33 0 0.66 0 1 0 C0.95875 0.7425 0.9175 1.485 0.875 2.25 C1.00656633 5.14445922 1.69752834 6.47646116 3 9 C3 10.32 3 11.64 3 13 C1.02 12.34 -0.96 11.68 -3 11 C-3 10.34 -3 9.68 -3 9 C-3.66 8.67 -4.32 8.34 -5 8 C-5 5.69 -5 3.38 -5 1 C-2.525 1.495 -2.525 1.495 0 2 C0 1.34 0 0.68 0 0 Z " fill="#130E47" transform="translate(218,72)"/>
<path d="M0 0 C2.24938708 3.37408063 2.88216443 6.41261325 3.625 10.3125 C3.7590625 10.96412109 3.893125 11.61574219 4.03125 12.28710938 C4.80798947 16.24610289 5.13745625 19.97003257 5 24 C5.99 23.67 6.98 23.34 8 23 C7.67 24.65 7.34 26.3 7 28 C6.01 28 5.02 28 4 28 C3.896875 26.700625 3.79375 25.40125 3.6875 24.0625 C3.22761352 19.76797181 2.08821166 16.05438887 0.62890625 12.0078125 C-0.12396609 9.60423248 -0.14721557 7.50266464 0 5 C-0.33 4.01 -0.66 3.02 -1 2 C-0.67 1.34 -0.34 0.68 0 0 Z " fill="#03012A" transform="translate(63,51)"/>
<path d="M0 0 C0.928125 0.165 1.85625 0.33 2.8125 0.5 C5.92772007 0.98866197 7.07868818 0.7782857 10 0 C13.06359547 -0.37755578 15.94938039 -0.52616191 19 0 C21.5625 2.5 21.5625 2.5 23 5 C22.34 5.66 21.68 6.32 21 7 C20.71125 6.360625 20.4225 5.72125 20.125 5.0625 C19.17176549 2.84793921 19.17176549 2.84793921 17 2 C12.80344911 1.55917008 12.80344911 1.55917008 9.1875 3.375 C7.93012827 5.00086797 7.93012827 5.00086797 7 7 C4 6 4 6 2 3 C1.01 2.34 0.02 1.68 -1 1 C-0.67 0.67 -0.34 0.34 0 0 Z " fill="#090634" transform="translate(133,63)"/>
<path d="M0 0 C0.33 0 0.66 0 1 0 C1 3.63 1 7.26 1 11 C2.65 11 4.3 11 6 11 C6 13.64 6 16.28 6 19 C3.03 19 0.06 19 -3 19 C-2.67 18.34 -2.34 17.68 -2 17 C1.0625 16.375 1.0625 16.375 4 16 C3.67 15.01 3.34 14.02 3 13 C2.01 12.67 1.02 12.34 0 12 C0 8.04 0 4.08 0 0 Z " fill="#05022A" transform="translate(294,72)"/>
<path d="M0 0 C0.66 0 1.32 0 2 0 C1.896875 1.258125 1.79375 2.51625 1.6875 3.8125 C1.60418432 5.99141323 1.60418432 5.99141323 2 8 C4.3549963 10.08216876 4.3549963 10.08216876 7 11 C6.34 12.32 5.68 13.64 5 15 C4.01 15 3.02 15 2 15 C-1.19639247 11.09329809 -1.36543223 7.93333512 -1 3 C-0.67 2.01 -0.34 1.02 0 0 Z " fill="#100B40" transform="translate(131,66)"/>
<path d="M0 0 C1 2 1 2 1.375 5.4375 C2.01837117 9.10471567 2.16377016 9.86493166 5 12 C7.27161255 12.57323807 7.27161255 12.57323807 9.6875 12.6875 C10.49574219 12.75324219 11.30398438 12.81898437 12.13671875 12.88671875 C12.75160156 12.92410156 13.36648438 12.96148437 14 13 C14 13.99 14 14.98 14 16 C12.41532272 15.71572583 10.8322943 15.42225182 9.25 15.125 C8.36828125 14.96257812 7.4865625 14.80015625 6.578125 14.6328125 C4.08205062 14.0201397 2.15919108 13.39083029 0 12 C-1.29449495 8.11651516 -1.13203312 5.09302664 -1 1 C-0.67 0.67 -0.34 0.34 0 0 Z " fill="#04022C" transform="translate(309,70)"/>
<path d="M0 0 C0.33 0 0.66 0 1 0 C1.33 5.61 1.66 11.22 2 17 C3.65 17 5.3 17 7 17 C7 18.32 7 19.64 7 21 C4.125 20.75 4.125 20.75 1 20 C-1.89126597 16.36738378 -1.00880557 12.094679 -0.625 7.75 C-0.56828125 7.00492187 -0.5115625 6.25984375 -0.453125 5.4921875 C-0.31223742 3.66064892 -0.15748116 1.83018648 0 0 Z " fill="#06043B" transform="translate(179,68)"/>
<path d="M0 0 C1.9375 0.3125 1.9375 0.3125 4 1 C4.33 1.99 4.66 2.98 5 4 C4.01 4.33 3.02 4.66 2 5 C2.04125 6.155 2.0825 7.31 2.125 8.5 C2.14087433 12.94481301 1.21793105 16.73724131 0 21 C-0.33 21 -0.66 21 -1 21 C-2.25112511 14.49414941 -2.25112511 14.49414941 -1.03125 12.09375 C0.24883074 9.49479819 0.20077055 7.629281 0.125 4.75 C0.10695312 3.85796875 0.08890625 2.9659375 0.0703125 2.046875 C0.04710937 1.37140625 0.02390625 0.6959375 0 0 Z " fill="#040130" transform="translate(54,56)"/>
<path d="M0 0 C0.66 0.33 1.32 0.66 2 1 C2.23214202 5.75891138 1.4073782 9.4651147 0 14 C-0.69209279 16.66081619 -1.34418865 19.32991092 -2 22 C-2.66 22 -3.32 22 -4 22 C-3.25403037 14.5403037 -1.63253871 7.31048782 0 0 Z " fill="#030227" transform="translate(74,51)"/>
<path d="M0 0 C0.33 0 0.66 0 1 0 C0.98839844 1.16917969 0.97679687 2.33835937 0.96484375 3.54296875 C0.95546087 5.09114423 0.9463612 6.63932145 0.9375 8.1875 C0.92912109 8.95642578 0.92074219 9.72535156 0.91210938 10.51757812 C0.89508066 14.48526789 1.01395885 18.12571234 2 22 C1.34 22 0.68 22 0 22 C-1.1353654 19.72926921 -1.12892412 18.45716721 -1.1328125 15.9375 C-1.13410156 15.14085938 -1.13539062 14.34421875 -1.13671875 13.5234375 C-1.13285156 12.69070312 -1.12898438 11.85796875 -1.125 11 C-1.13080078 9.75089844 -1.13080078 9.75089844 -1.13671875 8.4765625 C-1.13542969 7.67992188 -1.13414063 6.88328125 -1.1328125 6.0625 C-1.13168457 5.33160156 -1.13055664 4.60070312 -1.12939453 3.84765625 C-1 2 -1 2 0 0 Z " fill="#03012D" transform="translate(47,65)"/>
<path d="M0 0 C1.98 0 3.96 0 6 0 C6 0.66 6 1.32 6 2 C5.01 2.33 4.02 2.66 3 3 C2.67 7.29 2.34 11.58 2 16 C1.34 16 0.68 16 0 16 C0 10.72 0 5.44 0 0 Z " fill="#07033E" transform="translate(155,44)"/>
<path d="M0 0 C0.66 0 1.32 0 2 0 C2 0.66 2 1.32 2 2 C2.556875 2.103125 3.11375 2.20625 3.6875 2.3125 C6.47129258 3.14011401 8.59851873 4.37737752 11 6 C11.33 6.66 11.66 7.32 12 8 C12.99 8.66 13.98 9.32 15 10 C9.33426027 9.76874532 6.59591563 8.32998749 2.3828125 4.5703125 C1 3 1 3 0 0 Z " fill="#02011F" transform="translate(213,81)"/>
<path d="M0 0 C1.65 0.33 3.3 0.66 5 1 C5.33 3.64 5.66 6.28 6 9 C5.01 9.495 5.01 9.495 4 10 C1.64018187 9.06421005 -0.69631264 8.06652192 -3 7 C-3 6.67 -3 6.34 -3 6 C-1.02 6 0.96 6 3 6 C3 4.68 3 3.36 3 2 C2.01 2 1.02 2 0 2 C0 1.34 0 0.68 0 0 Z " fill="#0A073A" transform="translate(322,57)"/>
<path d="M0 0 C2.97 0 5.94 0 9 0 C9 2.64 9 5.28 9 8 C11.64 8 14.28 8 17 8 C16.67 8.66 16.34 9.32 16 10 C13.36 9.67 10.72 9.34 8 9 C7.67 6.69 7.34 4.38 7 2 C5.35 2.33 3.7 2.66 2 3 C1.67 4.65 1.34 6.3 1 8 C0.67 8 0.34 8 0 8 C0 5.36 0 2.72 0 0 Z " fill="#01011C" transform="translate(172,49)"/>
<path d="M0 0 C2.5625 0.25 2.5625 0.25 5 1 C5.33 1.66 5.66 2.32 6 3 C5.67 3.99 5.34 4.98 5 6 C3.02 6 1.04 6 -1 6 C-1.625 4.125 -1.625 4.125 -2 2 C-1.34 1.34 -0.68 0.68 0 0 Z " fill="#110D4B" transform="translate(289,46)"/>
<path d="M0 0 C0.66 0 1.32 0 2 0 C2 2.64 2 5.28 2 8 C-3.95703125 8.29296875 -3.95703125 8.29296875 -6 8 C-6.99 7.01 -7.98 6.02 -9 5 C-4.545 4.505 -4.545 4.505 0 4 C0 2.68 0 1.36 0 0 Z " fill="#010115" transform="translate(166,83)"/>
<path d="M0 0 C6.78725416 6.43003026 6.78725416 6.43003026 7.1953125 11.359375 C7.16050781 12.54273437 7.16050781 12.54273437 7.125 13.75 C7.10695312 14.54921875 7.08890625 15.3484375 7.0703125 16.171875 C7.03550781 17.07679687 7.03550781 17.07679687 7 18 C4.47519307 15.47519307 4.44261367 13.86176966 3.875 10.375 C3.70742187 9.37210938 3.53984375 8.36921875 3.3671875 7.3359375 C3.24601563 6.56507812 3.12484375 5.79421875 3 5 C2.34 5 1.68 5 1 5 C0.67 3.35 0.34 1.7 0 0 Z " fill="#040228" transform="translate(240,60)"/>
<path d="M0 0 C2.31 0 4.62 0 7 0 C6.67 1.32 6.34 2.64 6 4 C5.34 4 4.68 4 4 4 C4 4.66 4 5.32 4 6 C2.35 5.67 0.7 5.34 -1 5 C-0.67 3.35 -0.34 1.7 0 0 Z " fill="#050239" transform="translate(206,58)"/>
<path d="M0 0 C-0.64187918 5.13503344 -1.68272247 9.9943454 -3 15 C-3.66 14.67 -4.32 14.34 -5 14 C-4.91621094 13.39671875 -4.83242187 12.7934375 -4.74609375 12.171875 C-4.64425781 11.37265625 -4.54242188 10.5734375 -4.4375 9.75 C-4.33308594 8.96109375 -4.22867188 8.1721875 -4.12109375 7.359375 C-3.99972651 4.99467126 -4.30366743 3.2488963 -5 1 C-2 0 -2 0 0 0 Z " fill="#06032C" transform="translate(79,70)"/>
<path d="M0 0 C0.66 0.66 1.32 1.32 2 2 C0.68 2.33 -0.64 2.66 -2 3 C-2 2.34 -2 1.68 -2 1 C-6.29 1 -10.58 1 -15 1 C-15.33 0.34 -15.66 -0.32 -16 -1 C-10.4498269 -2.46057187 -5.41347306 -1.66493506 0 0 Z " fill="#05022B" transform="translate(238,58)"/>
<path d="M0 0 C2.97 0 5.94 0 9 0 C9.66 1.32 10.32 2.64 11 4 C5.62694301 4.35233161 5.62694301 4.35233161 3 4 C1 2 1 2 0 0 Z " fill="#070632" transform="translate(106,84)"/>
<path d="M0 0 C0.66 0.33 1.32 0.66 2 1 C2 5.95 2 10.9 2 16 C1.34 16.33 0.68 16.66 0 17 C-1.15837573 13.52487282 -0.77265943 11.86329714 -0.0625 8.3125 C0.13214844 7.31863281 0.32679687 6.32476562 0.52734375 5.30078125 C0.68332031 4.54152344 0.83929688 3.78226563 1 3 C0.34 3 -0.32 3 -1 3 C-0.67 2.01 -0.34 1.02 0 0 Z " fill="#060234" transform="translate(89,45)"/>
<path d="M0 0 C2.31 0 4.62 0 7 0 C7 0.66 7 1.32 7 2 C5.35 2.33 3.7 2.66 2 3 C1.67 7.29 1.34 11.58 1 16 C0.67 16 0.34 16 0 16 C0 10.72 0 5.44 0 0 Z " fill="#1A144B" transform="translate(286,59)"/>
<path d="M0 0 C2.15026166 0.9639104 3.74701933 1.71087924 5.3125 3.5 C7.85896287 5.76352255 10.74445256 6.2014695 14 7 C13.67 7.66 13.34 8.32 13 9 C8.13168719 8.54713369 5.51440774 7.41678531 2 4 C0.6875 1.75 0.6875 1.75 0 0 Z " fill="#07052A" transform="translate(302,82)"/>
<path d="M0 0 C3.00617269 3.00617269 2.59585316 5.82381598 3 10 C5.97 10.495 5.97 10.495 9 11 C9 11.33 9 11.66 9 12 C6.36 12 3.72 12 1 12 C-0.3271261 8.0186217 -0.06915913 4.14954773 0 0 Z " fill="#000011" transform="translate(272,79)"/>
<path d="M0 0 C2.31 0 4.62 0 7 0 C5.61918777 4.1424367 3.40174442 5.32203099 0 8 C-1.43088528 5.13822943 -0.59991697 3.06624227 0 0 Z " fill="#08052F" transform="translate(221,62)"/>
<path d="M0 0 C0.29296875 6.0546875 0.29296875 6.0546875 0 8 C-3 10 -3 10 -6 10 C-6 9.34 -6 8.68 -6 8 C-5.01 7.67 -4.02 7.34 -3 7 C-3 5.02 -3 3.04 -3 1 C-1 0 -1 0 0 0 Z " fill="#080628" transform="translate(327,81)"/>
<path d="M0 0 C0.6875 1.625 0.6875 1.625 1 4 C-0.4375 7.25 -0.4375 7.25 -2 10 C-4.97 9.505 -4.97 9.505 -8 9 C-7.4225 8.814375 -6.845 8.62875 -6.25 8.4375 C-2.89572157 6.29448878 -1.82092004 3.51177437 0 0 Z " fill="#020126" transform="translate(238,75)"/>
<path d="M0 0 C2.3143062 4.02795278 1.8134922 6.4444437 1 11 C1 12.32 1 13.64 1 15 C0.34 15 -0.32 15 -1 15 C-1.97798721 11.20431539 -1.92653069 8.4994001 -1.0625 4.6875 C-0.86785156 3.80449219 -0.67320312 2.92148438 -0.47265625 2.01171875 C-0.31667969 1.34785156 -0.16070312 0.68398437 0 0 Z " fill="#06042B" transform="translate(213,65)"/>
<path d="M0 0 C2.46313739 1.82748903 3.83428618 3.22976216 4.48828125 6.26953125 C4.72518293 8.51479346 4.90361349 10.74455578 5 13 C4.34 13 3.68 13 3 13 C2.86722656 12.39671875 2.73445313 11.7934375 2.59765625 11.171875 C2.42105469 10.37265625 2.24445312 9.5734375 2.0625 8.75 C1.88847656 7.96109375 1.71445312 7.1721875 1.53515625 6.359375 C1.052444 4.23121297 0.53836822 2.11467158 0 0 Z " fill="#07033D" transform="translate(59,66)"/>
<path d="M0 0 C0.33 0.99 0.66 1.98 1 3 C0.401875 2.814375 -0.19625 2.62875 -0.8125 2.4375 C-3.16408762 1.77906313 -3.16408762 1.77906313 -6 3 C-8.3406065 2.72230092 -10.67624308 2.39460023 -13 2 C-13 1.67 -13 1.34 -13 1 C-8.60563789 0.14256349 -4.47427924 -0.08948558 0 0 Z " fill="#13104E" transform="translate(124,73)"/>
<path d="M0 0 C1.6026782 -0.10824843 3.20745748 -0.18570645 4.8125 -0.25 C5.70582031 -0.29640625 6.59914063 -0.3428125 7.51953125 -0.390625 C10 0 10 0 11.82421875 1.890625 C13 4 13 4 13 6 C12.34 6 11.68 6 11 6 C10.34 5.01 9.68 4.02 9 3 C6.80545319 2.42006301 6.80545319 2.42006301 4.375 2.3125 C3.55773437 2.24675781 2.74046875 2.18101563 1.8984375 2.11328125 C1.27195312 2.07589844 0.64546875 2.03851563 0 2 C0 1.34 0 0.68 0 0 Z " fill="#060425" transform="translate(107,63)"/>
<path d="M0 0 C0.33 0.66 0.66 1.32 1 2 C3.31 2 5.62 2 8 2 C8 2.99 8 3.98 8 5 C5.36 5 2.72 5 0 5 C-0.5625 3.0625 -0.5625 3.0625 -1 1 C-0.67 0.67 -0.34 0.34 0 0 Z " fill="#01011D" transform="translate(181,81)"/>
<path d="M0 0 C1.32 0 2.64 0 4 0 C3.67 1.65 3.34 3.3 3 5 C2.01 4.67 1.02 4.34 0 4 C-0.33 4.66 -0.66 5.32 -1 6 C-1.33 5.01 -1.66 4.02 -2 3 C-1.34 2.01 -0.68 1.02 0 0 Z " fill="#0D0942" transform="translate(316,56)"/>
<path d="M0 0 C0.66 0 1.32 0 2 0 C5 5.75 5 5.75 5 8 C2 7 2 7 0 4 C0 2.68 0 1.36 0 0 Z " fill="#030127" transform="translate(286,82)"/>
<path d="M0 0 C0.33 0 0.66 0 1 0 C1.22134176 2.12368444 1.42670007 4.24904024 1.625 6.375 C1.74101563 7.55835937 1.85703125 8.74171875 1.9765625 9.9609375 C1.98429687 10.96382812 1.99203125 11.96671875 2 13 C1.34 13.66 0.68 14.32 0 15 C-1.5111995 9.96266834 -0.64599773 5.11828973 0 0 Z " fill="#060235" transform="translate(90,71)"/>
<path d="M0 0 C0.66 0 1.32 0 2 0 C2 2.97 2 5.94 2 9 C0 8 0 8 -0.6875 6.1875 C-1.02688538 3.81180233 -0.72856341 2.26664171 0 0 Z " fill="#070338" transform="translate(137,71)"/>
<path d="M0 0 C0.99 0.99 1.98 1.98 3 3 C2.01 3.495 2.01 3.495 1 4 C0.34 3.67 -0.32 3.34 -1 3 C-1 4.32 -1 5.64 -1 7 C-1.66 6.67 -2.32 6.34 -3 6 C-2.625 3.5625 -2.625 3.5625 -2 1 C-1.34 0.67 -0.68 0.34 0 0 Z " fill="#0A0641" transform="translate(176,50)"/>
<path d="M0 0 C0.99 0.66 1.98 1.32 3 2 C-1.43076923 5.07692308 -1.43076923 5.07692308 -4.3125 4.6875 C-4.869375 4.460625 -5.42625 4.23375 -6 4 C-4.02 2.68 -2.04 1.36 0 0 Z " fill="#01011C" transform="translate(238,86)"/>
<path d="M0 0 C0.66 0 1.32 0 2 0 C2 0.66 2 1.32 2 2 C1.38125 2.0825 0.7625 2.165 0.125 2.25 C-2.18437567 2.81258459 -2.18437567 2.81258459 -3.25 5.0625 C-3.4975 5.701875 -3.745 6.34125 -4 7 C-4.66 6.67 -5.32 6.34 -6 6 C-4 4 -2 2 0 0 Z " fill="#020127" transform="translate(220,58)"/>
<path d="M0 0 C2.97 0 5.94 0 9 0 C9 0.99 9 1.98 9 3 C6.03 2.67 3.06 2.34 0 2 C0 1.34 0 0.68 0 0 Z " fill="#030324" transform="translate(250,57)"/>
</svg>
