<?xml version="1.0" encoding="UTF-8"?>
<svg version="1.1" xmlns="http://www.w3.org/2000/svg" width="311" height="162">
<path d="M0 0 C0 4.95 0 9.9 0 15 C-3.74674874 17.15168718 -7.49713511 19.29652869 -11.25 21.4375 C-12.31347656 22.04916016 -13.37695312 22.66082031 -14.47265625 23.29101562 C-16.00986328 24.1659668 -16.00986328 24.1659668 -17.578125 25.05859375 C-18.52075195 25.59798584 -19.46337891 26.13737793 -20.43457031 26.69311523 C-23 28 -23 28 -27 29 C-27.495 22.565 -27.495 22.565 -28 16 C-32.00254456 15.90818866 -32.00254456 15.90818866 -36 16 C-39.33333333 19.33333333 -37.63844924 25.29984008 -38 30 C-25.46 30 -12.92 30 0 30 C0 34.29 0 38.58 0 43 C-16.17 43 -32.34 43 -49 43 C-49.04125 38.875 -49.0825 34.75 -49.125 30.5 C-49.14320801 29.21544922 -49.16141602 27.93089844 -49.18017578 26.60742188 C-49.21565876 19.24985361 -49.14173842 12.70685496 -45.375 6.1875 C-41.60885885 2.71868579 -37.81709239 1.16206623 -32.69140625 0.8671875 C-26.93240013 1.19738347 -23.99918093 2.90083955 -20 7 C-19.67 7.66 -19.34 8.32 -19 9 C-13.82767014 7.10698464 -9.34306862 4.29975786 -4.64453125 1.4609375 C-2 0 -2 0 0 0 Z " fill="#030506" transform="translate(57,105)"/>
<path d="M0 0 C1.20668559 4.94741094 0.84628229 8.25241697 -1 13 C-1.680625 13.66 -2.36125 14.32 -3.0625 15 C-5.84174791 17.86890107 -5.93106343 20.0706153 -6 24 C-4.80246122 26.83627605 -3.87395324 28.43262717 -1.28515625 30.11328125 C3.86336938 32.11108521 10.98977771 32.16030387 16.1484375 30.171875 C18.36719164 28.72156741 19.80993188 27.38013624 21 25 C21.50070321 21.62642666 21.50070321 21.62642666 21 18 C18.68726558 15.1028059 18.68726558 15.1028059 16 13 C15 12 15 12 14.90234375 9.27734375 C14.91394531 8.17519531 14.92554688 7.07304687 14.9375 5.9375 C14.94652344 4.83277344 14.95554688 3.72804688 14.96484375 2.58984375 C14.97644531 1.73519531 14.98804688 0.88054688 15 0 C20.65722204 0.53878305 24.6068417 2.2837983 28.41796875 6.609375 C33.14370044 12.87339472 35.04376934 19.17817294 34 27 C31.80558215 34.29495662 28.06346676 39.22627388 21.5625 43.25 C18.09523117 44.95321977 15.815868 45.69473056 12 46 C11.34386719 46.06316406 10.68773438 46.12632813 10.01171875 46.19140625 C2.7279919 46.59246403 -4.22731533 44.77120837 -10.1484375 40.421875 C-15.79816 35.12972987 -18.12597897 29.81158567 -18.4375 22.0625 C-18.22689997 15.30645111 -16.77436649 10.86926433 -12.05859375 5.9921875 C-5.47203947 0 -5.47203947 0 0 0 Z " fill="#030406" transform="translate(25,14)"/>
<path d="M0 0 C6.41894308 1.31136671 12.46373242 3.05583356 18.62890625 5.2578125 C19.50401352 5.56572723 20.37912079 5.87364197 21.28074646 6.19088745 C24.04307064 7.16407739 26.80279711 8.14440471 29.5625 9.125 C31.44839978 9.7908404 33.33446604 10.45620949 35.22070312 11.12109375 C39.81574344 12.74195681 44.40847009 14.36922071 49 16 C49 20.62 49 25.24 49 30 C44.86028012 31.47643976 40.72022827 32.95188212 36.5793457 34.42504883 C35.17811179 34.92385807 33.77706245 35.42318617 32.3762207 35.9230957 C24.82117957 38.61880388 17.25660908 41.2862563 9.66015625 43.86328125 C7.84656616 44.4807019 7.84656616 44.4807019 5.99633789 45.1105957 C3 46 3 46 0 46 C0 41.38 0 36.76 0 32 C2.93662051 31.05967281 5.87424652 30.12270032 8.8125 29.1875 C10.03356445 28.79594727 10.03356445 28.79594727 11.27929688 28.39648438 C17.47639346 26.42799487 23.71610274 24.66966349 30 23 C29.33991943 22.80365967 28.67983887 22.60731934 27.99975586 22.4050293 C24.97770566 21.50347439 21.95760708 20.59554188 18.9375 19.6875 C17.89916016 19.37876953 16.86082031 19.07003906 15.79101562 18.75195312 C10.36341801 17.11505861 5.1500802 15.37415045 0 13 C0 8.71 0 4.42 0 0 Z " fill="#7E3F97" transform="translate(8,60)"/>
<path d="M0 0 C1.98 0 3.96 0 6 0 C6 7.26 6 14.52 6 22 C4.02 22 2.04 22 0 22 C-0.495 16.555 -0.495 16.555 -1 11 C-1.99 11.66 -2.98 12.32 -4 13 C-4.3256706 14.94569679 -4.3256706 14.94569679 -4.125 17.0625 C-4.08375 18.361875 -4.0425 19.66125 -4 21 C-5 22 -5 22 -8.0625 22.0625 C-9.031875 22.041875 -10.00125 22.02125 -11 22 C-11.495 20.515 -11.495 20.515 -12 19 C-13.051875 19.99 -13.051875 19.99 -14.125 21 C-17.49827337 23.34662495 -18.97749297 23.59909679 -23 23 C-25.375 21.5 -25.375 21.5 -27 20 C-27.33 20.66 -27.66 21.32 -28 22 C-30.67369168 23.24135685 -31.90167986 23.02904913 -34.75 22.1875 C-37 20 -37 20 -37.31640625 17.5703125 C-37.31280684 15.02912735 -37.21374308 12.53166804 -37 10 C-37.66 10 -38.32 10 -39 10 C-38.814375 10.721875 -38.62875 11.44375 -38.4375 12.1875 C-37.95916826 15.26248979 -37.92337906 17.07774316 -39 20 C-41.68097955 22.22138306 -43.55706835 22.9354058 -47 23.4375 C-50.93741232 22.86329404 -52.44829103 22.07706081 -55 19 C-55.72788859 15.85364286 -55.69514931 13.15059605 -55 10 C-52.875 6.9375 -52.875 6.9375 -50 5 C-46.37170989 4.4076261 -44.74008151 4.5325801 -41.625 6.5 C-41.08875 6.995 -40.5525 7.49 -40 8 C-39.67 7.34 -39.34 6.68 -39 6 C-38.34 6 -37.68 6 -37 6 C-37 4.35 -37 2.7 -37 1 C-35.02 1 -33.04 1 -31 1 C-31 2.65 -31 4.3 -31 6 C-30.01 6 -29.02 6 -28 6 C-27.67 6.66 -27.34 7.32 -27 8 C-26.46375 7.505 -25.9275 7.01 -25.375 6.5 C-22.28147204 4.54619287 -20.60630834 4.48481309 -17 5 C-14.125 7 -14.125 7 -12 9 C-11.34 7.68 -10.68 6.36 -10 5 C-6.7 5 -3.4 5 0 5 C0 3.35 0 1.7 0 0 Z M-31 10 C-31 12.31 -31 14.62 -31 17 C-30.01 17.33 -29.02 17.66 -28 18 C-28 15.36 -28 12.72 -28 10 C-28.99 10 -29.98 10 -31 10 Z M-49 16 C-48.67 16.66 -48.34 17.32 -48 18 C-46.68 17.67 -45.36 17.34 -44 17 C-44 16.67 -44 16.34 -44 16 C-45.65 16 -47.3 16 -49 16 Z M-22 16 C-21.67 16.66 -21.34 17.32 -21 18 C-19.68 17.67 -18.36 17.34 -17 17 C-17 16.67 -17 16.34 -17 16 C-18.65 16 -20.3 16 -22 16 Z " fill="#77408E" transform="translate(144,70)"/>
<path d="M0 0 C0.7734375 0.00386719 1.546875 0.00773437 2.34375 0.01171875 C4.5 0.3125 4.5 0.3125 7.5 2.3125 C7.83 1.6525 8.16 0.9925 8.5 0.3125 C10.48 0.3125 12.46 0.3125 14.5 0.3125 C15.16 1.9625 15.82 3.6125 16.5 5.3125 C17.16 3.6625 17.82 2.0125 18.5 0.3125 C21.5 0.3125 24.5 0.3125 27.5 0.3125 C28.22316406 0.28929687 28.94632813 0.26609375 29.69140625 0.2421875 C30.47386719 0.22414062 31.25632813 0.20609375 32.0625 0.1875 C32.84753906 0.16429687 33.63257813 0.14109375 34.44140625 0.1171875 C36.5 0.3125 36.5 0.3125 38.5 2.3125 C38.80599063 4.88166657 39.01087087 7.36008384 39.125 9.9375 C39.18300781 10.99710938 39.18300781 10.99710938 39.2421875 12.078125 C39.33647724 13.82248524 39.41932891 15.56745691 39.5 17.3125 C37.39646505 17.3935206 35.29204048 17.45169907 33.1875 17.5 C32.01574219 17.53480469 30.84398437 17.56960937 29.63671875 17.60546875 C26.5 17.3125 26.5 17.3125 24.5703125 15.9609375 C23.5 14.3125 23.5 14.3125 23.6875 11.75 C24.5 9.3125 24.5 9.3125 26.5 7.3125 C25.51 7.3125 24.52 7.3125 23.5 7.3125 C23.11908203 8.55966797 23.11908203 8.55966797 22.73046875 9.83203125 C22.38628906 10.91871094 22.04210937 12.00539063 21.6875 13.125 C21.18283203 14.74341797 21.18283203 14.74341797 20.66796875 16.39453125 C19.55959476 19.16361275 18.91339389 20.60892784 16.5 22.3125 C12.8125 22.5 12.8125 22.5 9.5 22.3125 C9.875 19.875 9.875 19.875 10.5 17.3125 C11.16 16.9825 11.82 16.6525 12.5 16.3125 C11.84 14.0025 11.18 11.6925 10.5 9.3125 C10.04625 10.26125 9.5925 11.21 9.125 12.1875 C7.5 15.3125 7.5 15.3125 5.5 17.3125 C2.11298567 17.87306857 -1.1085559 17.82585869 -4.5 17.3125 C-7.1875 15.375 -7.1875 15.375 -8.5 12.3125 C-8.69204063 8.39624286 -8.5826236 4.79903822 -6.22265625 1.55859375 C-4.01667462 -0.03711632 -2.70118638 -0.0585257 0 0 Z M8.5 3.3125 C9.5 5.3125 9.5 5.3125 9.5 5.3125 Z M31.5 4.3125 C31.17 4.9725 30.84 5.6325 30.5 6.3125 C31.16 6.3125 31.82 6.3125 32.5 6.3125 C32.17 5.6525 31.84 4.9925 31.5 4.3125 Z M-1.5 5.3125 C-2.50217064 8.89577753 -2.50217064 8.89577753 -1.5 12.3125 C0.15 11.9825 1.8 11.6525 3.5 11.3125 C3.5 9.6625 3.5 8.0125 3.5 6.3125 C1.85 5.9825 0.2 5.6525 -1.5 5.3125 Z M31.5 10.3125 C30.84 10.9725 30.18 11.6325 29.5 12.3125 C30.49 12.3125 31.48 12.3125 32.5 12.3125 C32.17 11.6525 31.84 10.9925 31.5 10.3125 Z " fill="#040304" transform="translate(99.5,47.6875)"/>
<path d="M0 0 C3 2.5 3 2.5 5 5 C5.4125 4.175 5.825 3.35 6.25 2.5 C10.17659254 -1.06962958 13.38743882 -0.39047804 18.515625 -0.17578125 C19.33546875 -0.11777344 20.1553125 -0.05976562 21 0 C21.08710289 3.10398978 21.14042309 6.20766548 21.1875 9.3125 C21.21263672 10.19357422 21.23777344 11.07464844 21.26367188 11.98242188 C21.27333984 12.82998047 21.28300781 13.67753906 21.29296875 14.55078125 C21.3086792 15.33106689 21.32438965 16.11135254 21.34057617 16.9152832 C20.91150819 19.54167136 20.08832134 20.39990235 18 22 C15.625 22.43359375 15.625 22.43359375 13 22.4375 C12.13375 22.45683594 11.2675 22.47617188 10.375 22.49609375 C8 22 8 22 6.1640625 20.1328125 C4.63900224 17.33857457 5.22730231 16.01352097 6 13 C5.67 12.01 5.34 11.02 5 10 C4.71125 10.78375 4.4225 11.5675 4.125 12.375 C3 15 3 15 1 17 C-3.18234503 17.69436616 -6.84199261 17.6496139 -10.5625 15.5625 C-12.71240656 11.73005787 -12.75551032 8.28909505 -12 4 C-9.28824767 -0.63257689 -5.00746242 -1.19980783 0 0 Z M-5 4 C-5.33 4.66 -5.66 5.32 -6 6 C-4.68 5.67 -3.36 5.34 -2 5 C-2.99 4.67 -3.98 4.34 -5 4 Z M12 5 C11.67 6.65 11.34 8.3 11 10 C12.32 10.33 13.64 10.66 15 11 C15 9.02 15 7.04 15 5 C14.01 5 13.02 5 12 5 Z M-6 10 C-5.67 10.66 -5.34 11.32 -5 12 C-3.35 11.67 -1.7 11.34 0 11 C0 10.67 0 10.34 0 10 C-1.98 10 -3.96 10 -6 10 Z M11 16 C11.33 16.66 11.66 17.32 12 18 C12.99 18 13.98 18 15 18 C15 17.34 15 16.68 15 16 C13.68 16 12.36 16 11 16 Z " fill="#030303" transform="translate(136,103)"/>
<path d="M0 0 C2.33470194 1.45473803 4.01170253 3.06019759 6 5 C5.67 5.99 5.34 6.98 5 8 C3.0625 8.8125 3.0625 8.8125 1 9 C0.34 8.34 -0.32 7.68 -1 7 C-3.57061311 6.35232207 -3.57061311 6.35232207 -6 6 C-6 9.3 -6 12.6 -6 16 C-4.02 16.33 -2.04 16.66 0 17 C0 16.34 0 15.68 0 15 C1.32 15 2.64 15 4 15 C4.26554687 14.43410156 4.53109375 13.86820313 4.8046875 13.28515625 C5.15789062 12.55167969 5.51109375 11.81820312 5.875 11.0625 C6.22304687 10.33160156 6.57109375 9.60070312 6.9296875 8.84765625 C8 7 8 7 10 6 C14.22773846 5.50213891 17.79863324 5.32606255 21.5625 7.4375 C23.7145847 11.27382489 23.74831272 14.70704811 23 19 C21.5625 21.5625 21.5625 21.5625 19 23 C14.26348721 23.65832398 11.03559625 23.6903975 7 21 C7 20.34 7 19.68 7 19 C6.13375 19.639375 5.2675 20.27875 4.375 20.9375 C0.17052789 23.50689962 -2.77719614 24.52923901 -7.625 23.375 C-10.78656978 21.5446175 -12.19138392 20.21531748 -14 17 C-14.75106712 12.83435923 -15.00935919 8.85483719 -12.94140625 5.0546875 C-8.99199711 0.20289111 -6.14826879 -0.61482688 0 0 Z M13 11 C12.34 11.66 11.68 12.32 11 13 C11.3185177 15.10820797 11.3185177 15.10820797 12 17 C13.94603274 17.59070014 13.94603274 17.59070014 16 18 C17.29633621 16.93354885 17.29633621 16.93354885 17.0625 14.4375 C17.041875 13.633125 17.02125 12.82875 17 12 C15.10820797 11.3185177 15.10820797 11.3185177 13 11 Z " fill="#030303" transform="translate(85,97)"/>
<path d="M0 0 C1.48831242 0.00667405 2.97660807 0.01863442 4.46484375 0.03515625 C5.22345703 0.03966797 5.98207031 0.04417969 6.76367188 0.04882812 C8.64326246 0.06064945 10.52281274 0.07858547 12.40234375 0.09765625 C13.06234375 2.07765625 13.72234375 4.05765625 14.40234375 6.09765625 C14.62921875 5.29328125 14.85609375 4.48890625 15.08984375 3.66015625 C15.52296875 2.81453125 15.95609375 1.96890625 16.40234375 1.09765625 C19.02734375 0.28515625 19.02734375 0.28515625 21.40234375 0.09765625 C22.42576706 3.23902163 22.38013985 5.03083169 21.29296875 8.13671875 C20.90238281 9.25433594 20.90238281 9.25433594 20.50390625 10.39453125 C20.22289062 11.1628125 19.941875 11.93109375 19.65234375 12.72265625 C19.38679688 13.49867187 19.12125 14.2746875 18.84765625 15.07421875 C16.78457447 20.84283577 16.78457447 20.84283577 13.40234375 23.09765625 C10.71484375 23.22265625 10.71484375 23.22265625 8.40234375 23.09765625 C8.07234375 21.44765625 7.74234375 19.79765625 7.40234375 18.09765625 C8.39234375 17.43765625 9.38234375 16.77765625 10.40234375 16.09765625 C9.41234375 12.79765625 8.42234375 9.49765625 7.40234375 6.09765625 C5.75234375 6.09765625 4.10234375 6.09765625 2.40234375 6.09765625 C2.40234375 9.72765625 2.40234375 13.35765625 2.40234375 17.09765625 C0.40279629 17.14019981 -1.59807261 17.13846408 -3.59765625 17.09765625 C-5.35325567 15.34205683 -4.72987544 13.06183183 -4.734375 10.7265625 C-4.73050781 10.02402344 -4.72664062 9.32148437 -4.72265625 8.59765625 C-4.72652344 7.89511719 -4.73039063 7.19257812 -4.734375 6.46875 C-4.7221581 0.12818019 -4.7221581 0.12818019 0 0 Z " fill="#7B4490" transform="translate(188.59765625,74.90234375)"/>
<path d="M0 0 C2.3925 -0.103125 4.785 -0.20625 7.25 -0.3125 C7.99668945 -0.35802002 8.74337891 -0.40354004 9.51269531 -0.45043945 C13.24109965 -0.52815633 14.71878262 -0.25829684 17.4921875 2.2890625 C19.52395906 5.94204038 19.04952793 8.02678713 18 12 C17.34 12.66 16.68 13.32 16 14 C16.495 14.94875 16.99 15.8975 17.5 16.875 C19 20 19 20 19 22 C15.6875 22.3125 15.6875 22.3125 12 22 C10.04421883 19.60259082 9 18.12413392 9 15 C8.01 15 7.02 15 6 15 C6 17.31 6 19.62 6 22 C4.02 22 2.04 22 0 22 C0 14.74 0 7.48 0 0 Z M6 5 C6 6.32 6 7.64 6 9 C7.65 9 9.3 9 11 9 C11 7.68 11 6.36 11 5 C9.35 5 7.7 5 6 5 Z " fill="#030305" transform="translate(72,43)"/>
<path d="M0 0 C0.66 0 1.32 0 2 0 C2.33 0.99 2.66 1.98 3 3 C3.66 3.165 4.32 3.33 5 3.5 C5.66 3.665 6.32 3.83 7 4 C7.33 4.99 7.66 5.98 8 7 C9.32 5.68 10.64 4.36 12 3 C13.32527172 6.6297251 12.66675274 8.62288221 11.1875 12.125 C10.83042969 12.99382812 10.47335938 13.86265625 10.10546875 14.7578125 C9 17 9 17 7 19 C4.875 18.625 4.875 18.625 3 18 C3 17.34 3 16.68 3 16 C3.99 16 4.98 16 6 16 C5.855625 15.278125 5.71125 14.55625 5.5625 13.8125 C5.04166667 11.20833333 4.52083333 8.60416667 4 6 C3.34 6 2.68 6 2 6 C2.66 8.64 3.32 11.28 4 14 C-2 14 -2 14 -4.5625 13.9375 C-6.94826827 13.71868512 -6.94826827 13.71868512 -8 15 C-10.4375 15.1875 -10.4375 15.1875 -13 15 C-15 13 -15 13 -15.125 9.875 C-15.08375 8.92625 -15.0425 7.9775 -15 7 C-15.99 7 -16.98 7 -18 7 C-18 9.31 -18 11.62 -18 14 C-18.99 14 -19.98 14 -21 14 C-21 10.7 -21 7.4 -21 4 C-16.88027398 3.10924843 -13.70085886 2.88736197 -9.5 3.5625 C-6.0347289 4.2512738 -6.0347289 4.2512738 -3 3 C-2.34 3.33 -1.68 3.66 -1 4 C-0.67 2.68 -0.34 1.36 0 0 Z M-12 10 C-12 10.66 -12 11.32 -12 12 C-11.01 11.67 -10.02 11.34 -9 11 C-9.99 10.67 -10.98 10.34 -12 10 Z " fill="#050506" transform="translate(140,129)"/>
<path d="M0 0 C1.98 0 3.96 0 6 0 C7.62319476 3.66983162 9.1069425 7.08095153 10 11 C10.20496094 10.28972656 10.40992187 9.57945313 10.62109375 8.84765625 C10.89050781 7.92855469 11.15992187 7.00945312 11.4375 6.0625 C11.70433594 5.14597656 11.97117187 4.22945313 12.24609375 3.28515625 C13 1 13 1 14 0 C15.99958364 -0.04080783 18.00045254 -0.04254356 20 0 C19.42208517 5.10929244 18.2819361 9.51611611 16.5 14.375 C16.0565625 15.59960938 15.613125 16.82421875 15.15625 18.0859375 C14 21 14 21 13 22 C11.00041636 22.04080783 8.99954746 22.04254356 7 22 C0 6.96954315 0 6.96954315 0 0 Z " fill="#7C3E95" transform="translate(70,70)"/>
<path d="M0 0 C2.12890625 0.48828125 2.12890625 0.48828125 4.69140625 2.67578125 C6.58390294 6.37849216 6.4048152 8.6121004 5.81640625 12.61328125 C4.96515143 14.93488531 4.04411196 15.9267847 2.12890625 17.48828125 C-0.93970856 18.16642817 -3.78868089 18.07249307 -6.87109375 17.48828125 C-10.19765005 14.81080911 -10.76962492 13.19856307 -11.37109375 8.98828125 C-10.33289783 1.72090981 -6.99389218 -0.4032722 0 0 Z M-2.87109375 4.48828125 C-3.20109375 5.14828125 -3.53109375 5.80828125 -3.87109375 6.48828125 C-2.55109375 6.15828125 -1.23109375 5.82828125 0.12890625 5.48828125 C-0.86109375 5.15828125 -1.85109375 4.82828125 -2.87109375 4.48828125 Z M-4.87109375 10.48828125 C-4.54109375 11.14828125 -4.21109375 11.80828125 -3.87109375 12.48828125 C-2.22109375 12.15828125 -0.57109375 11.82828125 1.12890625 11.48828125 C1.12890625 11.15828125 1.12890625 10.82828125 1.12890625 10.48828125 C-0.85109375 10.48828125 -2.83109375 10.48828125 -4.87109375 10.48828125 Z " fill="#030303" transform="translate(168.87109375,102.51171875)"/>
<path d="M0 0 C2.2109375 1.59765625 2.2109375 1.59765625 4 4 C4.390625 7.234375 4.390625 7.234375 4.25 10.75 C4.21390625 11.92046875 4.1778125 13.0909375 4.140625 14.296875 C4.07101563 15.63492188 4.07101563 15.63492188 4 17 C2.06403108 17.22211116 0.12610672 17.42722992 -1.8125 17.625 C-3.43091797 17.79902344 -3.43091797 17.79902344 -5.08203125 17.9765625 C-8 18 -8 18 -11 16 C-12.0950504 13.47296063 -12.15295704 12.4118074 -11.1875 9.8125 C-10 8 -10 8 -8 7 C-8.99 6.67 -9.98 6.34 -11 6 C-8.75142032 -0.26390054 -6.64404259 -0.57276229 0 0 Z M-5 11 C-5.33 11.66 -5.66 12.32 -6 13 C-5.01 13 -4.02 13 -3 13 C-3 12.34 -3 11.68 -3 11 C-3.66 11 -4.32 11 -5 11 Z " fill="#7B428F" transform="translate(179,75)"/>
<path d="M0 0 C1.08152344 -0.01417969 2.16304687 -0.02835937 3.27734375 -0.04296875 C6.0625 0.1875 6.0625 0.1875 8.0625 2.1875 C8.20747985 4.76814129 8.24927545 7.23693884 8.1875 9.8125 C8.17847656 10.51890625 8.16945312 11.2253125 8.16015625 11.953125 C8.13657603 13.69806098 8.10070461 15.44282295 8.0625 17.1875 C6.0825 17.1875 4.1025 17.1875 2.0625 17.1875 C2.0625 13.2275 2.0625 9.2675 2.0625 5.1875 C1.0725 5.6825 1.0725 5.6825 0.0625 6.1875 C-0.4058265 8.77355332 -0.4058265 8.77355332 -0.5625 11.75 C-0.67464844 13.26787109 -0.67464844 13.26787109 -0.7890625 14.81640625 C-0.83804688 15.59886719 -0.88703125 16.38132812 -0.9375 17.1875 C-2.9175 17.1875 -4.8975 17.1875 -6.9375 17.1875 C-6.96434679 14.54159986 -6.98426357 11.89596904 -7 9.25 C-7.00837891 8.49525391 -7.01675781 7.74050781 -7.02539062 6.96289062 C-7.03402441 5.03755687 -6.98974333 3.11214419 -6.9375 1.1875 C-5.13003866 -0.61996134 -2.43304219 0.01446517 0 0 Z " fill="#7C4C8E" transform="translate(157.9375,74.8125)"/>
<path d="M0 0 C6.41894308 1.31136671 12.46373242 3.05583356 18.62890625 5.2578125 C19.50401352 5.56572723 20.37912079 5.87364197 21.28074646 6.19088745 C24.04307064 7.16407739 26.80279711 8.14440471 29.5625 9.125 C31.44839978 9.7908404 33.33446604 10.45620949 35.22070312 11.12109375 C39.81574344 12.74195681 44.40847009 14.36922071 49 16 C49 20.62 49 25.24 49 30 C45.20961643 31.33708019 41.41780509 32.66982191 37.625 34 C36.54476562 34.3815625 35.46453125 34.763125 34.3515625 35.15625 C32.8046875 35.69765625 32.8046875 35.69765625 31.2265625 36.25 C30.27346191 36.58515625 29.32036133 36.9203125 28.33837891 37.265625 C26 38 26 38 24 38 C24.33 37.01 24.66 36.02 25 35 C27.31074405 34.25881795 29.64811553 33.59793673 32 33 C32.62777344 32.68417969 33.25554688 32.36835937 33.90234375 32.04296875 C37.73289815 30.13839142 41.90106095 29.18653499 46 28 C46.33 24.7 46.66 21.4 47 18 C46.34 18 45.68 18 45 18 C45 17.34 45 16.68 45 16 C44.34 15.87625 43.68 15.7525 43 15.625 C36.83281371 14.34016952 31.64982894 12.88501903 26 10 C24.35189801 9.52138452 22.702926 9.04544732 21.04858398 8.58886719 C17.17982825 7.4767901 13.37665752 6.15970414 9.5625 4.875 C8.73556641 4.59785156 7.90863281 4.32070312 7.05664062 4.03515625 C5.0372972 3.35815094 3.01858302 2.67926921 1 2 C1 5.3 1 8.6 1 12 C2.7015625 12.433125 2.7015625 12.433125 4.4375 12.875 C5.613125 13.24625 6.78875 13.6175 8 14 C8.33 14.66 8.66 15.32 9 16 C7.68647977 15.69181644 6.37420428 15.37832335 5.0625 15.0625 C4.33160156 14.88847656 3.60070312 14.71445313 2.84765625 14.53515625 C1 14 1 14 0 13 C-0.07258946 10.81360547 -0.08373783 8.62499611 -0.0625 6.4375 C-0.05347656 5.23996094 -0.04445313 4.04242188 -0.03515625 2.80859375 C-0.02355469 1.88175781 -0.01195312 0.95492187 0 0 Z " fill="#724684" transform="translate(8,60)"/>
<path d="M0 0 C2.4375 0.25 2.4375 0.25 5 1 C5.66 1.99 6.32 2.98 7 4 C7.33 3.01 7.66 2.02 8 1 C9.60226955 0.77754607 11.20696767 0.57253331 12.8125 0.375 C13.70582031 0.25898438 14.59914063 0.14296875 15.51953125 0.0234375 C18 0 18 0 21 2 C21.3984375 3.875 21.3984375 3.875 21.375 6 C21.38273437 6.70125 21.39046875 7.4025 21.3984375 8.125 C21 10 21 10 18 12 C15.01896641 11.77642248 13.46564453 11.4014177 11.1875 9.4375 C10.795625 8.963125 10.40375 8.48875 10 8 C8.68 9.32 7.36 10.64 6 12 C5.01 10.02 4.02 8.04 3 6 C2.34 7.98 1.68 9.96 1 12 C0.34 11.67 -0.32 11.34 -1 11 C-1.02688151 9.35425434 -1.04634123 7.70838587 -1.0625 6.0625 C-1.07410156 5.14597656 -1.08570312 4.22945312 -1.09765625 3.28515625 C-1 1 -1 1 0 0 Z M14 7 C14.33 7.66 14.66 8.32 15 9 C15.99 8.67 16.98 8.34 18 8 C16.68 7.67 15.36 7.34 14 7 Z " fill="#030305" transform="translate(97,132)"/>
<path d="M0 0 C0.99 0 1.98 0 3 0 C3 3.96 3 7.92 3 12 C4.98 12 6.96 12 9 12 C9.1546875 10.576875 9.1546875 10.576875 9.3125 9.125 C10 6 10 6 13 4 C16.32240324 4.3241369 17.60776303 4.60776303 20 7 C20.375 9.9375 20.375 9.9375 20 13 C18.375 14.9375 18.375 14.9375 16 16 C13.0625 15.625 13.0625 15.625 10 15 C9.175 15.165 8.35 15.33 7.5 15.5 C4.43369339 16.11326132 2.05222744 15.57019633 -1 15 C-1.02685412 12.68756208 -1.04632841 10.3750373 -1.0625 8.0625 C-1.07410156 6.77472656 -1.08570313 5.48695313 -1.09765625 4.16015625 C-1 1 -1 1 0 0 Z M13 7 C13 8.65 13 10.3 13 12 C13.99 12.33 14.98 12.66 16 13 C17.01111093 9.95086772 17.01111093 9.95086772 16 7 C15.01 7 14.02 7 13 7 Z " fill="#050506" transform="translate(179,128)"/>
<path d="M0 0 C1.99954746 -0.04254356 4.00041636 -0.04080783 6 0 C7.58937556 1.58937556 7.12981143 3.23899846 7.1328125 5.4375 C7.13410156 6.33210938 7.13539063 7.22671875 7.13671875 8.1484375 C7.13285156 9.08945312 7.12898437 10.03046875 7.125 11 C7.12886719 11.94101562 7.13273438 12.88203125 7.13671875 13.8515625 C7.13542969 14.74617188 7.13414062 15.64078125 7.1328125 16.5625 C7.13168457 17.38878906 7.13055664 18.21507813 7.12939453 19.06640625 C7 21 7 21 6 22 C3.5 22.125 3.5 22.125 1 22 C0 21 0 21 -0.11352539 18.95874023 C-0.10828857 18.08419189 -0.10305176 17.20964355 -0.09765625 16.30859375 C-0.09443359 15.36435547 -0.09121094 14.42011719 -0.08789062 13.44726562 C-0.07951172 12.45404297 -0.07113281 11.46082031 -0.0625 10.4375 C-0.05798828 9.44041016 -0.05347656 8.44332031 -0.04882812 7.41601562 C-0.03700007 4.94395151 -0.02051849 2.47200482 0 0 Z " fill="#030304" transform="translate(140,43)"/>
<path d="M0 0 C1.65 0.33 3.3 0.66 5 1 C5 8.26 5 15.52 5 23 C3.02 23 1.04 23 -1 23 C-1.02887512 19.35418313 -1.04675585 15.70839537 -1.0625 12.0625 C-1.07087891 11.02158203 -1.07925781 9.98066406 -1.08789062 8.90820312 C-1.09272461 7.42416992 -1.09272461 7.42416992 -1.09765625 5.91015625 C-1.10289307 4.99371338 -1.10812988 4.07727051 -1.11352539 3.13305664 C-1 1 -1 1 0 0 Z " fill="#020304" transform="translate(118,97)"/>
<path d="M0 0 C1.65 0.33 3.3 0.66 5 1 C5 8.26 5 15.52 5 23 C3.02 23 1.04 23 -1 23 C-1.02887512 19.35418313 -1.04675585 15.70839537 -1.0625 12.0625 C-1.07087891 11.02158203 -1.07925781 9.98066406 -1.08789062 8.90820312 C-1.09272461 7.42416992 -1.09272461 7.42416992 -1.09765625 5.91015625 C-1.10289307 4.99371338 -1.10812988 4.07727051 -1.11352539 3.13305664 C-1 1 -1 1 0 0 Z " fill="#040405" transform="translate(110,97)"/>
<path d="M0 0 C1.32 0.33 2.64 0.66 4 1 C3.98839844 1.62648437 3.97679688 2.25296875 3.96484375 2.8984375 C3.95582031 3.71570313 3.94679688 4.53296875 3.9375 5.375 C3.92589844 6.18710938 3.91429688 6.99921875 3.90234375 7.8359375 C3.85533666 10.04937142 3.85533666 10.04937142 5 12 C5.99 11.67 6.98 11.34 8 11 C8.33 7.37 8.66 3.74 9 0 C9.99 0 10.98 0 12 0 C12.0810206 2.10353495 12.13919907 4.20795952 12.1875 6.3125 C12.22230469 7.48425781 12.25710937 8.65601563 12.29296875 9.86328125 C12 13 12 13 10.7109375 14.9296875 C9 16 9 16 5.4375 15.8125 C2 15 2 15 0 13 C-0.1953125 9.9609375 -0.1953125 9.9609375 -0.125 6.375 C-0.10695313 5.18648437 -0.08890625 3.99796875 -0.0703125 2.7734375 C-0.04710938 1.85820312 -0.02390625 0.94296875 0 0 Z " fill="#030303" transform="translate(72,128)"/>
<path d="M0 0 C0.99 0 1.98 0 3 0 C3 4.95 3 9.9 3 15 C-0.83953369 15.95988342 -2.32874473 15.99223115 -6 15 C-7.89128342 13.10871658 -7.2366852 10.42932274 -7.328125 7.91015625 C-7.16570312 6.96462891 -7.16570312 6.96462891 -7 6 C-4 4 -4 4 -1 4 C-0.67 2.68 -0.34 1.36 0 0 Z M-3 7 C-3.33 8.65 -3.66 10.3 -4 12 C-2.68 12 -1.36 12 0 12 C-0.33 10.35 -0.66 8.7 -1 7 C-1.66 7 -2.32 7 -3 7 Z " fill="#040406" transform="translate(217,128)"/>
<path d="M0 0 C0.99 0.33 1.98 0.66 3 1 C3 3.97 3 6.94 3 10 C2.67 10 2.34 10 2 10 C2 7.36 2 4.72 2 2 C1.01 2.495 1.01 2.495 0 3 C-0.4683265 5.58605332 -0.4683265 5.58605332 -0.625 8.5625 C-0.73714844 10.08037109 -0.73714844 10.08037109 -0.8515625 11.62890625 C-0.90054688 12.41136719 -0.94953125 13.19382812 -1 14 C-2.98 14 -4.96 14 -7 14 C-7 9.38 -7 4.76 -7 0 C-4.30224476 -1.34887762 -2.88231982 -0.70300484 0 0 Z " fill="#704284" transform="translate(158,78)"/>
<path d="M0 0 C-0.63808594 0.19335938 -1.27617187 0.38671875 -1.93359375 0.5859375 C-2.75988281 0.84632812 -3.58617188 1.10671875 -4.4375 1.375 C-5.67306641 1.75785156 -5.67306641 1.75785156 -6.93359375 2.1484375 C-9.17798016 2.80882227 -9.17798016 2.80882227 -10 5 C-12.50390625 5.6328125 -12.50390625 5.6328125 -15.5625 6.125 C-17.08037109 6.37636719 -17.08037109 6.37636719 -18.62890625 6.6328125 C-19.80259766 6.81457031 -19.80259766 6.81457031 -21 7 C-21.33 9.97 -21.66 12.94 -22 16 C-21.154375 15.67 -20.30875 15.34 -19.4375 15 C-15.79010784 13.93894046 -12.77725336 13.84890987 -9 14 C-11.18614424 16.18614424 -12.53879949 16.68256535 -15.4375 17.625 C-16.61119141 18.01558594 -16.61119141 18.01558594 -17.80859375 18.4140625 C-20 19 -20 19 -23 19 C-23 14.38 -23 9.76 -23 5 C-19.9204031 3.96647769 -16.83718149 2.94789104 -13.75 1.9375 C-12.87730469 1.64294922 -12.00460938 1.34839844 -11.10546875 1.04492188 C-10.26113281 0.77099609 -9.41679687 0.49707031 -8.546875 0.21484375 C-7.77182617 -0.04176025 -6.99677734 -0.29836426 -6.19824219 -0.56274414 C-3.77358397 -1.04503677 -2.32152179 -0.7792359 0 0 Z " fill="#6E4280" transform="translate(31,87)"/>
<path d="M0 0 C2.4375 0.75 2.4375 0.75 4.4375 2.75 C4.77052312 5.8804173 4.91421956 7.92898298 3.3125 10.6875 C1.4375 11.75 1.4375 11.75 -1.625 11.625 C-4.5625 10.75 -4.5625 10.75 -6.5625 7.75 C-6.375 4.6875 -6.375 4.6875 -5.5625 1.75 C-2.5625 -0.25 -2.5625 -0.25 0 0 Z M-1.5625 2.75 C-1.8925 4.4 -2.2225 6.05 -2.5625 7.75 C-1.2425 7.75 0.0775 7.75 1.4375 7.75 C1.1075 6.1 0.7775 4.45 0.4375 2.75 C-0.2225 2.75 -0.8825 2.75 -1.5625 2.75 Z " fill="#060708" transform="translate(162.5625,132.25)"/>
<path d="M0 0 C-0.33 1.32 -0.66 2.64 -1 4 C1.64 4 4.28 4 7 4 C7 6.31 7 8.62 7 11 C6.34 11 5.68 11 5 11 C5 11.66 5 12.32 5 13 C0.25 14.125 0.25 14.125 -2 13 C-2 12.34 -2 11.68 -2 11 C-2.66 10.67 -3.32 10.34 -4 10 C-0.535 9.505 -0.535 9.505 3 9 C3.33 8.01 3.66 7.02 4 6 C3.278125 6.185625 2.55625 6.37125 1.8125 6.5625 C-1.12826973 7.01995307 -3.14103058 6.73516357 -6 6 C-5.625 3.5625 -5.625 3.5625 -5 1 C-3 0 -3 0 0 0 Z " fill="#7D3C96" transform="translate(96,78)"/>
<path d="M0 0 C2.4375 0.75 2.4375 0.75 4.4375 2.75 C4.77052312 5.8804173 4.91421956 7.92898298 3.3125 10.6875 C0.48555609 12.28943488 -1.51176777 11.54584319 -4.5625 10.75 C-6.45378342 8.85871658 -5.7991852 6.17932274 -5.890625 3.66015625 C-5.72820312 2.71462891 -5.72820312 2.71462891 -5.5625 1.75 C-2.5625 -0.25 -2.5625 -0.25 0 0 Z M-1.5625 2.75 C-1.8925 4.4 -2.2225 6.05 -2.5625 7.75 C-1.2425 7.75 0.0775 7.75 1.4375 7.75 C1.1075 6.1 0.7775 4.45 0.4375 2.75 C-0.2225 2.75 -0.8825 2.75 -1.5625 2.75 Z " fill="#050506" transform="translate(226.5625,132.25)"/>
<path d="M0 0 C3.125 0.25 3.125 0.25 5 1.25 C6.82988947 4.50313684 6.30628355 7.56390109 6.125 11.25 C5.135 11.25 4.145 11.25 3.125 11.25 C2.795 8.94 2.465 6.63 2.125 4.25 C1.795 4.25 1.465 4.25 1.125 4.25 C0.465 6.56 -0.195 8.87 -0.875 11.25 C-1.865 11.25 -2.855 11.25 -3.875 11.25 C-3.90188151 9.60425434 -3.92134123 7.95838587 -3.9375 6.3125 C-3.94910156 5.39597656 -3.96070312 4.47945312 -3.97265625 3.53515625 C-3.82640861 0.11296148 -3.46202801 0.30104591 0 0 Z " fill="#030303" transform="translate(88.875,131.75)"/>
<path d="M0 0 C1.98 0 3.96 0 6 0 C5.41399092 5.06572295 4.32728431 9.53638581 2.625 14.375 C2.20476562 15.59960938 1.78453125 16.82421875 1.3515625 18.0859375 C0.90554687 19.04757813 0.45953125 20.00921875 0 21 C-0.99 21.33 -1.98 21.66 -3 22 C-2.54554036 20.58208592 -2.08625056 19.16571954 -1.625 17.75 C-1.24214844 16.56664062 -1.24214844 16.56664062 -0.8515625 15.359375 C0 13 0 13 1.09375 10.90625 C2.35935367 8.24411813 2.1319816 5.90359516 2 3 C1.319375 4.60875 1.319375 4.60875 0.625 6.25 C-0.50088537 8.88062317 -1.67920206 11.46000396 -3 14 C-3.66 13.67 -4.32 13.34 -5 13 C-4.731875 12.34 -4.46375 11.68 -4.1875 11 C-2.74294953 7.35060933 -1.37128822 3.67754567 0 0 Z " fill="#6E3F80" transform="translate(84,70)"/>
<path d="M0 0 C2.33944736 0.28730055 4.6739143 0.61936779 7 1 C7 1.66 7 2.32 7 3 C6.01 3.495 6.01 3.495 5 4 C5.165 4.556875 5.33 5.11375 5.5 5.6875 C6.04041351 8.18691249 6.07082065 10.45045662 6 13 C4.35 13.66 2.7 14.32 1 15 C0 7.25 0 7.25 0 5 C-0.185625 4.319375 -0.37125 3.63875 -0.5625 2.9375 C-0.706875 2.298125 -0.85125 1.65875 -1 1 C-0.67 0.67 -0.34 0.34 0 0 Z " fill="#7C4091" transform="translate(134,75)"/>
<path d="M0 0 C3.0625 0.1875 3.0625 0.1875 5.0625 2.1875 C5.2578125 4.3515625 5.2578125 4.3515625 5.1875 6.8125 C5.16945312 7.62976563 5.15140625 8.44703125 5.1328125 9.2890625 C5.09800781 10.22878906 5.09800781 10.22878906 5.0625 11.1875 C4.0725 11.1875 3.0825 11.1875 2.0625 11.1875 C1.7325 8.8775 1.4025 6.5675 1.0625 4.1875 C0.7325 4.1875 0.4025 4.1875 0.0625 4.1875 C-0.2675 6.4975 -0.5975 8.8075 -0.9375 11.1875 C-1.9275 11.1875 -2.9175 11.1875 -3.9375 11.1875 C-3.96438151 9.54175434 -3.98384123 7.89588587 -4 6.25 C-4.01160156 5.33347656 -4.02320313 4.41695312 -4.03515625 3.47265625 C-3.88736181 0.01426638 -3.51148462 0.22413732 0 0 Z " fill="#050506" transform="translate(235.9375,131.8125)"/>
<path d="M0 0 C0.99 0.495 0.99 0.495 2 1 C2 1.66 2 2.32 2 3 C4.97 3.33 7.94 3.66 11 4 C11 4.66 11 5.32 11 6 C9 7 7 8 5 9 C5 9.66 5 10.32 5 11 C7.31 11 9.62 11 12 11 C12 10.34 12 9.68 12 9 C12.99 8.67 13.98 8.34 15 8 C15.33 8.66 15.66 9.32 16 10 C12.19795891 12.68379371 9.65719548 13.67917434 5 13 C2.125 11.5625 2.125 11.5625 0 9 C-0.41409388 5.95457539 -0.29354833 3.05290263 0 0 Z " fill="#6E3D7F" transform="translate(89,80)"/>
<path d="M0 0 C1.60725635 3.21451269 1.05748185 6.43612536 1 10 C0.01 10 -0.98 10 -2 10 C-2.33 7.69 -2.66 5.38 -3 3 C-3.33 3 -3.66 3 -4 3 C-4.33 5.31 -4.66 7.62 -5 10 C-5.99 10 -6.98 10 -8 10 C-8 6.7 -8 3.4 -8 0 C-4.69693408 -1.10102197 -3.28414305 -0.95067299 0 0 Z " fill="#040406" transform="translate(208,133)"/>
<path d="M0 0 C1.98 0 3.96 0 6 0 C9.07692308 6.4 9.07692308 6.4 8.6875 9.4375 C8.460625 9.953125 8.23375 10.46875 8 11 C7.731875 10.030625 7.46375 9.06125 7.1875 8.0625 C6.795625 7.051875 6.40375 6.04125 6 5 C5.01 4.67 4.02 4.34 3 4 C3.62003092 6.25137439 4.24621341 8.50105526 4.875 10.75 C5.22304687 12.00296875 5.57109375 13.2559375 5.9296875 14.546875 C6.76739025 17.24953641 7.62479728 19.5469357 9 22 C6 21 6 21 5.10864258 19.3894043 C4.87298584 18.70789307 4.6373291 18.02638184 4.39453125 17.32421875 C4.13349609 16.57849609 3.87246094 15.83277344 3.60351562 15.06445312 C3.34248047 14.28005859 3.08144531 13.49566406 2.8125 12.6875 C2.53986328 11.91470703 2.26722656 11.14191406 1.98632812 10.34570312 C0.70070243 6.5983781 0 4.04201168 0 0 Z " fill="#6B3F7E" transform="translate(70,70)"/>
<path d="M0 0 C2.625 0.375 2.625 0.375 5 1 C3.64825344 7.87137837 1.92228508 14.6075014 -1 21 C-1.66 21.33 -2.32 21.66 -3 22 C-2.45144652 17.428721 -1.58255197 13.32564205 0 9 C0.66 9 1.32 9 2 9 C1.67 7.68 1.34 6.36 1 5 C0.34 5 -0.32 5 -1 5 C-1.33 5.99 -1.66 6.98 -2 8 C-2.125 5.125 -2.125 5.125 -2 2 C-1.34 1.34 -0.68 0.68 0 0 Z " fill="#724681" transform="translate(206,75)"/>
<path d="M0 0 C2.31 0 4.62 0 7 0 C6.01 0.495 6.01 0.495 5 1 C5.45294865 2.75140143 5.91258748 4.50107344 6.375 6.25 C6.75785156 7.71179688 6.75785156 7.71179688 7.1484375 9.203125 C7.89724351 11.66250621 8.84044541 13.72122316 10 16 C10 18 10 18 8 20.125 C7.34 20.74375 6.68 21.3625 6 22 C7.32 22.33 8.64 22.66 10 23 C8.35 23 6.7 23 5 23 C4.67 21.35 4.34 19.7 4 18 C4.99 17.34 5.98 16.68 7 16 C6.41091199 13.84997829 5.8032758 11.7050308 5.1875 9.5625 C4.85105469 8.36753906 4.51460937 7.17257813 4.16796875 5.94140625 C3.78253906 4.97074219 3.39710938 4.00007813 3 3 C2.01 2.67 1.02 2.34 0 2 C0 1.34 0 0.68 0 0 Z " fill="#6D457E" transform="translate(192,75)"/>
<path d="M0 0 C0.99 0 1.98 0 3 0 C2.814375 0.598125 2.62875 1.19625 2.4375 1.8125 C1.77906313 4.16408762 1.77906313 4.16408762 3 7 C2.34 7 1.68 7 1 7 C1 9.64 1 12.28 1 15 C0.01 15 -0.98 15 -2 15 C-3.43598616 6.0899654 -3.43598616 6.0899654 -1.75 1.875 C-1.1725 1.25625 -0.595 0.6375 0 0 Z " fill="#070709" transform="translate(170,128)"/>
<path d="M0 0 C0.66 0.33 1.32 0.66 2 1 C2 1.99 2 2.98 2 4 C2.99 4 3.98 4 5 4 C5.99 4 6.98 4 8 4 C8 5.65 8 7.3 8 9 C5.1875 9.625 5.1875 9.625 2 10 C-1 8 -1 8 -1.8125 6.125 C-2.04398726 3.50147776 -1.34771696 2.21976911 0 0 Z " fill="#723F87" transform="translate(169,83)"/>
<path d="M0 0 C0.99 0.33 1.98 0.66 3 1 C3.33 4.96 3.66 8.92 4 13 C2.02 13 0.04 13 -2 13 C-1.39174965 8.65535464 -0.73832608 4.32448133 0 0 Z " fill="#7C3D93" transform="translate(162,79)"/>
<path d="M0 0 C1.98 0 3.96 0 6 0 C6 1.65 6 3.3 6 5 C6.99 5 7.98 5 9 5 C9 6.32 9 7.64 9 9 C8.01 9 7.02 9 6 9 C6 10.98 6 12.96 6 15 C5.34 15 4.68 15 4 15 C3.875 12.125 3.875 12.125 4 9 C4.66 8.34 5.32 7.68 6 7 C4.68 6.01 3.36 5.02 2 4 C1.01 4.495 1.01 4.495 0 5 C0 3.35 0 1.7 0 0 Z " fill="#724883" transform="translate(107,71)"/>
<path d="M0 0 C1.65 0 3.3 0 5 0 C4.67 5.28 4.34 10.56 4 16 C5.65 16 7.3 16 9 16 C9 16.33 9 16.66 9 17 C7.02 17 5.04 17 3 17 C2.67 13.37 2.34 9.74 2 6 C0.68 5.67 -0.64 5.34 -2 5 C-2.33 4.34 -2.66 3.68 -3 3 C-2.01 3 -1.02 3 0 3 C0 2.01 0 1.02 0 0 Z " fill="#6D3E81" transform="translate(141,75)"/>
<path d="M0 0 C0.99 0.99 1.98 1.98 3 3 C2.34 3 1.68 3 1 3 C1.165 3.763125 1.33 4.52625 1.5 5.3125 C2 8 2 8 2 11 C3.65 10.34 5.3 9.68 7 9 C6.67 10.32 6.34 11.64 6 13 C4.02 13 2.04 13 0 13 C-0.103125 12.0925 -0.20625 11.185 -0.3125 10.25 C-1.00414949 6.98038425 -1.82134921 5.46282263 -4 3 C-2.68 3.33 -1.36 3.66 0 4 C0 2.68 0 1.36 0 0 Z " fill="#673D82" transform="translate(133,79)"/>
<path d="M0 0 C2.8203125 0.0234375 2.8203125 0.0234375 6.125 0.375 C7.22070312 0.48585938 8.31640625 0.59671875 9.4453125 0.7109375 C10.28835937 0.80632812 11.13140625 0.90171875 12 1 C12 1.66 12 2.32 12 3 C13.65 3.33 15.3 3.66 17 4 C16.67 4.99 16.34 5.98 16 7 C10.06 5.35 4.12 3.7 -2 2 C-1.34 1.34 -0.68 0.68 0 0 Z " fill="#754588" transform="translate(20,75)"/>
<path d="M0 0 C0.99 2.97 1.98 5.94 3 9 C1.35 9.66 -0.3 10.32 -2 11 C-2.66 7.7 -3.32 4.4 -4 1 C-2 0 -2 0 0 0 Z " fill="#7B4690" transform="translate(201,75)"/>
<path d="M0 0 C0.33 0 0.66 0 1 0 C1 4.62 1 9.24 1 14 C0.01 14 -0.98 14 -2 14 C-2.05437607 12.41705218 -2.09296271 10.83355744 -2.125 9.25 C-2.14820313 8.36828125 -2.17140625 7.4865625 -2.1953125 6.578125 C-1.99139502 3.8864142 -1.36551721 2.30095026 0 0 Z " fill="#7F3C98" transform="translate(147,76)"/>
<path d="M0 0 C0.33 0.99 0.66 1.98 1 3 C1.66 3 2.32 3 3 3 C3 2.34 3 1.68 3 1 C3.66 1 4.32 1 5 1 C3.63016497 4.16115776 3.0109362 4.9927092 0 7 C-3.1875 7.125 -3.1875 7.125 -6 7 C-5 5 -5 5 -2 4 C-2.66 3.34 -3.32 2.68 -4 2 C-2.68 1.34 -1.36 0.68 0 0 Z " fill="#6C3D80" transform="translate(127,86)"/>
<path d="M0 0 C0.33 0.66 0.66 1.32 1 2 C0.34 2 -0.32 2 -1 2 C-1 2.66 -1 3.32 -1 4 C0.65 4 2.3 4 4 4 C2.68 4.99 1.36 5.98 0 7 C0.99 7.66 1.98 8.32 3 9 C3 9.66 3 10.32 3 11 C1.35 10.67 -0.3 10.34 -2 10 C-2.83241855 6.67032582 -3.2757381 4.24733335 -2 1 C-1.34 0.67 -0.68 0.34 0 0 Z " fill="#0A0A0C" transform="translate(112,133)"/>
<path d="M0 0 C0.99 0.66 1.98 1.32 3 2 C2.67 2.66 2.34 3.32 2 4 C1.01 3.34 0.02 2.68 -1 2 C-3.28397032 2.34605611 -4.93409037 2.96704519 -7 4 C-6.34 4.66 -5.68 5.32 -5 6 C-6.98 6 -8.96 6 -11 6 C-8.71490592 -0.36561922 -6.67110928 -0.35111101 0 0 Z " fill="#754E85" transform="translate(179,75)"/>
<path d="M0 0 C1 2 1 2 0.07421875 5.22265625 C-0.38002553 6.50546342 -0.84263454 7.78533182 -1.3125 9.0625 C-1.53873047 9.71283203 -1.76496094 10.36316406 -1.99804688 11.03320312 C-3.74552579 15.8727629 -3.74552579 15.8727629 -6 17 C-5.45144652 12.428721 -4.58255197 8.32564205 -3 4 C-2.34 4 -1.68 4 -1 4 C-0.67 2.68 -0.34 1.36 0 0 Z " fill="#6C3D7C" transform="translate(209,80)"/>
<path d="M0 0 C2.78637633 4.1795645 1.79562512 6.14668677 1 11 C0.01 11 -0.98 11 -2 11 C-2.28571429 3.57142857 -2.28571429 3.57142857 0 0 Z " fill="#7C3E96" transform="translate(154,80)"/>
<path d="M0 0 C1.2065625 0.0309375 1.2065625 0.0309375 2.4375 0.0625 C2.1075 1.7125 1.7775 3.3625 1.4375 5.0625 C0.1175 5.3925 -1.2025 5.7225 -2.5625 6.0625 C-2.94468767 4.40635343 -3.27645102 2.73792976 -3.5625 1.0625 C-2.5625 0.0625 -2.5625 0.0625 0 0 Z " fill="#733C9F" transform="translate(137.5625,83.9375)"/>
<path d="M0 0 C1.875 1.5 1.875 1.5 3 3 C1.96875 2.95875 0.9375 2.9175 -0.125 2.875 C-3.86829627 2.99575149 -6.53734547 3.64872018 -10 5 C-7.68925392 -0.11665204 -5.56678732 -0.45443162 0 0 Z " fill="#764D87" transform="translate(127,75)"/>
<path d="M0 0 C1.65 0.33 3.3 0.66 5 1 C5 4.63 5 8.26 5 12 C4.34 11.67 3.68 11.34 3 11 C3 8.36 3 5.72 3 3 C1.68 2.34 0.36 1.68 -1 1 C-0.67 0.67 -0.34 0.34 0 0 Z " fill="#0B0A0C" transform="translate(118,97)"/>
<path d="M0 0 C0.33 0.66 0.66 1.32 1 2 C1.66 2 2.32 2 3 2 C2.67 2.99 2.34 3.98 2 5 C2.88319294 8.15020361 2.88319294 8.15020361 4 11 C2.68 11 1.36 11 0 11 C-1.05404945 7.01803543 -0.84098656 4.01804691 0 0 Z " fill="#783B94" transform="translate(186,80)"/>
<path d="M0 0 C-2.75342006 2.75342006 -5.22412319 3.21878411 -9 4 C-11.4375 3.125 -11.4375 3.125 -13 2 C-8.49646738 0.24252386 -4.82360189 -0.19294408 0 0 Z " fill="#724788" transform="translate(22,101)"/>
<path d="M0 0 C0.66 0.66 1.32 1.32 2 2 C0.02 2.99 0.02 2.99 -2 4 C-2.99 3.34 -3.98 2.68 -5 2 C-7.15274948 2.30840599 -7.15274948 2.30840599 -9 3 C-9 2.34 -9 1.68 -9 1 C-5.98675805 -0.50662097 -3.31713623 -0.17770373 0 0 Z " fill="#0C0C10" transform="translate(85,97)"/>
<path d="M0 0 C0.33 0.99 0.66 1.98 1 3 C0.34 3 -0.32 3 -1 3 C-1 3.66 -1 4.32 -1 5 C-2.98 5.99 -2.98 5.99 -5 7 C-4.625 4.0625 -4.625 4.0625 -4 1 C-2 0 -2 0 0 0 Z " fill="#763996" transform="translate(175,81)"/>
<path d="M0 0 C-0.5775 0.268125 -1.155 0.53625 -1.75 0.8125 C-4.0325868 2.01719859 -5.9737942 3.40798115 -8 5 C-9.32 4.34 -10.64 3.68 -12 3 C-4.71428571 -0.42857143 -4.71428571 -0.42857143 0 0 Z " fill="#0D0A13" transform="translate(27,106)"/>
<path d="M0 0 C0 0.66 0 1.32 0 2 C-0.66 2 -1.32 2 -2 2 C-2 3.32 -2 4.64 -2 6 C-3.32 5.67 -4.64 5.34 -6 5 C-5.6875 3.0625 -5.6875 3.0625 -5 1 C-2 0 -2 0 0 0 Z " fill="#734389" transform="translate(128,80)"/>
<path d="M0 0 C2 2 2 2 2.125 5.625 C2.08375 6.73875 2.0425 7.8525 2 9 C1.01 9 0.02 9 -1 9 C-0.67 6.03 -0.34 3.06 0 0 Z " fill="#0A0A0A" transform="translate(86,134)"/>
<path d="M0 0 C2.31 0.33 4.62 0.66 7 1 C7 1.66 7 2.32 7 3 C4.03 2.505 4.03 2.505 1 2 C1 2.66 1 3.32 1 4 C0.34 4 -0.32 4 -1 4 C-0.67 2.68 -0.34 1.36 0 0 Z " fill="#79518B" transform="translate(134,75)"/>
<path d="M0 0 C0.66 0 1.32 0 2 0 C2.33 1.98 2.66 3.96 3 6 C1.68 5.67 0.36 5.34 -1 5 C-0.67 3.35 -0.34 1.7 0 0 Z " fill="#863DA0" transform="translate(79,84)"/>
<path d="M0 0 C0.99 0 1.98 0 3 0 C3 0.99 3 1.98 3 3 C1.68 2.67 0.36 2.34 -1 2 C-0.67 1.34 -0.34 0.68 0 0 Z " fill="#08080A" transform="translate(135,128)"/>
<path d="M0 0 C0.99 0 1.98 0 3 0 C3 0.99 3 1.98 3 3 C2.01 3 1.02 3 0 3 C0 2.01 0 1.02 0 0 Z " fill="#040406" transform="translate(96,128)"/>
</svg>
